<svg width="243" height="115" viewBox="0 0 243 115" fill="none" xmlns="http://www.w3.org/2000/svg">
<path d="M84.2462 0C83.7 0.391086 83.1916 0.832459 82.7277 1.31834C82.5649 1.48924 82.412 1.65199 82.285 1.79034C79.7607 4.57187 78.1233 7.65776 77.3535 11.1571C76.5837 14.6564 76.5251 18.2663 76.4697 21.8486C76.4697 21.8486 80.3498 16.7169 81.9627 13.1867C83.727 9.32278 84.2495 4.61744 84.2462 0Z" fill="#FED29F"/>
<path d="M75.9503 58.4201C77.3272 59.5268 78.9726 59.7661 79.6237 58.9555C80.2747 58.145 79.6871 56.5906 78.3086 55.4839C77.1449 54.548 75.7891 54.2323 75.0046 54.6473C74.1974 54.1171 73.3137 53.7136 72.3843 53.451C72.301 53.0236 72.179 52.6047 72.0197 52.1994C71.7709 51.556 71.413 50.9603 70.9618 50.4384C70.465 49.8935 69.8849 49.431 69.2431 49.068L69.1113 48.9931C69.112 48.985 69.112 48.9768 69.1113 48.9687C69.1093 48.8769 69.1131 48.785 69.1226 48.6936C69.1226 48.679 69.1226 48.635 69.1226 48.6318L69.1373 48.5651C69.1488 48.51 69.1634 48.4556 69.1812 48.4023C69.2498 48.2142 69.3574 48.0428 69.497 47.8994C69.5423 47.8508 69.5901 47.8046 69.6402 47.761L69.6842 47.7236L69.6988 47.7138C69.7824 47.6521 69.8712 47.5977 69.9641 47.5511L70.0048 47.5332L70.0438 47.5185C70.0796 47.5055 70.1171 47.4925 70.1529 47.4827C70.1887 47.4729 70.2457 47.4583 70.2912 47.4485L70.3466 47.4388H70.3645C70.4475 47.4388 70.5272 47.4274 70.6135 47.429C70.6591 47.429 70.7046 47.429 70.7502 47.4371H70.8055H70.8202C70.9861 47.4648 71.1494 47.5062 71.3085 47.5608C71.3719 47.5836 71.437 47.608 71.4989 47.6341L71.577 47.6683L71.6861 47.7203C71.8081 47.7806 71.9269 47.8473 72.0425 47.9189C72.158 47.9905 72.2264 48.0361 72.3143 48.1012L72.3403 48.1191L72.355 48.1305L72.3713 48.1419C71.9953 48.9085 72.6968 50.0836 73.9695 50.7965C75.2716 51.5256 76.6664 51.4963 77.0944 50.733C77.5225 49.9697 76.8194 48.7587 75.5206 48.0312C74.5441 47.4827 73.5089 47.3639 72.8742 47.6634C72.866 47.6552 72.8595 47.6455 72.8498 47.6373C72.4607 47.3207 72.0203 47.073 71.5477 46.9049C71.1711 46.76 70.7667 46.7016 70.3645 46.734C69.8872 46.7806 69.4389 46.9844 69.0901 47.3134C68.7273 47.6578 68.4969 48.1186 68.4391 48.6155C67.4303 48.0965 66.3867 47.6484 65.3158 47.2744C63.9729 46.8025 62.6033 46.4101 61.2143 46.0993C60.6816 45.9777 60.1483 45.8692 59.6144 45.7738C61.7989 44.5011 63.9034 43.096 65.9163 41.5665C70.282 38.2703 74.1446 34.3562 77.3825 29.9472L80.374 25.8782L77.3711 23.668L74.3797 27.7337C68.8997 35.1815 61.6163 41.0359 52.6452 45.2204C47.5945 41.754 41.6928 39.7335 35.5775 39.3769C29.4621 39.0204 23.3656 40.3414 17.9463 43.1973C12.527 46.0533 7.99103 50.3355 4.82818 55.5816C1.66534 60.8278 -0.00412077 66.8383 0.000119765 72.9641C-0.0117342 77.3335 0.856472 81.6606 2.55296 85.6873C4.24945 89.7139 6.73947 93.3577 9.87453 96.4012C16.0837 102.477 24.4835 106.098 33.5279 106.598C36.6072 106.761 39.8754 106.813 43.028 106.855C55.6497 107.028 68.6995 107.205 77.3451 114.902L79.8239 112.117C75.4571 108.23 69.7948 105.713 62.5147 104.422C56.2307 103.307 49.5447 103.216 43.08 103.128C39.8168 103.084 36.7325 103.042 33.733 102.876C16.6273 101.924 3.72723 89.0658 3.72723 72.9641C3.72723 56.4751 17.1416 43.0606 33.6304 43.0606C38.8343 43.0544 43.9487 44.4142 48.4624 47.0042C46.2923 47.8495 44.0332 48.6052 41.6852 49.2714C37.2403 50.5328 33.7948 52.3248 31.1289 54.2795C29.2014 55.6442 27.4925 57.2939 26.0606 59.172L25.989 59.2648C25.9646 59.2973 25.9386 59.3299 25.9158 59.3624C23.5493 62.4646 22.6607 65.2054 22.4068 66.1559C22.2847 66.61 22.2212 66.8184 22.2163 66.8379H22.231H22.2163H22.2326C20.8769 71.7193 21.1761 76.9123 23.0835 81.6057C24.9909 86.2991 28.399 90.2286 32.7756 92.7804C37.1521 95.3321 42.2506 96.3625 47.2746 95.7105C52.2986 95.0585 56.9652 92.7608 60.5454 89.1764C62.6813 87.0523 64.3748 84.5258 65.5281 81.743C66.6813 78.9602 67.2713 75.9764 67.264 72.9641C67.2687 68.5479 66.401 64.1743 64.7106 60.0944C63.0203 56.0146 60.5406 52.3088 57.414 49.19C56.9257 48.7018 56.426 48.2347 55.915 47.7806C56.8546 47.3107 57.7769 46.8225 58.6818 46.3157C59.2992 46.4242 59.9134 46.5436 60.5242 46.6738C61.875 46.9616 63.2094 47.3218 64.5215 47.7529C65.831 48.1796 67.1019 48.717 68.3203 49.3593C68.6148 49.5139 68.9029 49.6848 69.1829 49.8574C68.9444 50.1025 68.7411 50.3797 68.579 50.6809C68.3754 51.1136 68.2551 51.5807 68.2242 52.0578C67.316 52.2597 66.5723 53.552 66.5039 55.1502C66.4274 56.9162 67.207 58.3826 68.247 58.4282C69.287 58.4738 70.1903 57.0789 70.2668 55.313C70.3319 53.7798 69.7525 52.4729 68.9176 52.1246C68.9176 52.0481 68.9322 51.9699 68.942 51.8935C68.942 51.8772 68.9501 51.843 68.9517 51.8349C68.9534 51.8267 68.9615 51.7698 68.968 51.7372C68.9794 51.677 68.9908 51.6151 69.0055 51.5549C69.0298 51.4446 69.0608 51.3359 69.0982 51.2294L69.1259 51.1562C69.1259 51.1399 69.1698 51.0634 69.1259 51.1464C69.1487 51.1025 69.1666 51.0569 69.1894 51.0129C69.2335 50.9283 69.2824 50.8462 69.3359 50.7672C69.3619 50.7281 69.3896 50.6907 69.4172 50.6516L69.4628 50.5946C69.5539 50.4823 69.6516 50.3765 69.7509 50.2691C69.8518 50.3505 69.9511 50.4319 70.0536 50.5263C70.5221 50.9488 70.9031 51.4592 71.175 52.0285C71.2092 52.0969 71.2417 52.1669 71.2743 52.2369C71.2743 52.2483 71.3036 52.3069 71.3068 52.3117C71.3215 52.3459 71.3345 52.3817 71.3491 52.4159C71.4077 52.5673 71.4614 52.7186 71.5119 52.8716C71.6076 53.1821 71.6827 53.4985 71.7365 53.8189C71.7512 53.897 71.7625 53.9816 71.7739 54.0533C71.7739 54.0679 71.7739 54.0842 71.7739 54.1005C71.7739 54.1493 71.7853 54.1981 71.7902 54.2453C71.8065 54.4081 71.8179 54.5611 71.826 54.7189C71.8437 55.0442 71.8437 55.3702 71.826 55.6955C71.826 55.8468 71.8065 55.9998 71.7918 56.1512C70.9032 56.4279 70.2652 57.7706 70.327 59.3624C70.3889 61.1283 71.2824 62.5313 72.3208 62.4939C73.3592 62.4564 74.1534 60.9965 74.09 59.2306C74.0362 57.6958 73.3543 56.436 72.4949 56.1577C72.5584 55.5137 72.5584 54.8649 72.4949 54.2209C73.2007 54.4477 73.8745 54.7639 74.5001 55.1616C74.0834 56.0047 74.6824 57.4012 75.9503 58.4201ZM63.5336 72.9592C63.5336 78.0528 61.5102 82.9378 57.9085 86.5395C54.3068 90.1412 49.4219 92.1647 44.3284 92.1647C39.2348 92.1647 34.3499 90.1412 30.7482 86.5395C27.1466 82.9378 25.1232 78.0528 25.1232 72.9592C25.1273 68.9194 26.4179 64.9859 28.808 61.7289C29.1172 61.3204 29.459 60.9021 29.8317 60.4789C30.9423 59.2295 32.1892 58.1082 33.549 57.1359L33.6044 57.0968C36.1629 55.2674 39.2081 53.8417 42.7187 52.8521C45.9417 51.9428 49.1025 50.8261 52.1814 49.5091C55.7223 52.3065 58.5833 55.87 60.5495 59.9318C62.5157 63.9936 63.5359 68.4482 63.5336 72.9608V72.9592Z" fill="#FED29F"/>
<path d="M54.3607 32.1427C55.0784 33.9167 56.0354 35.5606 57.1275 36.7357C58.2668 38.0752 58.9943 38.3633 58.9943 38.3633C59.5482 36.4231 59.7613 34.4015 59.6242 32.3884C59.5688 31.8464 59.4875 31.2963 59.3817 30.7494C58.9732 28.5962 58.2131 26.3973 57.2919 24.2945C56.0925 21.5262 54.588 18.9004 52.8063 16.4658C52.7136 16.3307 52.6175 16.207 52.5329 16.1029C52.4483 15.9987 52.3701 15.9124 52.3099 15.8506C52.2497 15.7887 52.2155 15.7529 52.209 15.748C51.9357 19.0511 52.0702 22.3752 52.6094 25.6454C52.9475 27.87 53.5349 30.0495 54.3607 32.1427Z" fill="#FED29F"/>
<path d="M66.4843 29.6933C67.7429 28.1186 68.7202 26.3385 69.3732 24.4314C69.536 23.9089 69.6695 23.3718 69.7866 22.8266C70.244 20.6831 70.3954 18.3621 70.3628 16.0656C70.3315 13.0501 69.963 10.0475 69.2642 7.11392C69.2317 6.95116 69.191 6.80142 69.1535 6.67284C69.1161 6.54427 69.0754 6.43359 69.0461 6.34733C69.0168 6.26107 68.9957 6.22038 68.9924 6.21387C67.4585 9.15176 66.2931 12.2677 65.5224 15.4911C64.9723 17.6712 64.6698 19.9064 64.6208 22.1544C64.5931 24.0684 64.8356 25.9613 65.3939 27.4635C65.9326 29.1432 66.4843 29.6933 66.4843 29.6933Z" fill="#FED29F"/>
<path d="M100.583 23.8759C100.535 23.8734 100.487 23.8734 100.438 23.8759C100.354 23.8759 100.238 23.8759 100.103 23.8759C99.968 23.8759 99.8118 23.8906 99.649 23.9101C96.644 24.1756 93.6781 24.7761 90.8065 25.7004C88.619 26.3954 86.4658 27.2743 84.5762 28.3876C84.0961 28.6691 83.6306 28.9719 83.1846 29.2876C81.5847 30.5109 80.2081 32.0014 79.1157 33.6935C79.1157 33.6935 79.8123 34.0418 81.575 34.019C83.1781 34.0727 85.0498 33.7032 86.8564 33.0717C88.9711 32.3134 90.9938 31.3198 92.8865 30.1096C95.6986 28.356 98.2837 26.2623 100.583 23.8759Z" fill="#FED29F"/>
<path d="M94.7096 42.7547L94.6884 42.7433C94.5403 42.67 94.2522 42.5301 94.0146 42.4275C91.1839 41.3067 88.2356 40.5095 85.2258 40.0513C83.0139 39.703 80.7028 39.5142 78.4519 39.6688C77.8969 39.7095 77.3451 39.7697 76.8064 39.8527C74.8263 40.2291 72.926 40.9449 71.1897 41.9686C71.1897 41.9686 71.6584 42.5919 73.2453 43.3585C74.6548 44.1235 76.5004 44.628 78.3917 44.8722C80.6296 45.1602 82.9488 45.1065 85.177 44.8901C88.4563 44.5899 91.6857 43.8836 94.791 42.7872L94.7486 42.7661L94.7096 42.7547Z" fill="#FED29F"/>
<path d="M137.579 53.0967C134.615 53.0964 131.716 53.9753 129.251 55.6223C126.786 57.2693 124.864 59.6104 123.729 62.3495C122.594 65.0886 122.298 68.1028 122.876 71.0107C123.454 73.9186 124.882 76.5897 126.978 78.6862C129.075 80.7827 131.746 82.2104 134.654 82.7887C137.562 83.3671 140.576 83.0701 143.315 81.9353C146.054 80.8006 148.395 78.879 150.042 76.4137C151.689 73.9483 152.568 71.0499 152.568 68.0851C152.568 64.1099 150.988 60.2975 148.178 57.4867C145.367 54.6758 141.554 53.0967 137.579 53.0967ZM145.213 75.72C143.447 77.4856 141.123 78.5843 138.638 78.8288C136.153 79.0733 133.66 78.4486 131.583 77.061C129.507 75.6735 127.976 73.6089 127.252 71.2192C126.527 68.8294 126.653 66.2623 127.609 63.9552C128.565 61.6482 130.291 59.7439 132.493 58.5668C134.696 57.3897 137.238 57.0127 139.687 57.5C142.136 57.9872 144.341 59.3086 145.925 61.2391C147.509 63.1695 148.375 65.5895 148.375 68.0867C148.378 69.5047 148.101 70.9093 147.558 72.2192C147.015 73.5292 146.218 74.7185 145.213 75.7184V75.72Z" fill="#FED29F"/>
<path d="M239.123 76.8554C237.051 81.9009 232.313 85.148 227.055 85.148C219.818 85.148 213.932 79.0152 213.932 71.4763C213.932 63.9373 219.818 57.8046 227.055 57.8046C232.312 57.8046 237.049 61.0598 239.121 66.0939L243 64.4972C240.278 57.8844 234.019 53.6104 227.05 53.6104C217.501 53.6104 209.732 61.6229 209.732 71.473C209.732 81.3232 217.501 89.3341 227.05 89.3341C234.016 89.3341 240.275 85.0601 243 78.444L239.123 76.8554Z" fill="#FED29F"/>
<path d="M113.169 53.0898H108.975V89.3653H113.169V53.0898Z" fill="#FED29F"/>
<path d="M201.258 53.0898H197.063V89.3653H201.258V53.0898Z" fill="#FED29F"/>
<path d="M150.841 85.2529H124.316V89.4472H150.841V85.2529Z" fill="#FED29F"/>
<path d="M183.529 77.7347L165.636 59.8427V53.0898H161.441V89.3653H165.636V65.7736L183.529 83.6656V89.3653H187.722V53.0898H183.529V77.7347Z" fill="#FED29F"/>
<path d="M122.66 104.372C122.413 104.186 122.143 104.034 121.856 103.919C121.563 103.799 121.27 103.69 120.98 103.594C120.704 103.501 120.436 103.387 120.176 103.255C119.947 103.142 119.746 102.979 119.587 102.778C119.433 102.564 119.356 102.304 119.367 102.04C119.359 101.862 119.394 101.685 119.468 101.523C119.543 101.362 119.655 101.221 119.795 101.112C120.127 100.876 120.528 100.758 120.935 100.778C121.297 100.771 121.657 100.85 121.983 101.009C122.305 101.182 122.589 101.419 122.816 101.706L123.423 101.099C123.146 100.746 122.794 100.46 122.393 100.259C121.949 100.047 121.461 99.9406 120.969 99.9498C120.529 99.9421 120.093 100.029 119.69 100.205C119.331 100.361 119.023 100.615 118.803 100.938C118.581 101.276 118.467 101.673 118.477 102.077C118.463 102.438 118.541 102.796 118.703 103.119C118.846 103.383 119.048 103.612 119.292 103.786C119.542 103.961 119.812 104.105 120.096 104.214C120.391 104.329 120.682 104.438 120.972 104.54C121.248 104.638 121.517 104.755 121.776 104.891C122.01 105.013 122.212 105.188 122.365 105.404C122.52 105.642 122.598 105.923 122.587 106.208C122.594 106.4 122.553 106.591 122.467 106.764C122.382 106.936 122.255 107.085 122.098 107.196C121.726 107.45 121.281 107.576 120.83 107.554C120.375 107.565 119.923 107.467 119.514 107.267C119.123 107.061 118.788 106.762 118.537 106.398L117.93 106.994C118.256 107.442 118.687 107.803 119.186 108.044C119.684 108.285 120.235 108.399 120.788 108.376C121.613 108.376 122.264 108.179 122.741 107.787C123.219 107.394 123.458 106.844 123.461 106.136C123.475 105.764 123.397 105.394 123.234 105.059C123.095 104.791 122.899 104.556 122.66 104.372Z" fill="#FED29F"/>
<path d="M131.646 105.288C131.655 105.703 131.557 106.113 131.361 106.479C131.181 106.81 130.911 107.083 130.581 107.266C130.235 107.452 129.848 107.546 129.455 107.539C129.061 107.545 128.672 107.451 128.324 107.266C127.991 107.083 127.716 106.811 127.531 106.479C127.33 106.111 127.229 105.696 127.24 105.277V100.068H126.358V105.321C126.35 105.869 126.49 106.41 126.763 106.886C127.026 107.344 127.406 107.722 127.865 107.983C128.352 108.245 128.896 108.382 129.449 108.382C130.002 108.382 130.547 108.245 131.034 107.983C131.49 107.724 131.868 107.348 132.129 106.893C132.399 106.417 132.536 105.878 132.528 105.332V100.072H131.646V105.288Z" fill="#FED29F"/>
<path d="M136.578 100.072H135.696V108.267H136.578V100.072Z" fill="#FED29F"/>
<path d="M139.245 100.87H142.14V108.267H143.021V100.87H145.903V100.072H139.245V100.87Z" fill="#FED29F"/>
<path d="M149.44 104.455H153.585V103.681H149.44V100.87H153.894V100.072H149.44H149.143H148.559V108.267H149.143H149.44H153.966V107.468H149.44V104.455Z" fill="#FED29F"/>
<path d="M160.689 104.371C160.443 104.185 160.172 104.033 159.885 103.919C159.592 103.798 159.299 103.689 159.01 103.593C158.734 103.5 158.465 103.387 158.206 103.255C157.976 103.141 157.775 102.978 157.616 102.778C157.462 102.563 157.385 102.303 157.397 102.039C157.388 101.861 157.423 101.684 157.498 101.523C157.572 101.361 157.684 101.22 157.825 101.111C158.156 100.875 158.558 100.758 158.964 100.778C159.327 100.77 159.686 100.849 160.012 101.009C160.335 101.181 160.619 101.418 160.846 101.705L161.453 101.098C161.171 100.747 160.816 100.462 160.411 100.265C159.967 100.052 159.479 99.9465 158.987 99.9556C158.547 99.948 158.111 100.035 157.708 100.211C157.349 100.366 157.041 100.62 156.821 100.944C156.599 101.281 156.485 101.679 156.495 102.083C156.481 102.444 156.559 102.802 156.721 103.125C156.864 103.389 157.066 103.617 157.311 103.792C157.56 103.967 157.83 104.11 158.115 104.22C158.41 104.335 158.702 104.443 158.99 104.545C159.266 104.643 159.535 104.761 159.794 104.897C160.029 105.019 160.231 105.194 160.383 105.41C160.539 105.648 160.617 105.929 160.605 106.214C160.612 106.406 160.571 106.597 160.486 106.769C160.4 106.942 160.273 107.09 160.116 107.202C159.744 107.456 159.299 107.582 158.849 107.56C158.393 107.571 157.941 107.473 157.532 107.273C157.142 107.066 156.807 106.768 156.555 106.404L155.948 107C156.274 107.448 156.705 107.809 157.204 108.05C157.702 108.291 158.253 108.405 158.806 108.382C159.631 108.382 160.282 108.185 160.759 107.792C161.237 107.4 161.477 106.85 161.48 106.142C161.494 105.77 161.416 105.4 161.254 105.065C161.118 104.796 160.925 104.559 160.689 104.371Z" fill="#FED29F"/>
<path d="M173.225 105.502L169.914 100.072H169.283V108.267H170.165V101.988L172.915 106.504H173.536L176.286 101.988V108.267H177.168V100.072H176.537L173.225 105.502Z" fill="#FED29F"/>
<path d="M185.826 100.072L183.325 103.79L180.836 100.072H179.811L182.884 104.62V108.267H183.766V104.569L186.826 100.072H185.826Z" fill="#FED29F"/>
<path d="M195.462 100.072H194.284L190.067 103.852V100.072H189.185V108.267H190.067V104.14L194.378 108.267H195.581L191.071 103.982L195.462 100.072Z" fill="#FED29F"/>
<path d="M204.014 101.166C203.432 100.585 202.691 100.19 201.884 100.031C201.077 99.8714 200.241 99.9558 199.482 100.273C198.993 100.481 198.551 100.785 198.18 101.166C197.809 101.551 197.516 102.005 197.318 102.501C196.903 103.563 196.903 104.743 197.318 105.805C197.717 106.815 198.501 107.625 199.497 108.058C200.011 108.279 200.565 108.389 201.125 108.383C201.678 108.389 202.226 108.278 202.733 108.058C203.718 107.624 204.493 106.819 204.889 105.818C205.302 104.752 205.302 103.571 204.889 102.506C204.689 102.006 204.391 101.551 204.014 101.166ZM203.872 105.886C203.606 106.381 203.213 106.797 202.733 107.089C202.238 107.389 201.669 107.542 201.09 107.53C200.657 107.534 200.227 107.449 199.827 107.281C199.444 107.118 199.099 106.876 198.815 106.572C198.525 106.259 198.298 105.893 198.148 105.494C197.988 105.069 197.908 104.618 197.912 104.164C197.9 103.561 198.041 102.965 198.322 102.431C198.586 101.938 198.98 101.526 199.461 101.24C199.957 100.946 200.524 100.795 201.1 100.805C201.538 100.801 201.971 100.886 202.375 101.056C202.757 101.217 203.102 101.457 203.387 101.759C203.677 102.067 203.903 102.429 204.053 102.825C204.216 103.252 204.297 103.707 204.292 104.164C204.3 104.767 204.155 105.362 203.872 105.895V105.886Z" fill="#FED29F"/>
<path d="M213.483 106.581L208.694 100.072H208.064V108.267H208.945V101.757L213.733 108.267H214.365V100.072H213.483V106.581Z" fill="#FED29F"/>
<path d="M224.226 101.166C223.644 100.585 222.903 100.19 222.095 100.031C221.288 99.8714 220.452 99.9557 219.693 100.273C219.204 100.481 218.762 100.785 218.391 101.166C218.02 101.551 217.726 102.004 217.527 102.501C217.115 103.564 217.115 104.742 217.527 105.805C217.926 106.815 218.71 107.625 219.706 108.057C220.22 108.278 220.775 108.389 221.334 108.383C221.886 108.389 222.434 108.278 222.94 108.057C223.925 107.624 224.698 106.819 225.092 105.818C225.504 104.752 225.504 103.571 225.092 102.506C224.894 102.007 224.6 101.552 224.226 101.166ZM224.083 105.886C223.817 106.381 223.424 106.797 222.944 107.089C222.448 107.389 221.878 107.542 221.3 107.53C220.866 107.534 220.436 107.449 220.037 107.281C219.654 107.118 219.309 106.876 219.024 106.571C218.735 106.259 218.508 105.893 218.357 105.494C218.196 105.064 218.115 104.607 218.119 104.148C218.108 103.545 218.249 102.948 218.531 102.415C218.795 101.921 219.189 101.509 219.671 101.223C220.165 100.929 220.732 100.779 221.308 100.789C221.745 100.784 222.179 100.869 222.582 101.039C222.965 101.201 223.309 101.441 223.595 101.742C223.885 102.05 224.112 102.413 224.262 102.809C224.424 103.236 224.504 103.691 224.499 104.148C224.512 104.756 224.369 105.358 224.083 105.894V105.886Z" fill="#FED29F"/>
<path d="M232.754 105.068C232.611 104.795 232.409 104.557 232.163 104.371C231.917 104.185 231.646 104.033 231.359 103.919C231.066 103.798 230.775 103.69 230.484 103.593C230.208 103.5 229.94 103.387 229.681 103.255C229.452 103.141 229.25 102.978 229.091 102.778C228.936 102.563 228.859 102.303 228.871 102.039C228.863 101.861 228.897 101.684 228.972 101.523C229.046 101.361 229.158 101.22 229.299 101.111C229.63 100.875 230.032 100.758 230.438 100.778C230.801 100.77 231.16 100.849 231.486 101.009C231.809 101.181 232.093 101.418 232.32 101.705L232.927 101.098C232.646 100.747 232.29 100.462 231.885 100.265C231.441 100.053 230.954 99.9467 230.463 99.9556C230.022 99.9478 229.585 100.035 229.182 100.211C228.823 100.366 228.515 100.62 228.295 100.944C228.073 101.281 227.96 101.679 227.969 102.083C227.955 102.444 228.033 102.802 228.195 103.124C228.338 103.389 228.54 103.617 228.785 103.792C229.034 103.967 229.304 104.11 229.589 104.22C229.883 104.335 230.175 104.443 230.464 104.545C230.74 104.643 231.009 104.761 231.268 104.897C231.503 105.019 231.705 105.194 231.857 105.41C232.013 105.648 232.091 105.929 232.079 106.214C232.086 106.406 232.045 106.597 231.96 106.769C231.874 106.942 231.748 107.09 231.591 107.202C231.218 107.456 230.773 107.582 230.323 107.56C229.867 107.571 229.416 107.473 229.006 107.273C228.616 107.066 228.281 106.768 228.029 106.404L227.422 107C227.748 107.448 228.179 107.808 228.678 108.05C229.176 108.291 229.727 108.405 230.28 108.382C231.106 108.382 231.757 108.185 232.233 107.792C232.71 107.4 232.95 106.849 232.954 106.142C232.976 105.773 232.907 105.404 232.754 105.068Z" fill="#FED29F"/>
</svg>
