<svg id="Layer_1" data-name="Layer 1" xmlns="http://www.w3.org/2000/svg" viewBox="0 0 1573.28 589.97"><defs><style>.cls-1{fill:#f9b7b3;}</style></defs><path class="cls-1" d="M553.82,426.15c-12.66-9.86-27-17.61-39-28.43a56.29,56.29,0,0,1-13.16-17,45.59,45.59,0,0,1-4.15-24.43c1.76-18.47,11.86-35.28,22.47-50s21.62-28.59,28.76-45a68.44,68.44,0,0,0,2.76-50.64,71.08,71.08,0,0,0-32.74-38.15,77.45,77.45,0,0,0-51.95-7.12,83.67,83.67,0,0,0-24.69,9.17,4.14,4.14,0,0,0-1.09.6c-28.22,18.87-52.35,44.68-71.34,72.71-18.51,27.34-34.21,59.67-35.15,93.31-1.07,39.07,8.78,78.08,26,113a289.44,289.44,0,0,0,31.28,49.77c11.7,15,24.91,29.51,41.18,39.64,17.18,10.73,37.38,16,57.18,19.36s41.22,3.84,59.75-5a69.72,69.72,0,0,0,33.75-36.53,75.62,75.62,0,0,0,1.39-52.27A90.18,90.18,0,0,0,553.82,426.15ZM564.17,537.2c-11.94,13.25-29.09,19-46.49,19.64a138.42,138.42,0,0,1-29.5-2.78,206.34,206.34,0,0,1-27.93-7A106.12,106.12,0,0,1,435,535a128.08,128.08,0,0,1-20.91-17.84,262.52,262.52,0,0,1-33.84-44.38,250.69,250.69,0,0,1-36.57-106.29,148.71,148.71,0,0,1,2.55-49.15,182.42,182.42,0,0,1,18.08-45,273.49,273.49,0,0,1,64.32-77.58,217.58,217.58,0,0,1,17.49-13.15,75.33,75.33,0,0,1,48.77-8.8A62.86,62.86,0,0,1,535,197.18a58.13,58.13,0,0,1,11.3,44.16c-2.72,16.79-12.32,31.55-22.08,45.13-10.45,14.7-21.62,28.89-28.66,45.7s-9.26,35.29-1.28,51.88c14,29.15,48.94,38.23,68.8,62.09A75,75,0,0,1,581,494.05,65.89,65.89,0,0,1,564.17,537.2Z" transform="translate(-46.76 -27.51)"/><path class="cls-1" d="M530.78,444.25a78.11,78.11,0,0,0-14.46-18.86c-5.82-5.62-12.23-10.59-18.38-15.84a98.78,98.78,0,0,1-28.18-38c-5.76-14.06-8.33-29.82-2.84-44.36s16.2-25.67,26.34-36.52c11.49-12.17,22.81-24.48,29.28-40.18,6.23-15.15,6.58-32.9-4.06-46.26-9.19-11.4-24.22-17.21-38.55-17.33-17.29-.15-33.33,7.7-46.68,18.09a174.81,174.81,0,0,0-19.77,18.51,237.51,237.51,0,0,0-18.23,21.59,175.86,175.86,0,0,0-33.68,91.33,185.92,185.92,0,0,0-.1,24.53,4.67,4.67,0,0,0,.23.66c1.8,27.76,6.68,55.58,21.57,79.52a234.62,234.62,0,0,0,19.27,25.65c9.94,11.75,19.51,23.67,31,33.89a195.43,195.43,0,0,0,30.33,21.82,81.19,81.19,0,0,0,16.29,8.7,54.89,54.89,0,0,0,21.39,2.15c13.72-1.09,28.58-6.51,38.33-16.41,9.33-9.41,9-23.29,6.19-35.38A149.17,149.17,0,0,0,530.78,444.25Zm8.57,54.14a21.94,21.94,0,0,1-1.59,7.19c-.25.58-.5,1.19-.81,1.76,0,0-.35.59-.67,1.06a15.71,15.71,0,0,1-1,1.37,7.81,7.81,0,0,1-1.13,1.24,48.5,48.5,0,0,1-16.2,10.2c-11.6,4.63-26,6.3-37.83,1.34a107.17,107.17,0,0,1-14-8.13c-4.91-3-9.79-6.09-14.44-9.46A177.23,177.23,0,0,1,419,473.7c-7.12-8.63-14.48-17.13-21.21-26.07a121,121,0,0,1-15.44-25.91,147.06,147.06,0,0,1-10-37.18c-1.29-8.22-2-16.52-2.54-24.83a.14.14,0,0,0,0-.07H370A169.35,169.35,0,0,1,390.07,269,198.21,198.21,0,0,1,420.66,228c11.41-12,24.38-23.42,40.08-29.37a49.77,49.77,0,0,1,40.48,1.69,32.75,32.75,0,0,1,17.57,33.33c-1.84,15.89-11.86,30.2-22.33,41.77-10.09,11.18-21.3,21.53-29.54,34.25a68.5,68.5,0,0,0-9.37,20.18,59.74,59.74,0,0,0-1.36,22.75,98.35,98.35,0,0,0,18.16,44.05c9.26,12.88,22.13,21.82,33.75,32.34a70.37,70.37,0,0,1,14.27,17.14c3,5.28,5.7,10.73,8.15,16.27C535.44,473.49,540.27,486.5,539.35,498.39Z" transform="translate(-46.76 -27.51)"/><path class="cls-1" d="M505,475.25c-.57-9.79-4.83-19.19-9.89-27.48A192.42,192.42,0,0,0,474.8,420.9c-6.84-7.71-14-15.07-21-22.69-2.67-2.86-5.3-5.78-7.76-8.85-.95-1.21-1.84-2.45-2.73-3.72-.31-.54-.68-1.2-1-1.79a49.94,49.94,0,0,1-2.1-4.61c-4.95-12.35-5.25-26.52-3.75-39.59a65.81,65.81,0,0,1,3.84-17.36,57,57,0,0,1,8.57-14.08c7.28-9.12,16.16-16.83,24.1-25.38a98.35,98.35,0,0,0,11-13.87c3.8-6,6.88-12.9,5.91-20.18-1.75-12.93-15.44-19.79-27.47-19.38-14.37.57-26.23,11.74-35.58,21.53a130.64,130.64,0,0,0-23.35,35,209.17,209.17,0,0,0-7.89,19.56c-1.1,3.23-2.14,6.46-3.16,9.72-.48,1.64-1,3.25-1.43,4.89a34.08,34.08,0,0,0-.89,6.27c-2.59,26-.74,52.51,8.17,77.2a146.63,146.63,0,0,0,31.71,50.76,251.53,251.53,0,0,0,39.74,33.13,53.77,53.77,0,0,0,12.55,7c6.77,2.39,15.23,2.69,19.7-4.06A25.9,25.9,0,0,0,505,475.28Zm-8.6,6.63a6.16,6.16,0,0,1-.22,1.12,14.72,14.72,0,0,1-.87,2.23c0-.12-.3.36-.41.61l-.29.39c-.39.33-.49.45-.76.66l-.46.32c.12,0,.82-.4.19,0l-.76.35-.11,0a.75.75,0,0,0-.28,0l-1,.15-.48.07c.36-.05-.5.07-.7,0a7.48,7.48,0,0,1-1.15-.12c-.7-.08-1.36-.2-2-.34,1.1.22-.14,0-.39-.14l-1.11-.34a36.06,36.06,0,0,1-3.8-1.56c-.48-.22-1-.46-1.45-.73l-.3-.14-.21-.13c-.46-.24-.9-.52-1.33-.8-6-4-11.8-8.19-17.49-12.53-3.25-2.48-6.44-5-9.57-7.66s-6.62-5.72-9.07-8.08a147.41,147.41,0,0,1-32.4-44.5,152.49,152.49,0,0,1-12.89-67.33c.08-3.44.25-6.9.5-10.32a77.38,77.38,0,0,1,1.08-10.74,146.1,146.1,0,0,1,6.28-19.1,150.31,150.31,0,0,1,18-35.08,114.13,114.13,0,0,1,12.81-14.88,67.43,67.43,0,0,1,15.9-12.36,24.75,24.75,0,0,1,16.83-2.79A17.92,17.92,0,0,1,480,245.59c3,5.1,1.26,11.15-1.44,16.12a78.24,78.24,0,0,1-9.9,13.47c-7.49,8.58-16.1,16-23.55,24.51a63.34,63.34,0,0,0-15.51,29.58,108.15,108.15,0,0,0-.82,39.9,56.83,56.83,0,0,0,11.85,26.77c5.55,6.7,11.71,13,17.66,19.24,7.26,7.75,14.39,15.64,20.9,24.05a99.52,99.52,0,0,1,15.07,25.45,39.71,39.71,0,0,1,2.56,11.93c0,.06,0,.12,0,.18a29.48,29.48,0,0,1-.13,3.12A18.63,18.63,0,0,1,496.44,481.88Z" transform="translate(-46.76 -27.51)"/><path class="cls-1" d="M1006,355.24c-6.35-3.94-14.17-5.82-20.25-9.8a16.24,16.24,0,0,1-7-8.34,20.65,20.65,0,0,1-.06-11.66C981,316.29,986.73,308,992.79,301c3.21-3.72,6.76-7.36,8.18-12.17,1.77-5.86-.29-11.29-3.1-16.42a34.87,34.87,0,0,1-4.77-14.7,122.12,122.12,0,0,1,.54-15.54A62.14,62.14,0,0,0,993,226a46.89,46.89,0,0,0-7.24-15.8A249.81,249.81,0,0,0,942,159.21c-17.39-15-38-25.48-58.56-35.41-18-8.68-39.66-19.54-59.53-10-7.74,3.68-14.86,10.38-17.36,18.82a25.62,25.62,0,0,0,0,14.34,141.34,141.34,0,0,0,6.66,15.56c4.37,10.38,2.46,21.66,2.65,32.56a56.77,56.77,0,0,0,2.69,17.16,128.58,128.58,0,0,0,6.67,15c4.15,8.68,7.74,17.87,3.92,27.35a26.49,26.49,0,0,1-17.53,16,9.28,9.28,0,0,1-6,.22c-1.78-.95-2.56-3.89-3.34-5.57L794.64,248c-2.56-5.75-5.12-11.54-7.64-17.22a48.62,48.62,0,0,1-5.27-16.45,39,39,0,0,1,3.35-15.14,89.68,89.68,0,0,0,4.49-16.5,67.15,67.15,0,0,0-2.28-32.27,43.55,43.55,0,0,0-37.6-28.28,41.6,41.6,0,0,0-24.27,5.91,4.29,4.29,0,0,0-1.26.93,37.29,37.29,0,0,0-16.34,24c-1.76,8.3-1.64,17.54-8.64,23.57-6.52,5.62-15.06,8.12-21.87,13.31a28,28,0,0,0-10.68,24.09c.23,9.14,3.15,18.31,1.85,27.5-.87,6.88-4.83,12.61-9.75,17.92-9.4,10.19-23.37,19.12-27,33.66C629,304,634.06,314.4,637.9,324.41l13.41,34.92c4.44,11.64,9,23.09,13.27,34.72a117.11,117.11,0,0,1,5.19,17.33,69.59,69.59,0,0,1,1,17.59,94.83,94.83,0,0,0-.13,17.1,38.2,38.2,0,0,0,4.63,13.76,68,68,0,0,0,19.43,20.62c7.62,5.69,15.8,10.63,23.54,16.2,8.57,6.18,16.83,12.91,25.94,18.29a65.12,65.12,0,0,0,27.13,9.66,45,45,0,0,0,25.86-4.87,33.18,33.18,0,0,0,15.93-21.9c2.27-9.27,1.84-19.74,7.52-27.84a13.22,13.22,0,0,1,3.8-4l.41-.25c.25,8.82,1.56,18.14,7.9,24.45,6.18,6.24,16.86,9,24.52,3.73,9.07-6.36,6.17-18.37,5.17-27.57a124.92,124.92,0,0,1,1.21-34.75,63.44,63.44,0,0,1,3.79-14.32,15.71,15.71,0,0,1,7.21-8.65c7.5-3.45,14.76,4.12,17.54,10.54a46.32,46.32,0,0,1,2.72,16.07,114.45,114.45,0,0,0,1.5,17.73,50.26,50.26,0,0,0,64.46,37.27A51.84,51.84,0,0,0,994.74,450c1.46-9.73-.3-19.7-.73-29.5a47.36,47.36,0,0,1,1-13.17,29.58,29.58,0,0,1,5.87-11.19c5-6.33,11.68-12.22,13.8-20.26a18.64,18.64,0,0,0-8.72-20.67Zm-2.32,24.58c-2.36,3.35-5.14,6.36-7.76,9.48a46,46,0,0,0-7.1,10.87,39.93,39.93,0,0,0-3,13.8c-.49,9.58,1.4,19.11,1.2,28.67a41.54,41.54,0,0,1-7.82,23.93c-9.81,13.59-27.22,21.33-43.74,16.74a43.38,43.38,0,0,1-31.67-36.74c-1.17-10.9.33-22.83-5.15-32.81-4.37-8-12.47-14.95-22.12-14.05S861,409.54,858.29,418a114.29,114.29,0,0,0-4.89,32.85,134.8,134.8,0,0,0,.83,17.52,54.12,54.12,0,0,1,1,13.5c-1.24,7.8-9.43,8-15,4-7.64-5.44-7.43-17.3-7.39-25.69a4.35,4.35,0,0,0-.25-1.86,4.23,4.23,0,0,0-4.49-2.71c-9.82,1.42-16.22,10.18-19,19.09-2.93,9.32-2.08,20.07-6.92,28.7-7.91,14.23-28,15.38-41.73,10.35a106.75,106.75,0,0,1-26-15.22c-8-5.92-16.06-11.77-24.38-17.3-14.55-9.69-31.25-21-31.79-40.33-.15-5.48.62-11,.7-16.45a72.22,72.22,0,0,0-2-17.57c-2.8-11.9-7.64-23.23-12-34.59l-12.68-33.73-6.79-17.64a110.18,110.18,0,0,1-5.67-16.16,22.34,22.34,0,0,1,4.61-19.07,121.74,121.74,0,0,1,14.63-15.06,69.89,69.89,0,0,0,14.09-17c4.21-7.86,4.36-16.53,3.32-25.2-1-8.14-3.39-17.36.16-25.23,3.23-7.22,11.51-10.47,18-14,8.1-4.36,15.21-9.8,18-19,2.66-8.63,2.07-18.24,7.25-26a31.82,31.82,0,0,1,9.67-9.1l.16-.16a34.51,34.51,0,0,1,40.57,4.8c13.78,12.65,14,35.05,8.47,51.76A133.82,133.82,0,0,0,774,207.5a33.08,33.08,0,0,0,1.34,16.74,172.13,172.13,0,0,0,7,16.77l7.34,16.45a139.86,139.86,0,0,0,7.47,16.1c3.12,5.16,8.29,6.6,14,5.63a34,34,0,0,0,22.21-14.89,33.41,33.41,0,0,0,4.37-27.47c-2.83-10.34-9.4-19.21-12.2-29.51-2.92-10.72-.73-22.1-1.37-32.91a45.87,45.87,0,0,0-3.74-15.8c-2.13-4.9-5.16-9.6-6.28-14.86-1.66-7.74,2.19-14.68,8.41-19.39a31.66,31.66,0,0,1,24-5.44c10.41,1.45,20.12,6.1,29.52,10.6,10,4.82,20.11,9.63,29.85,15.06A189.59,189.59,0,0,1,933.51,163a185.42,185.42,0,0,1,23,22.67c7.06,8.17,13.59,16.8,19.84,25.62a49.59,49.59,0,0,1,8,14.5,45.09,45.09,0,0,1,1.1,14.22c-.5,10.52-2.11,21.49,2.46,31.41,2,4.3,6.4,9.33,5.35,14.41-.86,4.13-4.52,7.4-7.17,10.48-11,12.81-24.41,35.48-10.93,51.08,5.22,6.07,12.92,8.71,20,11.79a29,29,0,0,1,8.73,5.05,10.43,10.43,0,0,1,3.16,6.61A14.84,14.84,0,0,1,1003.65,379.82Z" transform="translate(-46.76 -27.51)"/><path class="cls-1" d="M952.39,357.11c-6.39-9.27-16.12-18.18-17.95-29.81-1.6-10.19,5-18.94,9.88-27.25a47,47,0,0,0,6.91-34.6c-3-24.78-9.93-50.82-25.36-70.86C912.42,177.11,891,164.78,868.54,166a36.88,36.88,0,0,0-16.49,4.17,21.55,21.55,0,0,0-9.91,14.56,64.7,64.7,0,0,0-1,16.84,158.8,158.8,0,0,0,1.64,16.58c1.6,11,3.93,21.89,4.93,33,.93,10.17.59,20.71-3.43,30.16a40.33,40.33,0,0,1-73.25,2.56,65.73,65.73,0,0,1-6-27.91c-.74-20.39,3.67-41.2-.62-61.46a62.87,62.87,0,0,0-4.85-14.39,28.8,28.8,0,0,0-10.21-12.72,14.65,14.65,0,0,0-17,.34,35.59,35.59,0,0,0-5.6,6,90.78,90.78,0,0,0-5.5,7.43,100.43,100.43,0,0,0-13.55,32.66.57.57,0,0,0,0,.13,143.42,143.42,0,0,1-11.83,32.23A73,73,0,0,1,688,258.68c-3.36,4.21-7.35,7.9-11,11.81A58.62,58.62,0,0,0,667,284a35.69,35.69,0,0,0-3.64,17.85c.45,12.47,6.41,23.85,13.12,34,7,10.63,14.9,20.62,19.11,32.77,4.45,12.68,5.09,26.35,6.22,39.63,1,11.84,2.18,23.65,6.21,34.88A66.42,66.42,0,0,0,723.07,468a40.13,40.13,0,0,0,25.55,12.36,26.27,26.27,0,0,0,18.25-5.09,40.22,40.22,0,0,0,9.33-13.07,29.72,29.72,0,0,1,9.13-11.3,40.63,40.63,0,0,1,14.37-5.27c5.52-1.19,11.12-2,16.6-3.35a17.76,17.76,0,0,0,8.24-3.76,12.38,12.38,0,0,0,3.75-7.57c.64-5-1-10-.9-15a42.72,42.72,0,0,1,2.85-14.22,45.13,45.13,0,0,1,18-21.88c17.54-10.85,39.64-5.09,54,8.35a53.35,53.35,0,0,1,9.19,11.39,87.49,87.49,0,0,1,6.12,13.53c3.54,9,7.66,18.77,16.83,23.25,11,5.4,23.85-.39,29.85-10.39s6-21.71,3.69-32.66A98.94,98.94,0,0,0,952.39,357.11Zm3.94,65.78a16.36,16.36,0,0,1-12.26,7.25,13.67,13.67,0,0,1-10.77-4.8c-6.14-6.88-8.09-16.6-12-24.8-8.82-18.48-27.63-32.68-48.26-34.55-21.22-1.9-40.51,10.73-49.37,29.74a50.77,50.77,0,0,0-4.27,14.62,60.91,60.91,0,0,0,.42,15.26,11.14,11.14,0,0,1-.28,5.92c-.92,1.79-3.4,2.23-5.2,2.66-5.4,1.3-10.91,2.09-16.33,3.23a52.43,52.43,0,0,0-15.5,5.45,31.32,31.32,0,0,0-11.4,11.46c-2.52,4.27-4.44,9.12-7.85,12.89a17.1,17.1,0,0,1-14,4.89c-18.36-1.31-29.69-19.21-34.73-35.3-3.51-11.22-4-23.28-5-34.93-1.07-13.28-2.47-26.76-7.34-39.21-4.6-11.84-12.6-21.81-19.51-32.35-6-9.27-11.69-20.38-11.1-31.7s7.84-18.91,15.2-26.43A92.69,92.69,0,0,0,697,260.54a105.87,105.87,0,0,0,8-14.11,153.77,153.77,0,0,0,11-31.75,1.2,1.2,0,0,0,0-.19,88.64,88.64,0,0,1,13.72-31.09q2.61-3.63,5.54-7a9.34,9.34,0,0,1,4.22-3.25c4.73-1.31,8.71,3.57,10.76,7.07,10.07,17,7.94,37.85,7,56.66-1,19.78-1.44,41.15,10.83,57.88a48.91,48.91,0,0,0,58.36,15.53,49.78,49.78,0,0,0,23.66-22.13,62.08,62.08,0,0,0,6.18-30.74c-.54-21.51-8.07-42.45-7-64,.24-4.75.69-10.4,4.05-14.11s9.47-4.62,14.25-5.1a53.33,53.33,0,0,1,29.34,6.43c20.45,10.63,32.41,31.36,39.07,52.68a179.21,179.21,0,0,1,7.26,35.89,39.63,39.63,0,0,1-1.59,17.2,74.4,74.4,0,0,1-6.72,13.15c-5.54,9.19-10.75,19-8.57,30,2.35,12,11.1,21.19,18,30.74a89,89,0,0,1,15.14,33.53C961.62,403.32,962.36,414.49,956.33,422.89Z" transform="translate(-46.76 -27.51)"/><path class="cls-1" d="M916.37,322.38a226.6,226.6,0,0,1-6.73-27.18c-2.8-17.77,3.11-35.63.08-53.37-1.23-7.86-4.64-17.29-13-19.88a16.26,16.26,0,0,0-17.55,6.73c-4.91,6.59-4.74,15.06-4.62,22.94a123.74,123.74,0,0,1-2.36,25.47,117.39,117.39,0,0,1-7.45,24.08,69.5,69.5,0,0,1-12.63,20.91,29.28,29.28,0,0,1-14.88,8.19,132.56,132.56,0,0,1-19.18,3.6c-13,1.54-26.86,1.75-39.26-3a48,48,0,0,1-16.46-10.57,33.55,33.55,0,0,1-4.09-4.81l-.16-.23-.2-.36c-.21-.36-.41-.72-.59-1.09-.48-.84-.89-1.73-1.3-2.61a142.81,142.81,0,0,1-8.45-26.49,224.51,224.51,0,0,0-7.72-27.15c-2.13-5.44-6.09-13.18-13.2-11.82a14.65,14.65,0,0,0-8.28,6.24,4,4,0,0,0-.75,1.61c-6.65,12.9-14.55,25.59-15.47,40.42a46.33,46.33,0,0,0,3.58,22.87,115.66,115.66,0,0,0,12.77,20,94,94,0,0,1,11.84,19,147,147,0,0,1,8.27,26.74,99.43,99.43,0,0,1,2.09,26.82,41.11,41.11,0,0,0,0,11.67,25.86,25.86,0,0,0,21.54,20.29,27.58,27.58,0,0,0,20.88-5.94,49.49,49.49,0,0,0,15.08-18.24c3.36-7.31,3.1-15.29,5.07-23,3.65-14.15,15-25,27.86-31.08,15.41-7.35,32.86-7.8,49.52-5.58,4.56.62,9.1,1.44,13.62,2.38a62.86,62.86,0,0,0,13.39,2.49,14.31,14.31,0,0,0,11.2-4.89,13.4,13.4,0,0,0,2.49-8.66A104.87,104.87,0,0,0,916.37,322.38Zm-188.5-68.57Zm185,97.7a7.76,7.76,0,0,1-.34.84c-1.44,2.43-5.59,2.29-8.42,1.67-17.47-3.92-35-7.13-53-4.85a72.25,72.25,0,0,0-40.9,18.29,55,55,0,0,0-12.69,18c-3.13,7.28-3.4,15-5,22.63a35.49,35.49,0,0,1-11.18,18.1c-4.67,4.31-10.29,7.86-16.87,7.24a18.17,18.17,0,0,1-13.69-8.57c-3.65-6.11-1.78-12.92-1.71-19.72a133.73,133.73,0,0,0-11.49-53.22c-5.9-13.88-17.53-24.15-24-37.6-6-12.58-3.53-26.77,2.07-39,3-6.45,6.47-12.62,9.72-18.93l.51-.66.48-.55.51-.5.79-.64.11-.08a1.87,1.87,0,0,0,.35-.16,4.54,4.54,0,0,0,.56.42.59.59,0,0,0,.14.07c.13.17.27.33.41.49l.51.69a.84.84,0,0,0,.25.37l.1.11a66.3,66.3,0,0,1,3.84,9.27c.32.89.58,1.79.87,2.7,0,.25.08.49.12.75l.51,1.82c.62,2.22,1.22,4.48,1.79,6.71,2.47,9.48,4.73,19.12,7.81,28.39a73.26,73.26,0,0,0,4.74,11.45,40.3,40.3,0,0,0,9.4,11.31,61.45,61.45,0,0,0,37,14.41,134.55,134.55,0,0,0,38.78-3.47,51.07,51.07,0,0,0,17.5-6.58,51.87,51.87,0,0,0,15.09-18.46A124.92,124.92,0,0,0,882,267.46a118.28,118.28,0,0,0,.66-12.76c0-3.95-.26-7.94.11-11.87a18.15,18.15,0,0,1,2.83-9,10.88,10.88,0,0,1,2.46-2.56,14,14,0,0,1,2.65-1.4,4.85,4.85,0,0,1,3-.12,7.82,7.82,0,0,1,3.15,2,18.83,18.83,0,0,1,4.42,10.12,87.51,87.51,0,0,1,.3,24.88,133.36,133.36,0,0,0-.57,26.5,160.94,160.94,0,0,0,6,26.21,157.68,157.68,0,0,1,6,26.54,20.87,20.87,0,0,1,.23,3.79A11.6,11.6,0,0,1,912.9,351.51Z" transform="translate(-46.76 -27.51)"/><path class="cls-1" d="M205.62,312c-22.61-27-48.08-51.34-73.28-75.87l-8.73-8.5a4.2,4.2,0,0,0-3.84-1.4,4.19,4.19,0,0,0-1.93.84,4.12,4.12,0,0,0-1.29,1.66c-18.35,34.63-37.81,69-51.6,105.77A287.13,287.13,0,0,0,47.48,455.38a249.69,249.69,0,0,0,12.26,61A242.36,242.36,0,0,0,71.56,545.3q3.61,7.26,7.5,14.27c2.72,4.78,5.87,9.29,8.57,14a2,2,0,0,1,.17.46,8.53,8.53,0,0,0,.76,1.39,62,62,0,0,0,3.75,5.78,77.6,77.6,0,0,0,15.18,15.43c20.79,16.16,47.6,21.43,73.43,20.76,4.52-.12,9.06-.43,13.56-.87a4.67,4.67,0,0,0,.67-.13c24.77-2.9,43.69-20.64,55.74-41.53,13.2-22.9,20.28-49.36,23-75.56,3.52-33.68-2.33-67.36-14.55-98.79A317.06,317.06,0,0,0,205.62,312Zm61,174.75a195.44,195.44,0,0,1-17.53,73.84c-9.52,20.28-25.11,40.45-47.24,46.12a61.53,61.53,0,0,1-8.52,1.51,4.22,4.22,0,0,0-1,.23,142.26,142.26,0,0,1-46.05-2.6,101.6,101.6,0,0,1-16.59-5.71c-1.19-.55-2.41-1.1-3.59-1.71l-1.56-.79c-.21-.09-1.11-.58-1.33-.7-2.18-1.19-4.28-2.49-6.32-3.87a88.65,88.65,0,0,1-9.87-7.84l-.08-.07-.24-.25-1-.93c-.67-.66-1.32-1.35-2-2-1-1.14-2-2.29-3-3.47-1.48-1.83-2.79-3.73-4.1-5.67l-.26-.43c-.06-.34-.37-.61-.54-.93l-.63-1.19c-.59-1.09-1.33-2.13-2-3.19q-4.36-6.72-8.24-13.81a239.26,239.26,0,0,1-28.12-86.07,261.73,261.73,0,0,1-.38-61,275.92,275.92,0,0,1,12.27-58.11c12.29-36.48,31.06-70.8,49.24-104.78l3.37-6.32c23.07,22.52,46.47,44.78,67.92,68.88,22.76,25.58,42.26,52.75,56.44,83.55C259.7,419.8,268.15,453.2,266.64,486.78Z" transform="translate(-46.76 -27.51)"/><path class="cls-1" d="M188.65,351.5c-15-21.44-31.27-42-47.57-62.39q-5.81-7.26-11.59-14.54a3.68,3.68,0,0,0-4.11-1.36,3.55,3.55,0,0,0-2.92,2.49c-7.88,21.64-16,43.21-23,65.12C92.26,363.4,85.92,386.53,83.17,410a193.19,193.19,0,0,0,4.4,67,168.1,168.1,0,0,0,28.8,62.46,131.81,131.81,0,0,0,24.28,24.65,63.67,63.67,0,0,0,31.61,14c20.93,2.27,41.1-8.55,54.68-23.91,15.49-17.49,20.7-41,19.73-63.86-1-24.78-8.86-49.19-18.9-71.68A409,409,0,0,0,188.65,351.5Zm40.78,184.93c-8.74,16.36-25.14,29.89-43.67,33.07A45.76,45.76,0,0,1,157.18,565a93.8,93.8,0,0,1-25.87-20.62A149.63,149.63,0,0,1,99.2,487.74a185.21,185.21,0,0,1-8.78-64.05c1-22.24,6.14-44.21,12.34-65.52,6.42-22,14.25-43.66,22.15-65.19l2.7-7.5c14.12,17.81,28.34,35.38,41.83,53.68a505.83,505.83,0,0,1,41.09,63.2c11.37,21.35,20.81,44.1,25.46,67.91C240.19,492.14,240.19,516.33,229.43,536.43Z" transform="translate(-46.76 -27.51)"/><path class="cls-1" d="M192.73,428.6c-10.9-27.16-26.65-52-42.17-76.68-1.9-3-3.77-6-5.65-9a4.14,4.14,0,0,0-4.47-1.31,3.6,3.6,0,0,0-2.91,3.48c-2.33,28.08-10.4,55.24-13.72,83.18a184.52,184.52,0,0,0-.15,42.41c1.53,13.68,5,27.87,13.52,39,7.36,9.48,19.06,16.75,31.27,17.16a33.89,33.89,0,0,0,29.9-17c7.25-12,8-26.13,6.1-39.73A182.28,182.28,0,0,0,192.73,428.6Zm2.72,67.78c-2.9,9.66-9.88,19.27-20.2,21.58s-21.07-2.52-28.26-9.8c-8.84-9.11-12.67-21.74-14.48-34a165.14,165.14,0,0,1-1-39.49c2.44-25.93,9.6-51.1,13-76.89,12.55,20,25,40,35.1,61.44a208.46,208.46,0,0,1,13.86,38.13C196.61,469.81,199.24,483.76,195.45,496.38Z" transform="translate(-46.76 -27.51)"/><path class="cls-1" d="M1619,319.12c-2.2-17.45-7-34.44-9.33-51.87a515.13,515.13,0,0,1-3.7-52.36c-1-32.49-1.38-65.34-9.58-97-7.32-28.23-20.66-56-43.54-74.89a80.75,80.75,0,0,0-19.07-11.67,4.29,4.29,0,0,0-.9-.5,43.77,43.77,0,0,0-36.76,1.62,44.92,44.92,0,0,0-14.6,12.17c-4.35,5.62-6.8,12.35-9.59,18.78-13.14,30.57-26.68,61-38.38,92.17-5.6,14.92-10.79,30-15.09,45.37a324.53,324.53,0,0,0-10.63,49,122.87,122.87,0,0,0,3.38,50,144.91,144.91,0,0,0,21.56,41.93,434.72,434.72,0,0,0,30.25,36.64,114.42,114.42,0,0,0,16.81,16.34,56,56,0,0,0,19.61,9.39c14.17,3.67,29,2.73,43.35.77,14.86-2,30.66-4,44.37-10.37a54.09,54.09,0,0,0,28.1-30.95C1620.46,349.43,1620.91,334.06,1619,319.12Zm-19.16,55.59c-8.84,11.26-22.64,15.89-36.18,18.49a228.17,228.17,0,0,1-41.65,5.33c-13.53.12-27-2.39-37.89-10.77a115.92,115.92,0,0,1-15.64-15.53c-5.06-5.68-10.1-11.38-15-17.19a211.29,211.29,0,0,1-25.94-37.13,106.51,106.51,0,0,1-12.46-43.58c-1-16.07,1.74-32.24,5.29-47.85a422.51,422.51,0,0,1,12.73-44.63c10.06-30.28,22.7-59.76,35.37-89.1L1477.85,71c2.73-6.35,5-13.34,8.82-19.13a36.37,36.37,0,0,1,27.44-16,35.38,35.38,0,0,1,15.29,2.45,4.58,4.58,0,0,0,.54.28c26.18,11.17,43.1,37.07,52.74,62.83,10.47,28,13.11,58.17,14.29,87.85.67,17,.89,34,1.91,51a354.27,354.27,0,0,0,6.45,50.06C1610.89,317.56,1618.86,350.6,1599.87,374.71Z" transform="translate(-46.76 -27.51)"/><path class="cls-1" d="M1570.35,192.62c-1-15.28-.26-30.57-.95-45.84-1.13-24.65-7.35-50.9-26.56-67.93a52.69,52.69,0,0,0-12.53-8.2.81.81,0,0,0-.12-.14,4.18,4.18,0,0,0-1.47-.82l-.15.15a24.71,24.71,0,0,0-19.4-1.6,35.29,35.29,0,0,0-15.34,12.28,103.59,103.59,0,0,0-12.19,21.39,286.85,286.85,0,0,0-10.17,26.85c-6.09,18.23-11,37-17.09,55.26-3.55,10.7-7.93,21.11-11.43,31.85a136.43,136.43,0,0,0-7.75,42.1c.06,27.26,12.56,53.26,32.1,72s44.13,29.63,70.1,34.88c6.79,1.4,14.39,3.17,21.3,1.59s12.11-7,16.2-12.66a79.55,79.55,0,0,0,13.41-34.19c4.34-27.66-3.09-54.9-9.79-81.52A254,254,0,0,1,1570.35,192.62Zm6.42,139.9a64,64,0,0,1-7.35,14.93c-3.22,4.8-7.31,10.23-13.37,11.23a33.41,33.41,0,0,1-10.27-.54q-4.68-.74-9.31-1.74a152.57,152.57,0,0,1-17.57-4.92,131.3,131.3,0,0,1-33-16.72c-20.33-14.43-36.11-36-40.85-60.77-5.14-26.62,4.41-52.38,13.68-76.94,6.22-16.47,10.71-33.62,15.87-50.45,5.33-17.3,10.82-34.94,19.47-50.91l.3-.57.72-1.27c.53-.87,1-1.74,1.57-2.72.93-1.47,1.89-2.91,2.92-4.33a48.18,48.18,0,0,1,3.18-4l.62-.68.42-.42a24.1,24.1,0,0,1,1.8-1.69,31.93,31.93,0,0,1,3.12-2.36c.15-.07,1.12-.66,1.37-.79a18.09,18.09,0,0,1,1.85-.84l.93-.34h0l.14,0,2-.3,1.57-.25h0l.16,0,.08,0h0l.18,0,1.17.07c.65,0,1.28.17,1.92.26s1.12.25.31,0l.9.26a26.36,26.36,0,0,1,3.1,1.18,4.42,4.42,0,0,0,1.24.8c20.11,8.69,30.29,30.94,33.72,51.48,2.22,14.16,2.16,28.54,2.23,42.82a243.23,243.23,0,0,0,3.49,44.27c5.19,27.55,15.47,54.35,16.25,82.61A94.63,94.63,0,0,1,1576.77,332.52Z" transform="translate(-46.76 -27.51)"/><path class="cls-1" d="M1326.42,260.41l0-.09a3.9,3.9,0,0,0-.27-1,103.23,103.23,0,0,0-19.62-33.67,156.67,156.67,0,0,0-27.64-24.1c-11.11-7.86-22.62-15.18-34-22.68-6.84-4.53-13.64-9.07-20.49-13.57A164.19,164.19,0,0,0,1205,153.84c-13.32-6.3-29.6-9.25-43.22-2.35a50.84,50.84,0,0,0-16.19,14c-4.71,5.82-9,12.05-13.28,18.15a246.9,246.9,0,0,0-23.81,39.8,268.8,268.8,0,0,0-15.06,44c-7.55,29.23-10.69,60-4.5,89.81,5.81,27.9,19.53,54.32,41.86,72.42a96,96,0,0,0,74.4,21.41A203,203,0,0,0,1248,439a191,191,0,0,0,37.3-19.21,139.2,139.2,0,0,0,30.56-27.46,84.73,84.73,0,0,0,16.29-31.26c7.18-25.81,4.86-53.63-.55-79.56C1330.11,274.32,1328.38,267.38,1326.42,260.41Zm1.15,80.45a84.14,84.14,0,0,1-31.26,60c-19.67,17.57-44.16,29.14-69.27,36.59-13.6,4.06-27.77,7.32-42,6.15a86.64,86.64,0,0,1-34.42-10.49c-22.88-12.45-39.13-33.79-48.07-58-9.89-26.86-10.48-56.11-5.79-84.07a276.94,276.94,0,0,1,10.8-42.15A199.72,199.72,0,0,1,1126,208.07a392.42,392.42,0,0,1,24.94-36,44.08,44.08,0,0,1,14.21-13,33.76,33.76,0,0,1,19.65-2.89c14,1.8,26.09,10.1,37.6,17.72l37.72,24.95c19.26,12.65,38.66,26.2,50.47,46.38a103.68,103.68,0,0,1,7.63,16.42h0C1325.44,287.19,1330.36,314.31,1327.57,340.86Z" transform="translate(-46.76 -27.51)"/><path class="cls-1" d="M1255.66,224.47a220.76,220.76,0,0,0-23.64-24.8,107.54,107.54,0,0,0-25.87-17.83,57.44,57.44,0,0,0-14.6-4.55c-.14,0-.26,0-.4,0a35.75,35.75,0,0,0-26.31,7.18c-8,6.19-11.93,15.33-15.8,24.35a261.2,261.2,0,0,0-17.2,60.36,264.67,264.67,0,0,0-2.82,62.49c.83,10.76,1.74,22.26,5.82,32.34a76.68,76.68,0,0,0,8.35,14.41q5.22,7.47,11,14.52c6.72,8.2,14,16.7,24.38,20.31s21.58,2.88,32.29,1.3a156.67,156.67,0,0,0,34.72-9.55c9.86-4,20.12-8.1,27.87-15.65a80.39,80.39,0,0,0,16.85-26.12,112.94,112.94,0,0,0,7.93-28.08,116.41,116.41,0,0,0-6.45-57.56C1284,257.07,1269.31,241.16,1255.66,224.47Zm21.89,145.74a61.33,61.33,0,0,1-8.66,12,47.1,47.1,0,0,1-12.39,9,154.94,154.94,0,0,1-29.1,11.38,116.34,116.34,0,0,1-32,5,42.39,42.39,0,0,1-13.74-2,32.64,32.64,0,0,1-11.7-7.39,157.68,157.68,0,0,1-20.25-25,62.78,62.78,0,0,1-7.53-13.33,70.14,70.14,0,0,1-3.46-15.8,245.63,245.63,0,0,1-.69-58,261.83,261.83,0,0,1,12.45-57.57,229.45,229.45,0,0,1,10.94-26.82,29.07,29.07,0,0,1,17.7-15.39,27.15,27.15,0,0,1,11.48-.74h.1a61,61,0,0,1,25.69,12A167,167,0,0,1,1239.12,218c7.31,7.74,14,16.15,20.8,24.33a160.52,160.52,0,0,1,18.25,25.25C1295.41,298.82,1295.51,339.26,1277.55,370.21Z" transform="translate(-46.76 -27.51)"/><path class="cls-1" d="M1249.34,266.43q-5.28-10.67-11.43-20.91a174,174,0,0,0-12.86-19.08c-9.2-11.47-22.33-20.71-37.59-19.4a15.93,15.93,0,0,0-10,3.9,4.21,4.21,0,0,0-.91.88c-8.38,9.51-11.42,23-14.06,35.08-3.15,14.49-6.2,28.84-6.65,43.75a156.75,156.75,0,0,0,5.29,46.63c3.87,14,10.88,29.05,23.84,36.76s28.28,5.83,42.15,2.74,27.42-8.94,34.85-21.49c7.71-13,8.12-28.6,4.81-43.06A212.1,212.1,0,0,0,1249.34,266.43Zm8.76,77.66a33.14,33.14,0,0,1-9.84,14.63,46.57,46.57,0,0,1-16.46,8.36,107.79,107.79,0,0,1-18.67,3.67,42.54,42.54,0,0,1-18.53-1.26c-12.59-4.29-19.81-17.11-23.94-29a115.68,115.68,0,0,1-4.74-20.44,156.5,156.5,0,0,1-2-21.61,187.41,187.41,0,0,1,5-42.92c2.38-11,4.26-22.56,9.7-32.55a36.35,36.35,0,0,1,3.76-5.5,10.75,10.75,0,0,1,7.78-2.26,28.17,28.17,0,0,1,9,1.56A39.82,39.82,0,0,1,1215,227.39,113.65,113.65,0,0,1,1227.31,244q5.89,9.28,11,19a267.12,267.12,0,0,1,17.54,40.83C1260.09,316.68,1262.61,331,1258.1,344.09Z" transform="translate(-46.76 -27.51)"/></svg>