<svg width="1280" height="645" viewBox="0 0 1280 645" fill="none" xmlns="http://www.w3.org/2000/svg">
<path d="M280.082 191.151C295.036 182.503 312.505 179.255 329.568 181.951C345.604 184.577 360.002 193.313 369.741 206.325C374.502 212.545 377.957 219.663 379.899 227.251C381.841 234.84 382.229 242.743 381.041 250.485C378.323 267.277 368.722 282.038 358.96 295.616C348.51 310.313 337.339 324.507 330.304 341.31C323.269 358.112 321.04 376.604 329.024 393.196C343.05 422.341 377.96 431.423 397.819 455.284C409.209 468.667 415.539 485.625 415.705 503.199C415.508 519.143 409.532 534.474 398.888 546.343C386.953 559.595 369.801 565.398 352.398 565.983C342.493 566.113 332.603 565.183 322.895 563.209C313.435 561.524 304.104 559.179 294.971 556.19C286.045 553.301 277.542 549.241 269.683 544.116C262.093 538.934 255.082 532.951 248.77 526.271C235.945 512.726 224.601 497.85 214.933 481.897C194.852 449.693 182.345 413.348 178.358 375.604C176.473 359.193 177.335 342.583 180.907 326.456C184.911 310.728 190.992 295.604 198.991 281.483C215.442 251.863 237.25 225.557 263.306 203.905C268.964 199.187 274.858 194.761 280.965 190.642C281.807 189.944 282.341 188.943 282.452 187.854C282.562 186.765 282.241 185.677 281.556 184.823C280.848 183.996 279.847 183.475 278.763 183.369C277.68 183.263 276.597 183.581 275.742 184.255C247.515 203.126 223.387 228.93 204.395 256.964C185.888 284.306 170.186 316.637 169.249 350.278C168.177 389.346 178.027 428.353 195.257 463.289C203.969 480.894 214.449 497.568 226.535 513.051C238.241 528.047 251.451 542.56 267.723 552.692C284.904 563.422 305.098 568.669 324.9 572.052C344.703 575.435 366.12 575.898 384.65 567.09C400.006 559.481 412.02 546.479 418.398 530.569C425.064 513.865 425.558 495.331 419.79 478.295C413.926 461.146 403.035 446.161 388.536 435.292C375.884 425.431 361.565 417.682 349.527 406.86C344.089 402.098 339.622 396.329 336.373 389.87C332.756 382.27 331.318 373.814 332.218 365.445C333.982 346.977 344.075 330.163 354.69 315.415C365.305 300.667 376.308 286.821 383.451 270.396C390.824 254.495 391.812 236.368 386.211 219.758C380.306 203.478 368.665 189.912 353.473 181.604C337.51 173.264 319.141 170.745 301.524 174.481C292.802 176.23 284.413 179.355 276.673 183.739C275.697 184.218 274.941 185.053 274.56 186.072C274.179 187.09 274.201 188.216 274.622 189.219C275.104 190.186 275.943 190.928 276.962 191.289C277.98 191.649 279.099 191.6 280.082 191.151Z" fill="#F9B7B3"/>
<path d="M204.678 368.782C202.799 337.269 209.765 305.86 224.791 278.1C233.181 263.2 243.464 249.448 255.381 237.187C266.792 225.152 279.759 213.762 295.457 207.817C301.947 205.242 308.905 204.062 315.88 204.353C322.855 204.644 329.691 206.401 335.944 209.508C341.944 212.581 346.851 217.43 349.995 223.394C353.139 229.359 354.368 236.148 353.513 242.836C351.665 258.725 341.648 273.034 331.175 284.601C321.087 295.786 309.88 306.135 301.637 318.857C297.435 325.027 294.271 331.844 292.27 339.037C290.36 346.462 289.897 354.186 290.906 361.786C293.261 377.735 299.5 392.861 309.073 405.831C318.326 418.719 331.203 427.657 342.823 438.174C348.458 443.091 353.273 448.876 357.086 455.31C360.062 460.594 362.792 466.04 365.241 471.58C370.159 482.63 374.991 495.645 374.07 507.538C373.949 510.006 373.412 512.435 372.483 514.723C372.229 515.306 371.979 515.913 371.673 516.48C371.673 516.48 371.323 517.078 371.002 517.548C370.681 518.018 370.336 518.491 369.983 518.917C369.647 519.368 369.266 519.783 368.845 520.157C364.179 524.597 358.675 528.062 352.654 530.35C341.045 534.987 326.649 536.654 314.817 531.699C309.941 529.342 305.249 526.622 300.782 523.561C295.872 520.579 290.992 517.47 286.343 514.103C274.179 505.12 263.217 494.614 253.724 482.842C246.596 474.211 239.241 465.715 232.508 456.775C226.303 448.814 221.115 440.11 217.065 430.864C212.123 418.96 208.766 406.458 207.082 393.68C205.792 385.465 205.081 377.16 204.541 368.853C204.366 367.774 203.773 366.807 202.892 366.16C202.01 365.514 200.91 365.24 199.829 365.396C198.754 365.59 197.796 366.191 197.153 367.073C196.511 367.956 196.233 369.052 196.378 370.134C198.151 398.093 202.998 426.136 217.985 450.243C223.819 459.224 230.26 467.796 237.262 475.898C247.199 487.642 256.77 499.567 268.244 509.786C277.634 518.01 287.787 525.317 298.566 531.609C303.651 535.116 309.117 538.034 314.86 540.307C321.778 542.422 329.045 543.151 336.245 542.454C349.966 541.361 364.834 535.942 374.581 526.044C383.911 516.632 383.609 502.758 380.773 490.665C377.386 477.609 372.247 465.073 365.496 453.398C361.669 446.409 356.793 440.049 351.037 434.539C345.218 428.912 338.812 423.944 332.658 418.691C320.319 408.489 310.648 395.436 304.48 380.66C298.72 366.607 296.147 350.843 301.638 336.307C307.128 321.771 317.841 310.636 327.983 299.788C339.471 287.618 350.788 275.302 357.256 259.6C363.49 244.454 363.837 226.702 353.201 213.34C344.01 201.948 328.984 196.137 314.653 196.017C297.357 195.869 281.317 203.718 267.969 214.107C260.913 219.758 254.303 225.945 248.198 232.613C241.699 239.442 235.613 246.654 229.972 254.208C210.373 280.872 198.699 312.53 196.292 345.539C195.716 353.703 195.683 361.896 196.194 370.064C196.434 371.081 197.05 371.969 197.916 372.551C198.783 373.133 199.838 373.367 200.869 373.205C201.901 373.043 202.833 372.497 203.48 371.678C204.127 370.858 204.44 369.824 204.358 368.783L204.678 368.782Z" fill="#F9B7B3"/>
<path d="M339.763 484.39C339.19 474.607 334.926 465.206 329.873 456.916C323.888 447.382 317.076 438.391 309.518 430.048C302.681 422.335 295.48 414.974 288.486 407.359C285.815 404.496 283.186 401.576 280.73 398.506C279.775 397.299 278.889 396.056 277.999 394.788C277.422 393.941 278.307 395.332 277.999 394.788C277.692 394.244 277.317 393.587 277.002 392.995C276.227 391.512 275.547 390.015 274.897 388.389C269.947 376.035 269.648 361.865 271.149 348.794C271.637 342.86 272.929 337.019 274.987 331.432C277.15 326.349 280.037 321.605 283.559 317.35C290.839 308.235 299.72 300.522 307.656 291.97C311.726 287.689 315.399 283.048 318.631 278.103C322.426 272.102 325.513 265.2 324.543 257.923C322.785 244.993 309.099 238.133 297.072 238.54C282.703 239.117 270.835 250.286 261.489 260.071C251.87 270.398 243.984 282.213 238.137 295.059C235.18 301.44 232.548 307.965 230.25 314.612C229.154 317.845 228.106 321.07 227.089 324.339C226.605 325.97 226.093 327.581 225.66 329.229C225.173 331.284 224.874 333.38 224.768 335.49C222.184 361.467 224.031 388.007 232.941 412.698C239.908 431.617 250.701 448.896 264.646 463.454C276.721 475.834 290.041 486.936 304.393 496.583C308.243 499.465 312.463 501.816 316.939 503.573C323.706 505.966 332.168 506.267 336.635 499.518C339.21 494.859 340.284 489.519 339.713 484.226C339.543 483.146 338.952 482.178 338.069 481.534C337.186 480.89 336.083 480.624 335.004 480.793C333.933 480.986 332.978 481.583 332.335 482.46C331.692 483.337 331.411 484.428 331.549 485.507C331.578 486.692 331.534 487.878 331.415 489.058C331.367 489.718 331.281 490.374 331.156 491.024C331.12 491.403 331.047 491.779 330.937 492.144C330.684 493.006 330.353 493.843 329.948 494.644C330.307 493.946 329.804 494.667 329.656 494.986L329.372 495.376C328.828 496.153 329.764 495.043 329.372 495.376C328.98 495.709 328.875 495.825 328.613 496.039L328.145 496.359C328.265 496.34 328.97 495.958 328.337 496.329L327.577 496.67C326.559 497.102 328.058 496.595 327.191 496.731L326.228 496.882C326.011 496.916 325.024 497.071 325.65 496.973C326.276 496.874 325.265 497.033 325.053 496.943C324.667 496.931 324.281 496.893 323.9 496.828C323.195 496.741 322.535 496.622 321.871 496.48C322.967 496.703 321.727 496.503 321.48 496.344L320.365 496.001C319.072 495.554 317.804 495.036 316.568 494.449C316.089 494.228 315.607 493.983 315.12 493.714C313.999 493.174 315.698 494.092 314.61 493.448C314.151 493.2 313.713 492.923 313.275 492.646C307.244 488.656 301.477 484.452 295.786 480.113C292.535 477.637 289.349 475.101 286.22 472.458C283.09 469.814 279.596 466.734 277.154 464.378C263.656 451.71 252.664 436.614 244.752 419.877C235.396 398.703 230.988 375.675 231.862 352.543C231.938 349.1 232.111 345.642 232.364 342.221C232.467 338.622 232.827 335.035 233.442 331.487C235.093 324.982 237.191 318.6 239.721 312.384C244.154 299.953 250.2 288.157 257.705 277.301C261.544 271.986 265.831 267.011 270.521 262.429C275.174 257.537 280.533 253.368 286.419 250.061C291.524 247.169 297.489 246.18 303.254 247.27C307.9 248.152 312.01 250.833 314.69 254.73C317.736 259.83 315.948 265.887 313.248 270.852C310.444 275.688 307.124 280.207 303.347 284.328C295.86 292.909 287.25 300.307 279.804 308.832C272.08 317.129 266.723 327.346 264.289 338.418C261.544 351.549 261.266 365.077 263.47 378.311C265.013 388.117 269.1 397.347 275.322 405.082C280.866 411.789 287.031 418.053 292.976 424.327C300.237 432.073 307.373 439.962 313.875 448.37C320.143 456.052 325.224 464.631 328.949 473.821C330.413 477.645 331.278 481.672 331.514 485.759C331.559 486.329 331.722 486.883 331.991 487.386C332.26 487.89 332.63 488.333 333.079 488.687C333.527 489.04 334.043 489.298 334.596 489.442C335.148 489.587 335.724 489.616 336.288 489.528C336.853 489.439 337.392 489.235 337.874 488.928C338.355 488.621 338.768 488.218 339.086 487.743C339.404 487.269 339.621 486.734 339.723 486.173C339.825 485.611 339.81 485.034 339.678 484.478L339.763 484.39Z" fill="#F9B7B3"/>
<path d="M563.438 144.842C569.881 140.854 577.457 139.096 584.997 139.839C592.538 140.582 599.626 143.785 605.168 148.953C618.948 161.6 619.135 184.007 613.64 200.716C611.675 205.917 610.037 211.235 608.737 216.641C607.74 222.245 608.203 228.013 610.083 233.386C612.125 239.096 614.469 244.693 617.107 250.154L624.451 266.6C626.596 272.121 629.088 277.5 631.915 282.706C635.044 287.867 640.205 289.303 645.925 288.331C650.442 287.481 654.74 285.723 658.558 283.163C662.377 280.604 665.636 277.296 668.139 273.44C670.795 269.443 672.561 264.922 673.315 260.183C674.07 255.443 673.796 250.597 672.513 245.973C669.681 235.631 663.107 226.765 660.306 216.468C657.389 205.745 659.576 194.368 658.94 183.558C658.643 178.111 657.377 172.759 655.2 167.756C653.074 162.857 650.041 158.15 648.92 152.896C647.261 145.159 651.105 138.212 657.325 133.509C660.757 131.051 664.645 129.303 668.761 128.369C672.877 127.435 677.138 127.332 681.295 128.067C691.713 129.517 701.424 134.163 710.816 138.662C720.851 143.48 730.933 148.29 740.669 153.722C750.374 159.034 759.596 165.185 768.23 172.103C776.551 178.975 784.257 186.561 791.258 194.775C798.315 202.948 804.851 211.573 811.096 220.391C814.577 224.74 817.299 229.645 819.148 234.899C820.266 239.55 820.637 244.35 820.245 249.117C819.75 259.636 818.14 270.601 822.708 280.522C824.691 284.826 829.109 289.859 828.055 294.936C827.199 299.069 823.541 302.334 820.891 305.415C809.874 318.228 796.479 340.891 809.959 356.497C815.181 362.564 822.875 365.206 829.996 368.284C833.178 369.447 836.135 371.155 838.733 373.33C840.547 375.082 841.669 377.43 841.893 379.943C841.76 383.258 840.521 386.433 838.374 388.961C836.014 392.318 833.228 395.323 830.61 398.449C827.741 401.716 825.349 405.374 823.507 409.314C821.687 413.698 820.666 418.372 820.492 423.116C819.997 432.696 821.887 442.223 821.685 451.782C821.624 460.378 818.893 468.742 813.87 475.717C804.06 489.302 786.646 497.046 770.133 492.456C761.796 490.183 754.327 485.471 748.684 478.926C743.04 472.38 739.479 464.298 738.456 455.715C737.288 444.816 738.794 432.88 733.305 422.906C728.936 414.879 720.841 407.955 711.186 408.854C701.531 409.753 695.704 418.689 693.008 427.134C689.789 437.79 688.144 448.858 688.122 459.989C688.017 465.84 688.293 471.692 688.948 477.507C689.838 481.947 690.168 486.481 689.931 491.002C688.688 498.8 680.499 498.975 674.965 495.006C667.325 489.565 667.537 477.709 667.576 469.311C667.632 468.682 667.547 468.049 667.326 467.457C667.105 466.865 666.755 466.331 666.3 465.893C665.845 465.455 665.298 465.125 664.699 464.927C664.099 464.729 663.463 464.668 662.837 464.748C653.017 466.166 646.619 474.921 643.798 483.83C640.869 493.151 641.718 503.903 636.879 512.536C628.971 526.761 608.869 527.917 595.15 522.888C585.821 519.066 577.082 513.939 569.194 507.661C561.158 501.74 553.134 495.891 544.813 490.36C530.264 480.673 513.558 469.35 513.018 450.034C512.873 444.553 513.641 439.076 513.717 433.585C513.787 427.672 513.135 421.773 511.774 416.019C508.968 404.119 504.129 392.784 499.755 381.425L487.082 347.699L480.29 330.056C477.983 324.823 476.087 319.418 474.619 313.891C473.886 310.572 473.921 307.13 474.719 303.826C475.517 300.523 477.059 297.445 479.226 294.828C483.657 289.391 488.555 284.353 493.864 279.769C499.431 274.879 504.184 269.134 507.946 262.749C512.164 254.88 512.31 246.218 511.269 237.545C510.287 229.406 507.877 220.182 511.43 212.319C514.663 205.097 522.938 201.848 529.467 198.33C537.568 193.973 544.684 188.537 547.516 179.379C550.182 170.741 549.587 161.135 554.765 153.41C557.318 149.734 560.614 146.635 564.441 144.314C565.289 143.619 565.827 142.617 565.938 141.527C566.049 140.436 565.723 139.346 565.033 138.495C564.324 137.668 563.325 137.146 562.242 137.035C561.159 136.925 560.075 137.236 559.215 137.902C554.942 140.601 551.261 144.138 548.394 148.3C545.528 152.463 543.535 157.163 542.536 162.118C540.779 170.416 540.896 179.653 533.898 185.688C527.377 191.303 518.837 193.804 512.027 198.995C508.411 201.827 505.545 205.505 503.683 209.706C501.821 213.906 501.02 218.5 501.349 223.083C501.576 232.229 504.496 241.397 503.199 250.585C502.329 257.46 498.368 263.191 493.452 268.505C484.047 278.694 470.076 287.626 466.461 302.163C463.737 313.106 468.781 323.545 472.623 333.555L486.026 368.475C490.469 380.119 495.055 391.567 499.298 403.193C501.471 408.826 503.206 414.619 504.486 420.52C505.559 426.319 505.89 432.231 505.471 438.113C504.911 443.797 504.868 449.521 505.342 455.213C505.991 460.054 507.563 464.726 509.97 468.975C514.927 477.136 521.545 484.162 529.395 489.597C537.024 495.285 545.202 500.222 552.936 505.795C561.507 511.978 569.768 518.703 578.879 524.085C587.089 529.289 596.359 532.59 606.009 533.747C614.922 534.736 623.927 533.038 631.869 528.873C635.915 526.548 639.425 523.396 642.17 519.622C644.916 515.848 646.834 511.537 647.801 506.971C650.072 497.704 649.637 487.233 655.324 479.133C656.293 477.542 657.589 476.175 659.124 475.121C660.66 474.068 662.402 473.351 664.234 473.02L659.476 468.484C659.434 478.907 659.529 491.456 667.426 499.324C673.612 505.56 684.29 508.351 691.947 503.052C701.016 496.692 698.118 484.682 697.119 475.484C695.9 463.902 696.306 452.207 698.327 440.739C699.029 435.833 700.303 431.027 702.124 426.419C703.372 422.741 705.938 419.656 709.327 417.76C716.83 414.311 724.089 421.885 726.874 428.309C728.722 433.461 729.642 438.898 729.593 444.371C729.63 450.312 730.132 456.241 731.094 462.104C733.066 471.209 737.587 479.565 744.129 486.196C750.571 493.042 758.824 497.915 767.928 500.248C777.032 502.582 786.611 502.279 795.549 499.376C804.273 496.311 812.018 490.967 817.98 483.898C823.943 476.829 827.906 468.294 829.459 459.176C830.917 449.444 829.155 439.478 828.726 429.672C828.448 425.257 828.79 420.824 829.743 416.504C830.867 412.394 832.869 408.576 835.611 405.315C840.564 398.984 847.289 393.091 849.408 385.057C850.397 381.131 850.08 376.99 848.506 373.26C846.933 369.53 844.187 366.415 840.685 364.385C834.341 360.444 826.52 358.562 820.441 354.58C817.224 352.689 814.758 349.746 813.458 346.247C812.315 342.445 812.296 338.394 813.403 334.581C815.693 325.434 821.45 317.151 827.507 310.153C830.724 306.439 834.273 302.796 835.689 297.983C837.459 292.127 835.398 286.699 832.593 281.561C829.918 277.082 828.286 272.057 827.817 266.86C827.667 261.674 827.85 256.485 828.364 251.323C828.843 245.905 828.608 240.449 827.667 235.092C826.263 229.42 823.806 224.062 820.425 219.297C808.209 200.424 793.5 183.288 776.698 168.355C759.309 153.313 738.719 142.871 718.136 132.947C700.143 124.269 678.475 113.404 658.607 122.966C650.869 126.649 643.753 133.344 641.253 141.783C639.886 146.465 639.889 151.441 641.259 156.123C643.165 161.44 645.39 166.638 647.922 171.688C652.289 182.06 650.384 193.343 650.566 204.249C650.579 210.07 651.487 215.855 653.258 221.4C655.159 226.537 657.388 231.546 659.931 236.396C664.081 245.075 667.67 254.261 663.854 263.746C662.373 267.586 660.017 271.027 656.974 273.797C653.931 276.567 650.284 278.589 646.323 279.703C644.406 280.434 642.303 280.512 640.337 279.927C638.559 278.972 637.777 276.034 636.995 274.355L629.357 257.141C626.802 251.396 624.24 245.603 621.72 239.927C618.998 234.801 617.212 229.23 616.448 223.477C616.54 218.257 617.679 213.11 619.796 208.339C621.816 202.994 623.32 197.468 624.287 191.837C626.174 181.055 625.391 169.975 622.009 159.564C619.105 151.744 614.018 144.923 607.352 139.909C600.686 134.896 592.722 131.902 584.405 131.282C575.903 130.721 567.433 132.783 560.139 137.19C559.159 137.665 558.4 138.499 558.018 139.519C557.636 140.54 557.661 141.668 558.088 142.67C558.522 143.657 559.324 144.436 560.323 144.841C561.322 145.247 562.439 145.247 563.438 144.842Z" fill="#F9B7B3"/>
<path d="M550.671 223.831C553.19 212.608 557.866 201.982 564.439 192.544C566.181 190.123 568.034 187.784 569.975 185.529C571.04 184.058 572.508 182.927 574.202 182.274C578.931 180.964 582.905 185.844 584.96 189.347C595.025 206.304 592.901 227.198 591.955 246.007C590.94 265.789 590.519 287.156 602.794 303.889C609.38 312.636 618.71 318.92 629.289 321.734C639.869 324.548 651.086 323.73 661.145 319.411C671.282 314.883 679.614 307.094 684.814 297.282C689.465 287.733 691.593 277.151 690.994 266.545C690.454 245.032 682.924 224.099 684 202.505C684.241 197.753 684.687 192.105 688.052 188.392C691.418 184.68 697.518 183.772 702.304 183.292C712.495 182.585 722.676 184.816 731.64 189.72C752.088 200.357 764.053 221.088 770.706 242.406C774.348 254.087 776.782 266.111 777.968 278.29C778.712 284.073 778.169 289.949 776.376 295.496C774.58 300.093 772.328 304.498 769.655 308.646C764.115 317.834 758.913 327.61 761.09 338.647C763.438 350.62 772.189 359.835 779.141 369.382C786.468 379.383 791.623 390.807 794.276 402.919C796.342 412.467 797.083 423.631 791.049 432.033C789.682 434.086 787.87 435.805 785.748 437.061C783.625 438.317 781.247 439.079 778.789 439.289C776.75 439.341 774.724 438.937 772.861 438.107C770.997 437.276 769.342 436.04 768.017 434.488C761.878 427.603 759.933 417.887 756.031 409.688C747.207 391.204 728.395 377.002 707.769 375.131C686.546 373.23 667.258 385.86 658.399 404.874C656.251 409.504 654.812 414.431 654.13 419.49C653.633 424.574 653.774 429.702 654.552 434.751C654.993 436.713 654.896 438.758 654.272 440.67C653.345 442.469 650.872 442.907 649.065 443.338C643.666 444.63 638.164 445.42 632.743 446.567C627.32 447.552 622.086 449.39 617.238 452.013C612.501 454.771 608.57 458.725 605.837 463.478C603.324 467.748 601.395 472.592 597.989 476.36C596.17 478.182 593.962 479.569 591.531 480.417C589.1 481.264 586.509 481.55 583.952 481.254C565.585 479.942 554.263 462.047 549.22 445.956C545.706 434.734 545.194 422.67 544.229 411.023C543.156 397.74 541.755 384.261 536.89 371.819C532.292 359.978 524.286 350.004 517.376 339.463C511.331 330.194 505.688 319.084 506.279 307.76C506.87 296.437 514.119 288.857 521.476 281.334C525.2 277.743 528.616 273.846 531.689 269.685C534.705 265.192 537.371 260.474 539.665 255.573C544.502 245.427 548.21 234.78 550.719 223.824C550.829 222.736 550.508 221.649 549.825 220.796C549.142 219.943 548.152 219.393 547.067 219.263C545.984 219.158 544.903 219.477 544.052 220.154C543.201 220.831 542.646 221.813 542.504 222.892C539.864 234.109 535.885 244.968 530.654 255.235C528.455 259.688 525.81 263.908 522.761 267.828C519.399 272.034 515.413 275.72 511.733 279.63C507.76 283.63 504.386 288.183 501.715 293.149C498.981 298.684 497.727 304.834 498.077 310.998C498.529 323.466 504.486 334.847 511.195 345.049C518.169 355.679 526.103 365.664 530.305 377.814C534.763 390.493 535.404 404.165 536.526 417.441C537.521 429.28 538.709 441.09 542.743 452.328C545.873 461.599 551.01 470.063 557.788 477.118C564.519 484.21 573.605 488.602 583.342 489.471C589.847 490.106 596.354 488.293 601.593 484.384C605.546 480.699 608.717 476.256 610.917 471.319C612.98 466.854 616.118 462.969 620.049 460.013C624.462 457.361 629.34 455.574 634.422 454.745C639.935 453.559 645.538 452.778 651.021 451.399C654.047 450.875 656.886 449.579 659.264 447.636C661.362 445.629 662.688 442.949 663.011 440.063C663.651 435.026 661.986 430.079 662.113 425.074C662.244 420.205 663.208 415.395 664.964 410.853C668.456 401.819 674.761 394.148 682.948 388.975C700.491 378.125 722.592 383.887 736.99 397.325C740.563 400.68 743.656 404.514 746.181 408.717C748.6 413.045 750.648 417.57 752.302 422.244C755.836 431.242 759.961 441.01 769.128 445.495C780.143 450.899 792.978 445.108 798.983 435.106C804.989 425.105 804.926 413.391 802.665 402.441C799.961 389.457 794.673 377.15 787.114 366.254C780.724 356.989 770.985 348.077 769.158 336.443C767.559 326.253 774.205 317.508 779.044 309.196C785.753 298.997 788.23 286.587 785.95 274.593C782.924 249.818 776.023 223.775 760.589 203.737C747.135 186.251 725.681 173.921 703.262 175.095C697.514 175.181 691.866 176.608 686.768 179.264C684.182 180.854 681.962 182.973 680.255 185.483C678.548 187.993 677.392 190.837 676.864 193.827C675.8 199.373 675.469 205.034 675.88 210.667C676.135 216.217 676.682 221.75 677.52 227.243C679.124 238.246 681.451 249.136 682.453 260.234C683.383 270.405 683.04 280.949 679.019 290.392C676.042 297.51 671.087 303.625 664.741 308.012C658.396 312.399 650.925 314.875 643.216 315.145C635.507 315.414 627.881 313.468 621.244 309.535C614.606 305.603 609.235 299.849 605.766 292.957C601.746 284.205 599.694 274.677 599.756 265.046C599.022 244.65 603.429 223.842 599.138 203.585C598.112 198.608 596.484 193.774 594.288 189.191C592.183 184.056 588.636 179.64 584.075 176.479C581.565 174.768 578.584 173.881 575.547 173.942C572.51 174.004 569.567 175.009 567.127 176.819C565.038 178.587 563.159 180.588 561.525 182.783C559.569 185.166 557.735 187.645 556.028 190.212C549.616 200.211 545.028 211.269 542.476 222.872C542.358 223.96 542.673 225.052 543.352 225.91C544.032 226.769 545.022 227.325 546.108 227.46C547.187 227.547 548.259 227.221 549.106 226.547C549.953 225.873 550.513 224.902 550.671 223.831Z" fill="#F9B7B3"/>
<path d="M552.616 262.154C545.912 275.252 537.788 288.103 536.845 303.159C536.089 310.96 537.324 318.826 540.434 326.02C543.987 333.114 548.265 339.82 553.199 346.033C557.889 351.871 561.864 358.249 565.04 365.031C568.639 373.662 571.408 382.616 573.31 391.772C575.216 400.577 575.919 409.601 575.399 418.595C574.846 422.467 574.848 426.398 575.405 430.269C576.494 435.447 579.142 440.167 582.994 443.795C586.846 447.422 591.716 449.782 596.949 450.557C600.65 451.032 604.409 450.749 607.998 449.728C611.587 448.706 614.932 446.966 617.829 444.614C624.257 439.846 629.431 433.587 632.905 426.376C636.272 419.06 636.006 411.08 637.978 403.365C641.63 389.217 652.933 378.384 665.843 372.284C681.246 364.93 698.695 364.486 715.355 366.708C719.918 367.325 724.463 368.142 728.979 369.086C733.341 370.398 737.832 371.232 742.373 371.575C744.486 371.64 746.587 371.235 748.524 370.389C750.461 369.543 752.185 368.277 753.573 366.682C755.375 364.168 756.254 361.11 756.063 358.022C755.55 349.014 753.879 340.109 751.089 331.529C748.289 322.616 746.04 313.539 744.355 304.349C741.564 286.571 747.471 268.712 744.439 250.972C743.206 243.119 739.8 233.682 731.448 231.093C728.187 230.263 724.748 230.465 721.605 231.669C718.463 232.874 715.771 235.024 713.899 237.822C708.988 244.418 709.157 252.882 709.284 260.761C709.377 269.311 708.583 277.848 706.916 286.235C705.311 294.505 702.813 302.577 699.469 310.31C696.526 317.973 692.249 325.054 686.836 331.224C682.795 335.364 677.618 338.213 671.959 339.41C665.665 341.081 659.256 342.285 652.784 343.012C639.801 344.557 625.916 344.762 613.524 340.018C607.369 337.662 601.765 334.063 597.06 329.447C595.55 327.973 594.182 326.362 592.973 324.634C592.304 323.677 593.217 325.089 592.609 324.049C592.404 323.686 592.199 323.324 592.019 322.957C591.542 322.119 591.129 321.221 590.72 320.347C587.052 311.811 584.221 302.94 582.268 293.857C580.267 284.654 577.69 275.587 574.552 266.708C572.415 261.267 568.46 253.521 561.345 254.885C557.919 255.884 554.976 258.101 553.071 261.12C549.892 265.395 556.58 270.27 559.758 265.994L560.598 264.9C560.598 264.9 561.521 263.866 561.056 264.359C560.59 264.852 561.484 263.946 561.593 263.855L562.381 263.213L562.804 262.924C562.684 262.943 561.899 263.288 562.377 263.189C562.614 263.122 562.839 263.02 563.045 262.886C563.324 262.62 561.986 263.053 562.756 262.932C563.527 262.811 562.347 262.996 562.588 262.958C563.854 263.006 561.871 262.478 562.944 263.026C564.017 263.573 562.149 262.361 562.725 262.887C562.938 263.071 563.163 263.242 563.397 263.399C564.047 263.766 562.839 262.672 563.378 263.278C563.557 263.514 563.749 263.739 563.953 263.953L564.456 264.64C564.478 264.784 564.621 264.91 564.713 265.019C565.228 265.629 564.256 264.153 564.69 264.874C566.251 267.943 567.576 271.126 568.652 274.397C568.965 275.286 569.229 276.182 569.521 277.099C569.543 277.244 569.813 278.016 569.521 277.099C569.559 277.34 569.596 277.581 569.638 277.846L570.146 279.667C570.766 281.889 571.366 284.14 571.939 286.37C574.414 295.855 576.668 305.497 579.752 314.763C581.002 318.707 582.585 322.538 584.486 326.213C586.899 330.527 590.086 334.361 593.886 337.523C604.279 346.288 617.285 351.356 630.866 351.932C643.895 352.669 656.962 351.499 669.654 348.46C675.842 347.367 681.775 345.138 687.153 341.887C693.547 336.987 698.713 330.666 702.243 323.425C710.097 308.925 715.004 293.013 716.681 276.606C717.126 272.365 717.347 268.104 717.342 263.84C717.339 259.891 717.084 255.908 717.454 251.975C717.58 248.774 718.556 245.664 720.284 242.966C720.954 241.98 721.786 241.116 722.744 240.407C723.572 239.847 724.458 239.377 725.386 239.005C726.346 238.651 727.392 238.608 728.377 238.881C729.569 239.278 730.649 239.955 731.525 240.856C733.981 243.708 735.523 247.232 735.951 250.972C737.233 259.209 737.335 267.587 736.254 275.853C735.183 284.646 734.989 293.524 735.677 302.355C736.932 311.244 738.928 320.012 741.643 328.569C744.391 337.226 746.387 346.104 747.61 355.104C747.803 356.358 747.879 357.627 747.835 358.894C747.812 359.487 747.74 360.076 747.618 360.656C747.521 360.943 747.409 361.224 747.281 361.499C745.836 363.923 741.693 363.783 738.857 363.167C721.388 359.245 703.809 356.032 685.833 358.311C670.606 359.924 656.284 366.329 644.93 376.604C639.53 381.692 635.213 387.818 632.237 394.616C629.111 401.894 628.842 409.613 627.227 417.246C625.444 424.281 621.543 430.597 616.052 435.34C611.375 439.654 605.763 443.2 599.176 442.581C596.389 442.307 593.704 441.391 591.33 439.905C588.956 438.419 586.959 436.404 585.494 434.016C581.844 427.9 583.711 421.091 583.779 414.293C583.64 395.955 579.729 377.841 572.291 361.079C566.386 347.196 554.756 336.927 548.301 323.477C542.28 310.896 544.765 296.708 550.374 284.498C553.386 277.904 556.988 271.612 560.295 265.169C560.691 264.148 560.667 263.01 560.227 262.006C559.788 261.002 558.968 260.213 557.948 259.811C556.928 259.447 555.808 259.487 554.817 259.923C553.825 260.358 553.038 261.157 552.616 262.154Z" fill="#F9B7B3"/>
<path d="M29.2637 625.646C54.3331 622.969 73.4654 605.107 85.6062 584.047C98.8142 561.141 105.888 534.682 108.61 508.486C112.133 474.809 106.277 441.123 94.0638 409.694C81.1237 377.444 62.9745 347.539 40.3413 321.175C17.7261 294.217 -7.74257 269.83 -32.9374 245.302L-41.6747 236.801C-42.1434 236.262 -42.7411 235.852 -43.4117 235.607C-44.0823 235.363 -44.8039 235.293 -45.5089 235.404C-46.214 235.514 -46.8794 235.802 -47.4429 236.24C-48.0063 236.678 -48.4494 237.252 -48.7307 237.908C-67.0824 272.531 -86.5378 306.883 -100.329 343.678C-114.748 382.241 -120.707 423.456 -117.803 464.527C-116.268 485.28 -112.149 505.76 -105.542 525.494C-102.232 535.389 -98.2825 545.058 -93.7187 554.441C-91.3141 559.28 -88.8152 564.038 -86.222 568.716C-83.4621 573.565 -80.2508 578.145 -77.5187 582.974C-77.8262 582.429 -77.5187 582.974 -77.4809 583.214C-77.4431 583.455 -76.9887 584.149 -76.7205 584.601C-75.5832 586.597 -74.3328 588.527 -72.9754 590.381C-68.6569 596.207 -63.5475 601.403 -57.7947 605.819C-36.9979 621.979 -10.1875 627.248 15.6407 626.575C20.1625 626.458 24.7022 626.14 29.199 625.705C34.4942 625.17 33.2122 617.004 27.917 617.539C12.2582 619.3 -3.58445 618.451 -18.966 615.026C-24.6509 613.605 -30.2019 611.694 -35.5565 609.313C-36.7536 608.76 -37.9748 608.211 -39.1555 607.607L-40.711 606.814C-41.0024 606.687 -42.5693 605.823 -41.9474 606.169C-44.1603 604.962 -46.2921 603.643 -48.3629 602.24C-51.8347 599.869 -55.1318 597.252 -58.2286 594.409C-58.9163 593.801 -57.788 594.858 -58.5503 594.089L-59.5114 593.154C-60.1825 592.495 -60.8333 591.807 -61.4562 591.139C-62.4995 589.995 -63.4947 588.843 -64.4695 587.663C-65.9988 585.781 -67.343 583.82 -68.6948 581.81C-69.1808 581.072 -68.095 582.802 -68.5328 582.056L-68.8327 581.561C-68.8857 581.223 -69.1998 580.952 -69.3731 580.633L-70.0032 579.449C-70.5941 578.357 -71.3258 577.312 -71.9851 576.255C-74.8928 571.775 -77.6389 567.171 -80.2236 562.443C-94.9863 535.803 -104.53 506.589 -108.344 476.371C-110.848 456.111 -110.974 435.629 -108.721 415.34C-106.735 395.586 -102.62 376.105 -96.4486 357.236C-84.1631 320.752 -65.3934 286.434 -47.212 252.455L-41.0356 240.872L-48.0916 241.979C-23.6528 265.935 1.30721 289.439 24.0756 315.015C46.844 340.591 66.335 367.767 80.5219 398.566C94.4202 428.94 102.872 462.342 101.358 495.926C100.395 521.447 94.441 546.532 83.8325 569.763C74.3082 590.041 58.7211 610.21 36.5893 615.882C33.7883 616.589 30.9401 617.094 28.0667 617.392C22.6902 618.039 23.9963 626.201 29.2637 625.646Z" fill="#F9B7B3"/>
<path d="M-42.8177 284.84C-50.6957 306.489 -58.8575 328.059 -65.8322 349.962C-73.0216 372.54 -79.3585 395.675 -82.1119 419.161C-84.5653 441.576 -83.0772 464.248 -77.7149 486.15C-72.5159 508.734 -62.7088 530 -48.9085 548.616C-41.9335 557.863 -33.7713 566.15 -24.6325 573.264C-15.5845 580.751 -4.64596 585.593 6.97746 587.258C27.9126 589.525 48.0769 578.708 61.655 563.347C77.1448 545.859 82.3592 522.332 81.3874 499.48C80.3855 474.708 72.5311 450.296 62.4863 427.807C51.6086 404.227 38.51 381.737 23.368 360.641C8.37992 339.2 -7.89901 318.653 -24.2034 298.257C-28.0722 293.418 -31.9343 288.57 -35.7896 283.712C-39.0848 279.539 -45.4942 284.766 -42.1748 288.935C-26.5859 308.702 -10.7647 328.062 4.15849 348.304C19.4093 368.319 33.1433 389.446 45.2457 411.508C56.6158 432.851 66.0608 455.607 70.7108 479.411C74.91 501.287 74.9074 525.477 64.1463 545.579C55.4122 561.933 39.0058 575.467 20.4802 578.647C10.7192 580.281 0.691419 578.712 -8.10509 574.175C-17.8785 568.886 -26.6359 561.903 -33.9699 553.553C-48.7023 537.25 -59.6668 517.904 -66.085 496.888C-72.7391 476.214 -75.7086 454.532 -74.8579 432.831C-73.9077 410.591 -68.7199 388.624 -62.5163 367.311C-56.1055 345.275 -48.2719 323.658 -40.3749 302.129C-38.655 297.367 -36.9389 292.58 -35.2189 287.818C-33.499 283.056 -41.0114 279.842 -42.8177 284.84Z" fill="#F9B7B3"/>
<path d="M-27.7536 354.251C-30.0812 382.335 -38.1552 409.494 -41.4674 437.437C-43.1495 451.518 -43.201 465.747 -41.6209 479.841C-40.0901 493.522 -36.6524 507.717 -28.0999 518.815C-20.7385 528.297 -9.03602 535.568 3.16775 535.972C9.21802 536.062 15.1817 534.529 20.4393 531.534C25.6969 528.538 30.0564 524.189 33.0651 518.938C40.3152 506.964 41.0774 492.8 39.1651 479.204C36.9162 464.97 32.9839 451.055 27.4508 437.749C16.5482 410.582 0.802623 385.73 -14.7163 361.065C-16.616 358.081 -18.4916 355.092 -20.371 352.08C-21.0691 351.237 -22.0704 350.703 -23.1587 350.592C-24.2471 350.481 -25.3353 350.803 -26.1887 351.488C-27.0155 352.196 -27.5363 353.197 -27.6421 354.281C-27.7479 355.365 -27.4305 356.448 -26.7563 357.303C-12.2373 380.472 2.70384 403.5 14.3738 428.325C20.2156 440.557 24.8566 453.327 28.2314 466.456C31.3283 478.953 33.9627 492.905 30.1692 505.521C27.269 515.183 20.2895 524.794 9.96795 527.105C-0.353634 529.417 -11.1052 524.588 -18.2948 517.3C-27.1265 508.197 -30.9597 495.568 -32.7679 483.264C-34.6732 470.188 -34.9982 456.93 -33.7358 443.776C-31.2423 417.221 -23.7866 391.467 -20.4846 365.031C-20.0611 361.756 -19.7415 358.448 -19.5664 355.162C-19.112 349.883 -27.3423 348.855 -27.7536 354.251Z" fill="#F9B7B3"/>
<path d="M1367.63 39.9453C1361.75 37.5268 1355.42 36.4192 1349.07 36.6996C1342.72 36.9801 1336.51 38.6419 1330.87 41.5691C1325.19 44.5347 1320.21 48.6826 1316.27 53.7339C1311.92 59.3532 1309.47 66.0809 1306.68 72.5167C1293.54 103.088 1280 133.475 1268.3 164.685C1262.7 179.609 1257.51 194.689 1253.21 210.05C1248.41 226.097 1244.85 242.491 1242.58 259.086C1240.26 275.806 1241.41 292.824 1245.96 309.08C1250.81 324.142 1258.09 338.307 1267.52 351.013C1276.93 363.771 1287.03 376.004 1297.77 387.656C1302.8 393.663 1308.43 399.139 1314.58 403.999C1320.44 408.377 1327.1 411.566 1334.19 413.385C1348.36 417.059 1363.17 416.117 1377.54 414.157C1392.4 412.121 1408.2 410.134 1421.91 403.786C1428.41 400.747 1434.24 396.447 1439.07 391.134C1443.89 385.822 1447.61 379.603 1450.01 372.839C1455.18 358.577 1455.63 343.203 1453.75 328.268C1451.55 310.817 1446.76 293.822 1444.42 276.394C1442.3 259.014 1441.06 241.537 1440.72 224.031C1439.67 191.541 1439.34 158.69 1431.14 127.002C1423.82 98.7787 1410.48 71.0071 1387.6 52.113C1381.57 47.1552 1374.86 43.096 1367.67 40.0619C1362.78 37.967 1359.77 45.6715 1364.66 47.7424C1390.84 58.9107 1407.76 84.8119 1417.4 110.572C1427.87 138.549 1430.51 168.74 1431.69 198.421C1432.36 215.397 1432.58 232.417 1433.6 249.388C1434.56 266.204 1436.71 282.932 1440.05 299.443C1445.61 326.708 1453.58 359.74 1434.59 383.85C1425.75 395.111 1411.95 399.747 1398.41 402.34C1384.72 405.396 1370.78 407.18 1356.76 407.67C1343.23 407.794 1329.81 405.286 1318.87 396.908C1313.17 392.235 1307.94 387.032 1303.23 381.37C1298.17 375.697 1293.13 369.997 1288.19 364.181C1278.24 352.774 1269.54 340.328 1262.25 327.058C1255.02 313.594 1250.77 298.73 1249.79 283.476C1248.84 267.408 1251.53 251.237 1255.08 235.625C1258.51 220.548 1262.72 205.695 1267.81 190.998C1277.87 160.715 1290.51 131.233 1303.18 101.896L1312.57 80.1572C1315.3 73.8049 1317.53 66.8147 1321.39 61.0264C1324.45 56.454 1328.51 52.6372 1333.27 49.8643C1338.02 47.0913 1343.34 45.4344 1348.83 45.0186C1354.28 44.6692 1359.74 45.5953 1364.78 47.7235C1369.55 49.6649 1372.56 41.9603 1367.63 39.9453Z" fill="#F9B7B3"/>
<path d="M1363.29 78.982C1360.34 77.4141 1357.09 76.4642 1353.76 76.19C1350.42 75.9158 1347.07 76.3231 1343.89 77.387C1337.72 79.9395 1332.39 84.1997 1328.55 89.669C1323.65 96.2882 1319.56 103.468 1316.36 111.057C1312.52 119.83 1309.13 128.79 1306.19 137.904C1300.1 156.139 1295.19 174.853 1289.1 193.16C1285.55 203.862 1281.17 214.276 1277.67 225.018C1272.89 238.552 1270.27 252.758 1269.92 267.11C1269.98 294.375 1282.48 320.378 1302.02 339.105C1321.57 357.831 1346.15 368.731 1372.12 373.985C1378.91 375.388 1386.51 377.156 1393.42 375.578C1400.33 374 1405.53 368.593 1409.62 362.915C1416.69 352.72 1421.29 341.01 1423.03 328.722C1427.37 301.062 1419.94 273.82 1413.24 247.202C1409.14 232.334 1406.41 217.124 1405.07 201.76C1404.08 186.489 1404.81 171.194 1404.12 155.926C1402.99 131.273 1396.77 105.024 1377.56 87.9969C1373.34 84.2785 1368.55 81.2561 1363.38 79.043C1358.48 76.924 1355.49 84.6247 1360.37 86.7475C1380.48 95.437 1390.66 117.682 1394.09 138.224C1396.31 152.388 1396.25 166.763 1396.32 181.044C1396.13 195.878 1397.3 210.698 1399.81 225.318C1405 252.864 1415.28 279.661 1416.06 307.923C1416.59 319.355 1415.04 330.788 1411.49 341.666C1409.7 346.941 1407.23 351.959 1404.14 356.593C1400.92 361.393 1396.83 366.823 1390.77 367.823C1387.34 368.179 1383.87 367.999 1380.5 367.289C1377.38 366.791 1374.28 366.216 1371.19 365.541C1365.24 364.255 1359.37 362.613 1353.62 360.624C1341.89 356.637 1330.79 351.009 1320.64 343.907C1300.31 329.475 1284.53 307.862 1279.79 283.135C1274.65 256.519 1284.2 230.757 1293.47 206.198C1299.69 189.721 1304.18 172.577 1309.34 155.749C1314.67 138.449 1320.16 120.802 1328.81 104.833L1329.11 104.267L1329.83 102.994C1330.36 102.122 1330.86 101.252 1331.4 100.279C1332.33 98.8008 1333.29 97.3668 1334.32 95.9455C1335.31 94.5741 1336.37 93.2542 1337.5 91.9907L1338.32 91.0966C1337.84 91.6171 1338.32 91.0965 1338.54 90.8901C1339.1 90.3075 1339.71 89.744 1340.34 89.1995C1341.41 88.2843 1342.53 87.4405 1343.7 86.6737C1342.8 87.2585 1344.49 86.2281 1344.83 86.051C1345.43 85.7387 1346.05 85.4607 1346.68 85.2186L1347.61 84.8747C1348.54 84.5308 1347.06 84.9616 1347.78 84.8482C1348.5 84.7348 1349.08 84.6441 1349.73 84.542C1350.38 84.4399 1350.93 84.353 1351.54 84.2585C1352.14 84.1639 1350.72 84.2628 1351.3 84.2963L1351.73 84.2282L1352.9 84.2914C1353.55 84.3377 1354.18 84.4599 1354.82 84.5581C1355.45 84.6563 1355.94 84.8013 1355.13 84.509L1356.03 84.7621C1357.55 85.2223 1359.02 85.8172 1360.43 86.5396C1360.95 86.7809 1361.5 86.9142 1362.07 86.931C1362.64 86.9479 1363.2 86.8482 1363.73 86.6379C1364.26 86.4276 1364.73 86.1113 1365.13 85.7086C1365.53 85.3059 1365.85 84.8253 1366.05 84.2967C1366.26 83.7681 1366.36 83.2027 1366.34 82.6355C1366.31 82.0684 1366.18 81.5115 1365.93 80.9995C1365.69 80.4875 1365.34 80.0311 1364.91 79.6588C1364.48 79.2865 1363.98 79.0062 1363.44 78.8351L1363.29 78.982Z" fill="#F9B7B3"/>
<path d="M1160.84 268.462C1156.49 256.095 1149.84 244.668 1141.22 234.79C1132.98 225.702 1123.7 217.615 1113.58 210.695C1102.47 202.837 1090.96 195.512 1079.62 188.012C1072.78 183.481 1065.98 178.947 1059.13 174.444C1052.92 170.18 1046.42 166.351 1039.68 162.983C1026.36 156.683 1010.08 153.734 996.456 160.637C990.128 164.108 984.611 168.886 980.273 174.655C975.561 180.479 971.307 186.7 966.985 192.809C957.819 205.299 949.848 218.624 943.178 232.608C936.9 246.805 931.862 261.519 928.121 276.586C920.569 305.811 917.434 336.614 923.615 366.398C929.425 394.29 943.148 420.718 965.482 438.81C975.717 447.352 987.619 453.669 1000.43 457.357C1013.24 461.044 1026.68 462.023 1039.88 460.229C1054.56 457.773 1068.93 453.713 1082.72 448.123C1095.82 443.111 1108.33 436.669 1120.02 428.914C1131.51 421.322 1141.81 412.069 1150.58 401.458C1158.14 392.297 1163.69 381.645 1166.87 370.195C1174.05 344.386 1171.73 316.563 1166.32 290.63C1164.83 283.46 1163.1 276.525 1161.14 269.551C1160.93 268.482 1160.33 267.531 1159.45 266.89C1158.57 266.249 1157.48 265.966 1156.4 266.099C1155.32 266.275 1154.35 266.871 1153.71 267.758C1153.07 268.645 1152.8 269.751 1152.97 270.833C1160.16 296.337 1165.08 323.455 1162.29 350.007C1161.52 361.633 1158.34 372.971 1152.96 383.304C1147.58 393.636 1140.11 402.738 1131.03 410.032C1111.36 427.609 1086.87 439.179 1061.76 446.626C1048.16 450.686 1033.99 453.947 1019.74 452.778C1007.66 451.728 995.935 448.154 985.324 442.285C962.444 429.833 946.189 408.492 937.254 384.274C927.363 357.417 926.768 328.163 931.459 300.202C933.949 285.89 937.561 271.796 942.262 258.051C946.874 243.788 953.075 230.089 960.749 217.212C968.385 204.754 976.714 192.734 985.694 181.208C989.415 175.892 994.264 171.465 999.895 168.242C1006.01 165.335 1012.86 164.329 1019.55 165.354C1033.58 167.15 1045.64 175.451 1057.15 183.072L1094.87 208.028C1114.13 220.678 1133.53 234.22 1145.34 254.408C1148.54 259.956 1151.23 265.79 1153.35 271.834C1153.81 272.827 1154.64 273.599 1155.66 273.984C1156.68 274.369 1157.81 274.335 1158.81 273.891C1159.78 273.422 1160.54 272.596 1160.91 271.585C1161.29 270.573 1161.27 269.455 1160.84 268.462Z" fill="#F9B7B3"/>
<path d="M1026.19 186.451C1021.5 185.818 1016.73 186.124 1012.16 187.351C1007.59 188.577 1003.3 190.699 999.556 193.595C991.547 199.789 987.625 208.92 983.762 217.943C975.621 237.297 969.847 257.563 966.563 278.302C963.154 298.948 962.206 319.926 963.74 340.797C964.565 351.552 965.483 363.058 969.556 373.131C971.807 378.226 974.609 383.058 977.913 387.542C981.393 392.525 985.049 397.365 988.879 402.062C995.595 410.263 1002.93 418.764 1013.26 422.373C1023.6 425.983 1034.84 425.256 1045.55 423.673C1057.45 421.838 1069.1 418.634 1080.27 414.125C1090.13 410.109 1100.39 406.029 1108.14 398.47C1115.4 390.947 1121.13 382.074 1124.99 372.352C1128.84 363.377 1131.5 353.939 1132.92 344.277C1135.65 324.854 1133.44 305.054 1126.47 286.717C1118.74 266.21 1104.03 250.304 1090.38 233.614C1083.15 224.746 1075.25 216.455 1066.74 208.816C1059.04 201.639 1050.32 195.632 1040.87 190.984C1036.23 188.82 1031.32 187.291 1026.27 186.439C1021.03 185.608 1020.03 193.837 1025.34 194.657C1034.75 196.58 1043.57 200.701 1051.08 206.683C1059.28 212.805 1066.9 219.664 1073.84 227.175C1081.15 234.914 1087.8 243.323 1094.64 251.506C1101.53 259.311 1107.64 267.767 1112.89 276.754C1130.13 307.962 1130.23 348.4 1112.27 379.359C1109.87 383.676 1106.97 387.688 1103.61 391.307C1100 394.956 1095.81 397.989 1091.22 400.286C1081.93 405.048 1072.18 408.861 1062.12 411.668C1051.73 414.829 1040.95 416.522 1030.09 416.696C1025.43 416.772 1020.78 416.084 1016.35 414.657C1011.96 413.053 1007.98 410.532 1004.65 407.262C997.066 399.654 990.28 391.291 984.395 382.304C981.353 378.183 978.827 373.706 976.873 368.971C975.113 363.857 973.949 358.557 973.407 353.175C970.889 333.939 970.657 314.472 972.717 295.181C974.687 275.584 978.865 256.273 985.172 237.616C988.249 228.454 991.903 219.496 996.112 210.796C997.828 207.14 1000.29 203.883 1003.34 201.232C1006.38 198.582 1009.95 196.598 1013.81 195.405C1017.54 194.342 1021.45 194.089 1025.29 194.664C1030.54 195.42 1031.47 187.202 1026.19 186.451Z" fill="#F9B7B3"/>
<path d="M1011.23 220.962C1002.85 230.471 999.813 243.956 997.171 256.046C994.017 270.536 990.965 284.887 990.516 299.792C989.933 315.514 991.719 331.234 995.814 346.425C999.682 360.38 1006.69 375.472 1019.65 383.187C1032.6 390.903 1047.93 389.016 1061.8 385.924C1075.68 382.833 1089.22 376.98 1096.65 364.434C1104.36 351.427 1104.77 335.836 1101.46 321.373C1097.45 305.487 1091.61 290.12 1084.06 275.579C1080.54 268.464 1076.73 261.492 1072.63 254.665C1068.77 248.026 1064.47 241.651 1059.77 235.581C1050.57 224.117 1037.44 214.872 1022.18 216.183C1018.39 216.278 1014.75 217.723 1011.93 220.259C1011.11 220.968 1010.59 221.967 1010.48 223.05C1010.37 224.133 1010.68 225.217 1011.34 226.078C1012.04 226.915 1013.05 227.445 1014.13 227.556C1015.22 227.667 1016.3 227.349 1017.16 226.67C1019.36 224.914 1022.17 224.093 1024.97 224.383C1028.05 224.404 1031.11 224.932 1034.02 225.948C1040.04 228.159 1045.44 231.791 1049.75 236.536C1054.34 241.68 1058.45 247.231 1062.03 253.121C1065.96 259.316 1069.62 265.677 1073.06 272.172C1080.03 285.272 1085.9 298.931 1090.6 313.008C1094.81 325.824 1097.33 340.139 1092.82 353.237C1090.92 358.914 1087.52 363.969 1082.98 367.865C1078.1 371.72 1072.51 374.561 1066.52 376.223C1060.42 377.996 1054.17 379.224 1047.85 379.895C1041.66 380.842 1035.33 380.411 1029.32 378.633C1016.73 374.34 1009.51 361.528 1005.38 349.662C1003.18 343.009 1001.6 336.169 1000.64 329.228C999.488 322.079 998.833 314.858 998.679 307.618C998.702 293.162 1000.4 278.757 1003.73 264.691C1006.11 253.73 1007.99 242.13 1013.43 232.143C1014.69 229.867 1016.19 227.736 1017.91 225.788C1018.55 224.904 1018.82 223.801 1018.65 222.722C1018.48 221.642 1017.89 220.674 1017.01 220.03C1016.11 219.402 1015.01 219.148 1013.93 219.322C1012.85 219.496 1011.88 220.084 1011.23 220.962Z" fill="#F9B7B3"/>
</svg>
