<svg width="238" height="135" viewBox="0 0 238 135" fill="none" xmlns="http://www.w3.org/2000/svg">
<g clip-path="url(#clip0_642_280)">
<path d="M71.8416 16.9604C59.4465 16.9604 58.7151 30.733 58.7151 34.3398C58.7151 44.7765 62.0764 59.3775 75.3817 59.6547C82.0327 59.7933 87.7053 51.9191 87.7053 51.9191L90.878 55.0649C90.878 55.0649 84.448 64.5798 75.3817 64.5669C53.0848 64.5669 53.7675 34.3462 53.7675 34.3462C53.7675 34.3462 52.88 12.1514 71.8416 12.1514C82.8584 12.1514 89.9093 17.7533 89.9093 26.2625C89.9093 27.7 88.661 43.1488 72.4918 35.8579C64.3649 32.1835 63.2467 33.4051 57.171 38.0175V33.1827C57.171 33.1827 62.5347 26.6364 72.6803 31.3164C79.7214 34.5751 84.8381 33.1118 84.8381 26.2722C84.8381 26.2722 84.8999 16.97 71.8351 16.97" fill="#1F7060"/>
<path d="M196.764 16.9604C184.369 16.9604 183.638 30.733 183.638 34.3398C183.638 44.7765 186.999 59.3775 200.305 59.6547C206.956 59.7933 212.628 51.9191 212.628 51.9191L215.801 55.0649C215.801 55.0649 209.371 64.5798 200.305 64.5669C178.008 64.5669 178.69 34.3462 178.69 34.3462C178.69 34.3462 177.816 12.1514 196.764 12.1514C207.781 12.1514 214.835 17.7533 214.835 26.2625C214.835 27.7 213.584 43.1488 197.415 35.8579C189.288 32.1835 188.169 33.4051 182.094 38.0175V33.1827C182.094 33.1827 187.458 26.6364 197.603 31.3164C204.644 34.5751 209.764 33.1118 209.764 26.2722C209.764 26.2722 209.823 16.97 196.761 16.97" fill="#1F7060"/>
<path d="M104.661 11.126H99.7134V64.6148H104.661V11.126Z" fill="#1F7060"/>
<path d="M102.356 25.4214C102.356 25.4214 103.956 19.3586 109.462 18.7945C114.664 18.2627 119.26 12.2031 119.26 12.2031L122.511 15.4263C122.511 15.4263 118.441 22.1724 111.611 23.2071C105.929 24.0741 102.184 30.008 102.356 34.9234V25.4214Z" fill="#1F7060"/>
<path d="M224.626 3.58789H229.574V52.5803C229.574 52.5803 229.005 60.8446 236.222 60.8446C236.222 60.8446 237.597 63.7809 238.01 64.5545C230.397 64.5545 224.626 64.8575 224.626 52.5803V3.58789Z" fill="#1F7060"/>
<path d="M136.2 11.0752H131.252V64.564H136.2V11.0752Z" fill="#1F7060"/>
<path d="M162.118 36.4224V53.6922C162.118 53.6922 161.143 64.5608 170.209 64.5608H175.735C175.735 64.5608 173.977 62.5527 172.354 60.7929C170.131 60.7929 166.991 60.9992 166.991 53.7019V29.6053C166.991 29.6053 167.54 12.126 149.498 12.126C134.048 12.126 132.27 27.0074 132.27 27.0074L133.264 27.2008C133.264 27.2008 137.451 17.0027 149.485 17.0027C163.34 17.0027 162.095 31.4458 162.095 35.7681" fill="#1F7060"/>
<path d="M12.6715 30.3145L43.2383 0.00683594L46.6938 3.43308L12.6553 37.3507L12.6715 30.3145Z" fill="#1F7060"/>
<path d="M29.8092 51.8253L18.0708 27.8738L22.5438 25.7207L34.2823 49.6722C34.2823 49.6722 40.1336 61.598 55.087 60.5472L51.8363 64.5891C51.8363 64.5891 36.5805 65.598 29.8092 51.8253Z" fill="#1F7060"/>
<path d="M0 64.5605L1.59612 59.6451C10.1488 59.6451 9.04357 52.1093 9.04357 52.1093V0H13.9782V52.1093C13.9782 52.1093 15.2037 64.5605 0 64.5605Z" fill="#1F7060"/>
<path d="M71.5389 83.371C73.6878 82.5482 76.0564 82.4822 78.2485 83.184C80.3068 83.8557 82.0229 85.2916 83.0368 87.1904C83.5354 88.1002 83.8433 89.1006 83.9422 90.1314C84.0411 91.1621 83.9288 92.2021 83.6122 93.1888C82.9068 95.3258 81.3367 97.0566 79.7698 98.6295C78.0892 100.335 76.324 101.959 75.0497 104.009C73.7754 106.059 73.0993 108.428 73.8079 110.758C75.053 114.852 79.4642 116.754 81.587 120.276C82.8107 122.258 83.2939 124.602 82.9523 126.9C82.5966 128.978 81.4923 130.858 79.8446 132.189C77.9981 133.675 75.6186 134.081 73.3138 133.801C72.0062 133.615 70.7225 133.291 69.4844 132.834C68.273 132.42 67.0922 131.922 65.9509 131.345C64.8347 130.785 63.7984 130.08 62.8692 129.25C61.9764 128.418 61.1765 127.493 60.4831 126.491C59.0736 124.459 57.8869 122.284 56.9431 120.002C54.9636 115.385 54.0677 110.383 54.323 105.372C54.4141 103.191 54.8711 101.039 55.6753 99.0066C56.528 97.0349 57.642 95.1846 58.9878 93.5047C61.7676 89.9739 65.1847 86.9859 69.0651 84.6925C69.908 84.1924 70.776 83.7352 71.6657 83.3226C71.7911 83.2487 71.8822 83.1289 71.9193 82.989C71.9564 82.8491 71.9365 82.7003 71.864 82.5748C71.7878 82.4523 71.6667 82.3637 71.5261 82.3277C71.3856 82.2917 71.2364 82.3109 71.1098 82.3814C67.0009 84.267 63.2885 87.1421 60.2068 90.4136C57.2031 93.6046 54.466 97.5046 53.6468 101.878C52.6976 106.958 53.1885 112.254 54.7358 117.169C55.5195 119.647 56.5553 122.039 57.8273 124.309C59.0593 126.507 60.4994 128.673 62.4336 130.33C64.475 132.083 67.0269 133.182 69.5657 134.03C72.1045 134.877 74.9164 135.377 77.5398 134.607C79.7201 133.928 81.5718 132.476 82.741 130.529C83.9647 128.485 84.4131 126.075 84.0055 123.732C83.5877 121.372 82.4628 119.192 80.7775 117.476C79.3147 115.928 77.5886 114.623 76.2265 112.963C75.6085 112.23 75.1394 111.385 74.8449 110.475C74.5256 109.408 74.511 108.274 74.8027 107.2C75.4171 104.824 77.0944 102.836 78.7978 101.127C80.5012 99.4192 82.2371 97.8366 83.5179 95.8382C84.8181 93.9129 85.3231 91.5661 84.9287 89.2823C84.4874 87.0353 83.2345 85.0251 81.4049 83.6288C79.4744 82.2124 77.1066 81.507 74.7084 81.6337C73.5232 81.6832 72.3535 81.9193 71.2431 82.3331C71.1046 82.3757 70.9878 82.4692 70.9165 82.5944C70.8452 82.7196 70.8248 82.8671 70.8595 83.0067C70.9031 83.1429 70.9983 83.257 71.125 83.3249C71.2517 83.3929 71.4001 83.4094 71.5389 83.371Z" fill="#1F7060"/>
<path d="M57.9313 105.021C58.3354 100.868 59.9028 96.9089 62.4563 93.5919C63.8699 91.8182 65.5089 90.2332 67.3324 88.8764C69.0846 87.5388 71.0285 86.3172 73.2195 85.8627C74.1277 85.6594 75.0688 85.648 75.9817 85.829C76.8946 86.01 77.7588 86.3795 78.5183 86.9135C79.2452 87.4377 79.7913 88.1716 80.0822 89.0149C80.3731 89.8582 80.3945 90.7699 80.1436 91.6258C79.5715 93.6628 77.9559 95.326 76.337 96.6217C74.7766 97.8755 73.0863 98.9972 71.7372 100.49C71.056 101.209 70.4982 102.034 70.0858 102.933C69.6806 103.863 69.4599 104.862 69.4357 105.875C69.416 108.006 69.9251 110.11 70.918 112C71.8705 113.872 73.3821 115.303 74.6954 116.915C75.336 117.673 75.8507 118.527 76.22 119.445C76.5028 120.196 76.7499 120.963 76.9579 121.737C77.3772 123.281 77.7446 125.079 77.3772 126.613C77.3103 126.933 77.1894 127.239 77.0197 127.519C76.9741 127.59 76.9286 127.664 76.8766 127.732C76.8766 127.732 76.8181 127.803 76.7661 127.858C76.7141 127.912 76.6588 127.967 76.6036 128.016C76.5499 128.068 76.4911 128.114 76.428 128.154C75.7214 128.638 74.9247 128.978 74.0842 129.153C72.4589 129.521 70.5279 129.443 69.0716 128.554C68.478 128.146 67.9162 127.695 67.391 127.203C66.8058 126.713 66.2272 126.207 65.6843 125.672C64.2677 124.25 63.0408 122.653 62.0337 120.921C61.2731 119.648 60.4799 118.388 59.7777 117.083C59.125 115.916 58.6215 114.673 58.2791 113.382C57.8743 111.726 57.6907 110.025 57.733 108.322C57.733 107.223 57.811 106.124 57.9118 105.028C57.9109 104.883 57.8529 104.745 57.7501 104.642C57.6474 104.54 57.5081 104.482 57.3624 104.48C57.2169 104.483 57.0782 104.542 56.9753 104.644C56.8724 104.746 56.8131 104.883 56.8098 105.028C56.4652 108.715 56.5237 112.477 57.9996 115.932C58.5824 117.224 59.2536 118.476 60.0085 119.677C61.0748 121.414 62.089 123.168 63.3893 124.738C64.4562 126.004 65.6427 127.166 66.9326 128.209C67.5299 128.771 68.1897 129.264 68.8993 129.679C69.767 130.097 70.7092 130.341 71.6722 130.397C73.5024 130.536 75.5731 130.133 77.0619 129.041C78.4857 128.003 78.7328 126.185 78.6093 124.547C78.4332 122.773 78.0154 121.031 77.3675 119.368C77.0079 118.377 76.497 117.446 75.8526 116.609C75.2025 115.755 74.4613 114.975 73.7592 114.162C72.3447 112.577 71.3405 110.674 70.8335 108.618C70.3654 106.665 70.3524 104.554 71.3764 102.768C72.4004 100.983 74.042 99.7482 75.6023 98.5395C77.3675 97.1858 79.1131 95.8095 80.2899 93.8917C81.4244 92.0416 81.8373 89.7305 80.7125 87.7676C79.7373 86.0915 77.8779 85.0247 75.9924 84.7152C73.7169 84.3414 71.4414 85.0376 69.4682 86.1206C68.4217 86.7138 67.4229 87.3862 66.4807 88.1318C65.4833 88.8904 64.5324 89.7073 63.6331 90.5782C60.4997 93.6584 58.3069 97.5531 57.3071 101.814C57.0625 102.869 56.8887 103.938 56.787 105.015C56.7977 105.153 56.8604 105.281 56.9625 105.375C57.0647 105.469 57.1988 105.521 57.338 105.521C57.4773 105.521 57.6114 105.469 57.7135 105.375C57.8157 105.281 57.8784 105.153 57.889 105.015L57.9313 105.021Z" fill="#1F7060"/>
<path d="M73.3367 122.887C73.4634 121.598 73.0961 120.283 72.602 119.097C72.0106 117.729 71.2992 116.415 70.476 115.171C69.7348 114.024 68.9384 112.915 68.1745 111.777C67.8819 111.348 67.5958 110.913 67.3358 110.462C67.235 110.285 67.144 110.104 67.053 109.92C66.9945 109.798 67.0822 109.998 67.053 109.92C67.0237 109.843 66.9879 109.75 66.9587 109.666C66.8872 109.456 66.8287 109.247 66.7766 109.021C66.3801 107.306 66.6336 105.45 67.1017 103.774C67.2888 103.009 67.5797 102.273 67.9664 101.585C68.3565 100.966 68.835 100.406 69.387 99.9221C70.5345 98.8811 71.8641 98.0559 73.0863 97.1019C73.7111 96.6263 74.291 96.0955 74.819 95.516C75.4431 94.8102 75.9925 93.9721 76.0153 93.002C76.051 91.2776 74.3899 90.1011 72.797 89.9077C70.8921 89.6885 69.0977 90.9037 67.6641 91.9899C66.1832 93.1412 64.9 94.5224 63.864 96.0801C63.3425 96.8527 62.8608 97.6509 62.4207 98.4717C62.2094 98.8714 62.0046 99.2711 61.803 99.6772C61.7055 99.8802 61.6047 100.08 61.5137 100.286C61.407 100.545 61.3243 100.812 61.2666 101.086C60.3889 104.425 60.0834 107.929 60.7465 111.335C61.2731 113.949 62.3377 116.426 63.8737 118.613C65.2085 120.478 66.7336 122.2 68.4248 123.754C68.8724 124.21 69.3797 124.603 69.9331 124.924C70.7751 125.376 71.8836 125.588 72.6117 124.799C73.0472 124.243 73.2993 123.568 73.3334 122.865C73.3334 122.72 73.2755 122.582 73.1725 122.48C73.0695 122.377 72.9297 122.32 72.784 122.32C72.639 122.323 72.5009 122.382 72.398 122.483C72.2952 122.584 72.2355 122.721 72.2314 122.865C72.2108 123.02 72.1804 123.174 72.1404 123.326C72.1204 123.411 72.0954 123.495 72.0656 123.577C72.053 123.626 72.0356 123.673 72.0136 123.719C71.9624 123.826 71.9015 123.929 71.8316 124.025C71.8933 123.941 71.8121 124.025 71.786 124.064L71.7405 124.109C71.6528 124.199 71.799 124.073 71.7405 124.109C71.682 124.144 71.6658 124.157 71.6268 124.18L71.5585 124.212C71.5747 124.212 71.6755 124.177 71.5845 124.212L71.4772 124.241C71.3342 124.277 71.5422 124.241 71.4252 124.241H71.2952C71.2659 124.241 71.1326 124.241 71.2172 124.241C71.3017 124.241 71.1652 124.241 71.1391 124.225C71.0885 124.216 71.0385 124.203 70.9896 124.186C70.8986 124.161 70.8141 124.132 70.7296 124.099C70.8693 124.151 70.71 124.099 70.6808 124.073L70.541 124.006C70.3799 123.921 70.2236 123.827 70.0729 123.725C70.0144 123.687 69.9559 123.645 69.8974 123.6C69.7608 123.506 69.9656 123.661 69.8356 123.555C69.7803 123.513 69.7283 123.468 69.6763 123.422C68.9644 122.778 68.2915 122.111 67.6316 121.427C67.2545 121.037 66.8872 120.641 66.5296 120.231C66.172 119.822 65.7754 119.348 65.5024 118.991C63.9862 117.06 62.8503 114.863 62.1541 112.515C61.3595 109.558 61.255 106.461 61.8485 103.458C61.9298 103.01 62.0241 102.562 62.1281 102.12C62.2161 101.652 62.3378 101.191 62.4922 100.741C62.8441 99.9252 63.2525 99.1347 63.7144 98.375C64.5555 96.8425 65.596 95.4261 66.8092 94.1623C67.4248 93.547 68.0926 92.9851 68.8051 92.483C69.5194 91.9395 70.3116 91.505 71.1554 91.1937C71.8878 90.9208 72.694 90.9139 73.4309 91.1744C74.0247 91.3849 74.5107 91.8192 74.7832 92.3831C75.0791 93.1115 74.7182 93.8658 74.2599 94.4588C73.7903 95.0329 73.2596 95.5549 72.6768 96.0156C71.513 96.9826 70.2257 97.7723 69.0684 98.7328C67.8793 99.6579 66.9622 100.882 66.4126 102.278C65.7794 103.937 65.463 105.698 65.4796 107.471C65.4802 108.783 65.8276 110.072 66.4873 111.21C67.079 112.199 67.7616 113.144 68.415 114.085C69.2115 115.245 69.9884 116.422 70.671 117.653C71.3379 118.785 71.8299 120.009 72.1306 121.285C72.2444 121.815 72.2751 122.358 72.2216 122.897C72.2158 122.972 72.2257 123.048 72.2508 123.119C72.2758 123.191 72.3154 123.256 72.3672 123.311C72.4189 123.367 72.4816 123.411 72.5514 123.441C72.6212 123.471 72.6965 123.487 72.7726 123.487C72.8488 123.487 72.9241 123.471 72.9939 123.441C73.0637 123.411 73.1264 123.367 73.1781 123.311C73.2298 123.256 73.2695 123.191 73.2945 123.119C73.3196 123.048 73.3295 122.972 73.3236 122.897L73.3367 122.887Z" fill="#1F7060"/>
<path d="M109.827 83.1326C110.758 82.744 111.792 82.6698 112.77 82.9214C113.748 83.173 114.616 83.7365 115.239 84.525C116.793 86.459 116.354 89.3888 115.285 91.4581C114.918 92.097 114.593 92.758 114.309 93.4372C114.062 94.1486 114.004 94.9112 114.14 95.6515C114.291 96.439 114.484 97.218 114.719 97.9851L115.346 100.283C115.515 101.048 115.732 101.802 115.997 102.539C116.302 103.278 116.952 103.571 117.726 103.561C118.339 103.543 118.941 103.401 119.497 103.145C120.053 102.889 120.551 102.524 120.96 102.072C121.393 101.605 121.719 101.05 121.917 100.447C122.114 99.8436 122.178 99.2051 122.105 98.5749C121.945 97.1664 121.263 95.8739 121.107 94.4718C120.944 93.0117 121.468 91.5709 121.607 90.1463C121.681 89.4288 121.625 88.704 121.442 88.0061C121.263 87.3228 120.96 86.6459 120.921 85.9368C120.863 84.8925 121.513 84.0641 122.43 83.5774C122.933 83.3268 123.481 83.1783 124.043 83.1407C124.604 83.103 125.168 83.177 125.7 83.3583C127.043 83.7612 128.226 84.567 129.37 85.347C130.592 86.1818 131.821 87.0166 132.991 87.9255C134.16 88.8182 135.248 89.8104 136.242 90.8908C137.196 91.9588 138.055 93.1074 138.807 94.3235C139.568 95.5355 140.25 96.7957 140.891 98.0753C141.259 98.7146 141.517 99.4109 141.651 100.135C141.703 100.765 141.652 101.4 141.502 102.014C141.219 103.377 140.78 104.776 141.177 106.166C141.349 106.768 141.827 107.516 141.583 108.157C141.385 108.68 140.836 109.031 140.423 109.379C138.706 110.826 136.473 113.511 137.926 115.825C138.488 116.725 139.447 117.228 140.322 117.775C140.717 117.993 141.071 118.276 141.369 118.613C141.571 118.879 141.671 119.209 141.648 119.542C141.562 119.972 141.333 120.361 140.998 120.647C140.618 121.037 140.189 121.373 139.779 121.727C139.333 122.095 138.943 122.524 138.619 123C138.288 123.535 138.057 124.125 137.936 124.741C137.673 125.982 137.725 127.265 137.5 128.509C137.314 129.63 136.782 130.666 135.976 131.474C134.402 133.047 131.948 133.701 129.867 132.763C128.816 132.296 127.93 131.527 127.322 130.557C126.714 129.586 126.411 128.458 126.454 127.316C126.526 125.869 126.971 124.341 126.454 122.926C126.045 121.788 125.121 120.718 123.831 120.638C122.54 120.557 121.588 121.605 121.058 122.652C120.414 123.978 119.968 125.389 119.735 126.842C119.6 127.604 119.515 128.374 119.481 129.147C119.507 129.745 119.457 130.344 119.332 130.929C119.007 131.922 117.924 131.777 117.277 131.145C116.383 130.278 116.656 128.734 116.835 127.638C116.856 127.557 116.858 127.473 116.841 127.391C116.824 127.309 116.789 127.232 116.738 127.166C116.687 127.099 116.622 127.045 116.547 127.007C116.472 126.969 116.39 126.948 116.305 126.945C114.982 126.929 113.958 127.941 113.402 129.047C112.824 130.204 112.713 131.626 111.897 132.654C110.561 134.349 107.889 134.088 106.186 133.15C105.036 132.46 103.991 131.611 103.081 130.63C102.145 129.692 101.209 128.763 100.227 127.87C98.5108 126.307 96.5441 124.486 96.8724 121.953C96.9667 121.234 97.1813 120.535 97.3048 119.819C97.4363 119.048 97.4724 118.265 97.4121 117.485C97.2885 115.874 96.8854 114.294 96.5441 112.722L95.5721 108.058L95.0423 105.614C94.8465 104.884 94.7085 104.139 94.6294 103.387C94.6016 102.939 94.6773 102.49 94.8508 102.075C95.0243 101.66 95.291 101.29 95.6307 100.992C96.3268 100.373 97.0763 99.8156 97.8704 99.3259C98.7049 98.8014 99.45 98.1486 100.078 97.392C100.796 96.4509 100.994 95.3227 101.037 94.1688C101.076 93.0858 100.949 91.832 101.58 90.878C102.155 90.0013 103.312 89.7466 104.245 89.4211C105.402 89.0182 106.452 88.4541 107.015 87.3163C107.545 86.243 107.665 84.9763 108.507 84.0738C108.919 83.646 109.418 83.3089 109.97 83.0843C110.096 83.011 110.187 82.8911 110.225 82.751C110.262 82.6108 110.241 82.4618 110.168 82.3365C110.092 82.214 109.971 82.1253 109.831 82.0887C109.69 82.0521 109.541 82.0705 109.414 82.1399C108.795 82.4047 108.237 82.7912 107.773 83.2759C107.31 83.7607 106.95 84.3336 106.716 84.9602C106.313 86.0077 106.137 87.2164 105.09 87.8611C104.115 88.4606 102.938 88.6121 101.934 89.1503C101.399 89.4461 100.945 89.8676 100.613 90.378C100.281 90.8883 100.08 91.4717 100.029 92.077C99.8696 93.276 100.065 94.533 99.7038 95.7063C99.447 96.5862 98.8066 97.2534 98.0492 97.8465C96.5994 98.9843 94.5742 99.8642 93.7972 101.689C93.2121 103.062 93.6607 104.528 93.9598 105.914L95.0033 110.749C95.3478 112.361 95.7152 113.95 96.0338 115.555C96.2036 116.335 96.3123 117.127 96.3588 117.924C96.3803 118.703 96.3016 119.482 96.1248 120.241C95.9335 120.972 95.8094 121.719 95.7542 122.472C95.7396 123.117 95.8499 123.759 96.0793 124.364C96.5634 125.531 97.29 126.584 98.2117 127.455C99.0992 128.354 100.074 129.166 100.978 130.053C101.979 131.036 102.929 132.083 104.018 132.973C104.992 133.821 106.144 134.442 107.392 134.791C108.546 135.103 109.767 135.065 110.899 134.684C111.481 134.464 112.008 134.124 112.448 133.687C112.888 133.251 113.229 132.727 113.451 132.151C113.942 130.987 114.101 129.611 115.018 128.67C115.179 128.482 115.378 128.33 115.602 128.224C115.826 128.118 116.07 128.06 116.318 128.054L115.785 127.364C115.564 128.725 115.317 130.365 116.195 131.555C116.881 132.496 118.23 133.079 119.348 132.544C120.674 131.899 120.541 130.272 120.6 129.05C120.679 127.513 120.974 125.994 121.477 124.538C121.671 123.912 121.939 123.31 122.274 122.746C122.514 122.291 122.916 121.941 123.402 121.763C124.462 121.466 125.261 122.604 125.495 123.5C125.632 124.21 125.641 124.939 125.521 125.653C125.403 126.43 125.347 127.214 125.352 127.999C125.424 129.229 125.847 130.413 126.571 131.413C127.278 132.439 128.265 133.244 129.416 133.736C130.567 134.227 131.835 134.384 133.073 134.188C134.285 133.967 135.416 133.427 136.348 132.627C137.28 131.826 137.978 130.792 138.371 129.634C138.765 128.393 138.739 127.055 138.885 125.766C138.94 125.183 139.076 124.612 139.291 124.067C139.524 123.553 139.867 123.096 140.296 122.726C141.079 122.001 142.087 121.369 142.532 120.364C142.744 119.871 142.788 119.324 142.658 118.805C142.527 118.285 142.23 117.822 141.811 117.485C141.057 116.841 140.065 116.435 139.347 115.79C138.962 115.477 138.698 115.042 138.599 114.559C138.527 114.039 138.608 113.509 138.833 113.034C139.324 111.887 140.254 110.923 141.196 110.133C141.697 109.714 142.24 109.311 142.526 108.712C142.88 107.983 142.721 107.232 142.458 106.504C142.198 105.864 142.087 105.175 142.133 104.486C142.22 103.806 142.351 103.132 142.526 102.469C142.701 101.771 142.783 101.054 142.77 100.335C142.702 99.5653 142.489 98.8152 142.142 98.1237C140.923 95.4087 139.34 92.8695 137.435 90.575C135.456 88.2543 132.959 86.4686 130.453 84.7507C128.262 83.2487 125.632 81.3857 122.817 82.2269C121.721 82.5492 120.645 83.2777 120.141 84.3284C119.864 84.9119 119.762 85.5617 119.845 86.2011C119.987 86.9346 120.172 87.659 120.401 88.3703C120.762 89.8143 120.278 91.2486 120.076 92.6765C119.958 93.4369 119.958 94.211 120.076 94.9714C120.22 95.6811 120.41 96.3809 120.645 97.0665C121.012 98.2848 121.295 99.558 120.596 100.718C120.322 101.189 119.94 101.591 119.482 101.89C119.024 102.189 118.502 102.378 117.957 102.443C117.689 102.499 117.41 102.466 117.164 102.349C116.949 102.188 116.907 101.788 116.839 101.553L116.188 99.1487C115.971 98.3461 115.753 97.5371 115.538 96.7442C115.286 96.019 115.166 95.2549 115.184 94.4879C115.304 93.8083 115.56 93.1594 115.938 92.5798C116.315 91.9233 116.627 91.2325 116.871 90.517C117.343 89.1476 117.469 87.6847 117.238 86.2559C117.017 85.1752 116.488 84.1801 115.714 83.3888C114.939 82.5974 113.952 82.0432 112.869 81.7918C111.761 81.5442 110.602 81.6398 109.55 82.0658C109.411 82.1077 109.294 82.2011 109.223 82.3265C109.151 82.4519 109.131 82.5998 109.167 82.7394C109.204 82.8772 109.293 82.9953 109.416 83.0687C109.539 83.1421 109.687 83.1651 109.827 83.1326Z" fill="#1F7060"/>
<path d="M106.511 93.1856C107.075 91.7717 107.911 90.48 108.972 89.3823C109.251 89.1018 109.544 88.8343 109.846 88.5797C110.017 88.4094 110.234 88.2918 110.47 88.2412C111.12 88.1671 111.543 88.8859 111.741 89.3855C112.716 91.8061 112.005 94.491 111.491 96.9277C110.948 99.4902 110.451 102.272 111.722 104.709C112.409 105.986 113.508 106.998 114.843 107.582C116.179 108.166 117.673 108.289 119.088 107.932C120.517 107.548 121.776 106.702 122.664 105.527C123.474 104.376 123.973 103.037 124.114 101.64C124.487 98.8197 123.928 95.9318 124.517 93.134C124.647 92.5184 124.822 91.79 125.342 91.3742C125.862 90.9584 126.685 90.9648 127.325 91.0003C128.683 91.1169 129.978 91.6169 131.057 92.4411C133.531 94.2493 134.679 97.2017 135.114 100.122C135.352 101.722 135.424 103.342 135.329 104.957C135.307 105.727 135.114 106.483 134.763 107.171C134.431 107.734 134.044 108.264 133.606 108.75C132.686 109.837 131.798 111.007 131.857 112.493C131.919 114.104 132.881 115.487 133.599 116.876C134.358 118.332 134.801 119.93 134.9 121.566C134.974 122.855 134.841 124.328 133.872 125.301C133.65 125.542 133.376 125.729 133.07 125.849C132.764 125.97 132.435 126.021 132.107 125.998C131.837 125.963 131.579 125.868 131.351 125.722C131.122 125.575 130.93 125.38 130.787 125.15C130.121 124.125 130.066 122.816 129.721 121.666C128.941 119.071 126.756 116.831 124.078 116.164C121.321 115.48 118.519 116.734 116.959 119.036C116.58 119.596 116.288 120.21 116.094 120.857C115.923 121.51 115.836 122.183 115.834 122.858C115.851 123.124 115.796 123.389 115.675 123.625C115.515 123.841 115.181 123.848 114.933 123.867C114.196 123.925 113.454 123.915 112.716 123.954C111.982 123.972 111.254 124.104 110.561 124.347C109.88 124.611 109.28 125.046 108.822 125.611C108.403 126.117 108.048 126.71 107.522 127.132C107.244 127.333 106.925 127.469 106.587 127.53C106.249 127.59 105.902 127.575 105.571 127.484C103.179 126.936 102.057 124.367 101.726 122.162C101.495 120.625 101.677 119.039 101.791 117.498C101.924 115.741 102.018 113.953 101.635 112.228C101.274 110.588 100.425 109.121 99.733 107.603C99.1284 106.269 98.6148 104.702 98.9268 103.236C99.2389 101.769 100.351 100.928 101.475 100.096C102.04 99.7035 102.571 99.2647 103.062 98.7843C103.552 98.2594 104.001 97.698 104.404 97.105C105.251 95.8793 105.96 94.5649 106.517 93.1856C106.554 93.0459 106.534 92.8974 106.462 92.772C106.39 92.6466 106.271 92.5544 106.13 92.5152C105.99 92.4792 105.841 92.4988 105.715 92.5698C105.589 92.6407 105.495 92.7576 105.454 92.8955C104.874 94.3062 104.126 95.6426 103.224 96.8762C102.842 97.4126 102.407 97.9093 101.924 98.3588C101.394 98.8391 100.793 99.2388 100.227 99.6739C99.621 100.115 99.0823 100.64 98.6278 101.234C98.153 101.901 97.8607 102.678 97.7793 103.49C97.581 105.128 98.1304 106.736 98.8033 108.206C99.5022 109.737 100.341 111.203 100.643 112.876C100.968 114.623 100.77 116.422 100.643 118.178C100.529 119.745 100.442 121.311 100.741 122.862C100.961 124.136 101.463 125.347 102.21 126.407C102.95 127.471 104.056 128.231 105.321 128.544C106.165 128.76 107.06 128.657 107.831 128.254C108.428 127.854 108.937 127.339 109.329 126.739C109.693 126.198 110.187 125.755 110.766 125.45C111.402 125.194 112.082 125.061 112.768 125.056C113.519 125.015 114.274 125.027 115.025 124.96C115.434 124.953 115.835 124.842 116.188 124.637C116.506 124.418 116.736 124.096 116.838 123.725C117.027 123.081 116.91 122.401 117.03 121.75C117.148 121.116 117.375 120.508 117.7 119.951C118.347 118.843 119.336 117.97 120.522 117.463C123.057 116.405 125.849 117.611 127.468 119.661C127.87 120.172 128.198 120.736 128.444 121.337C128.673 121.952 128.849 122.585 128.97 123.229C129.25 124.476 129.591 125.837 130.706 126.61C132.045 127.542 133.856 127.048 134.854 125.866C135.852 124.683 136.086 123.152 136.015 121.675C135.927 119.924 135.485 118.209 134.714 116.631C134.064 115.29 132.965 113.927 132.965 112.37C132.965 111.007 134.022 110.001 134.831 109.015C135.926 107.82 136.509 106.251 136.457 104.638C136.57 101.34 136.2 97.798 134.581 94.8649C133.17 92.3057 130.599 90.2557 127.621 89.9495C126.862 89.8429 126.088 89.9135 125.362 90.1558C124.988 90.3104 124.652 90.5416 124.375 90.8344C124.099 91.1272 123.887 91.4749 123.756 91.8544C123.501 92.5568 123.34 93.2894 123.278 94.0333C123.197 94.7633 123.155 95.4971 123.151 96.2315C123.135 97.7013 123.216 99.1711 123.119 100.641C123.031 101.988 122.768 103.358 122.043 104.509C121.503 105.377 120.724 106.074 119.797 106.517C118.871 106.96 117.835 107.13 116.814 107.007C115.793 106.884 114.829 106.474 114.036 105.824C113.242 105.174 112.654 104.313 112.339 103.342C111.991 102.117 111.918 100.83 112.125 99.574C112.45 96.8955 113.461 94.2686 113.315 91.5353C113.282 90.8644 113.168 90.1998 112.973 89.5563C112.802 88.8425 112.426 88.1932 111.891 87.6869C111.595 87.412 111.221 87.2351 110.82 87.1808C110.418 87.1265 110.01 87.1975 109.651 87.3839C109.339 87.5719 109.05 87.7947 108.79 88.0479C108.483 88.3189 108.19 88.605 107.912 88.9052C106.86 90.0795 106.027 91.4295 105.451 92.8923C105.413 93.032 105.432 93.181 105.504 93.3071C105.575 93.4331 105.694 93.5261 105.835 93.566C105.975 93.5994 106.123 93.5788 106.248 93.5082C106.374 93.4375 106.468 93.3222 106.511 93.1856Z" fill="#1F7060"/>
<path d="M105.974 98.23C104.82 99.8029 103.484 101.315 103.048 103.261C102.788 104.265 102.788 105.317 103.048 106.32C103.37 107.319 103.795 108.283 104.316 109.195C104.813 110.054 105.205 110.968 105.483 111.919C105.779 113.12 105.958 114.346 106.02 115.58C106.089 116.769 105.995 117.962 105.74 119.126C105.587 119.62 105.506 120.134 105.5 120.651C105.536 121.349 105.787 122.02 106.22 122.572C106.652 123.125 107.245 123.533 107.918 123.742C108.396 123.879 108.897 123.92 109.391 123.86C109.885 123.8 110.361 123.641 110.792 123.393C111.737 122.903 112.548 122.191 113.155 121.321C113.75 120.435 113.88 119.387 114.299 118.42C115.073 116.647 116.786 115.464 118.613 114.933C120.794 114.288 123.102 114.588 125.251 115.219C125.839 115.394 126.421 115.593 126.997 115.809C127.544 116.07 128.119 116.271 128.71 116.409C128.987 116.461 129.272 116.451 129.545 116.38C129.817 116.309 130.071 116.179 130.286 115.999C130.576 115.708 130.755 115.327 130.794 114.92C130.912 113.733 130.876 112.536 130.686 111.358C130.502 110.137 130.393 108.905 130.361 107.671C130.361 105.292 131.509 103.081 131.476 100.702C131.476 99.6514 131.223 98.3493 130.176 97.84C129.763 97.6648 129.306 97.6206 128.867 97.7135C128.428 97.8064 128.029 98.0319 127.725 98.359C126.941 99.1196 126.789 100.228 126.642 101.26C126.478 102.378 126.197 103.477 125.804 104.538C125.421 105.585 124.925 106.588 124.325 107.529C123.779 108.469 123.069 109.306 122.228 110.001C121.61 110.459 120.869 110.725 120.099 110.765C119.235 110.854 118.366 110.88 117.498 110.842C115.756 110.778 113.922 110.52 112.388 109.647C111.626 109.213 110.962 108.628 110.437 107.929C110.269 107.705 110.122 107.467 109.999 107.216C109.93 107.078 110.021 107.281 109.963 107.132C109.943 107.081 109.924 107.029 109.908 106.978C109.862 106.858 109.826 106.733 109.791 106.61C109.484 105.42 109.294 104.204 109.225 102.978C109.152 101.735 109 100.498 108.77 99.2743C108.601 98.5201 108.24 97.4274 107.274 97.4597C106.802 97.5199 106.369 97.7492 106.055 98.1043C105.548 98.5975 106.328 99.371 106.836 98.8779L106.969 98.7522C106.969 98.7522 107.112 98.6361 107.04 98.6909C106.969 98.7457 107.105 98.6458 107.122 98.6361L107.239 98.5685L107.3 98.5395C107.284 98.5395 107.174 98.5685 107.239 98.5652C107.271 98.5614 107.303 98.5527 107.333 98.5395C107.375 98.5104 107.19 98.5395 107.294 98.5395C107.398 98.5395 107.239 98.5395 107.271 98.5395C107.437 98.5717 107.187 98.4621 107.317 98.5556C107.447 98.649 107.226 98.4524 107.291 98.533C107.315 98.5614 107.341 98.5883 107.369 98.6136C107.447 98.6748 107.31 98.5072 107.369 98.5975C107.387 98.6319 107.408 98.6653 107.43 98.6974L107.483 98.7973C107.483 98.8166 107.499 98.836 107.509 98.8521C107.564 98.9424 107.466 98.7296 107.509 98.8328C107.651 99.2655 107.759 99.7083 107.834 100.157C107.856 100.28 107.873 100.402 107.892 100.528C107.892 100.548 107.912 100.654 107.892 100.528C107.892 100.56 107.892 100.593 107.892 100.628L107.921 100.876C107.957 101.179 107.99 101.485 108.019 101.788C108.149 103.078 108.246 104.383 108.461 105.656C108.544 106.197 108.674 106.73 108.848 107.249C109.077 107.861 109.417 108.427 109.852 108.918C111.04 110.276 112.649 111.204 114.426 111.558C116.127 111.921 117.873 112.036 119.608 111.9C120.446 111.884 121.273 111.714 122.049 111.4C122.993 110.891 123.804 110.172 124.419 109.298C125.753 107.566 126.729 105.589 127.289 103.481C127.436 102.936 127.553 102.384 127.64 101.827C127.722 101.311 127.77 100.786 127.9 100.28C127.983 99.8645 128.176 99.4784 128.46 99.1615C128.568 99.0466 128.696 98.9507 128.837 98.8779C128.957 98.8217 129.084 98.7784 129.214 98.749C129.347 98.7224 129.486 98.7382 129.61 98.7941C129.759 98.8703 129.887 98.9809 129.984 99.1164C130.249 99.5392 130.379 100.031 130.358 100.528C130.357 101.63 130.197 102.726 129.883 103.784C129.56 104.91 129.351 106.065 129.259 107.232C129.241 108.419 129.322 109.605 129.503 110.778C129.686 111.965 129.765 113.165 129.74 114.365C129.74 114.533 129.724 114.7 129.692 114.865C129.676 114.942 129.655 115.017 129.627 115.091C129.608 115.126 129.587 115.16 129.565 115.194C129.324 115.481 128.781 115.377 128.421 115.239C126.2 114.369 123.951 113.589 121.535 113.518C119.496 113.416 117.477 113.959 115.769 115.068C114.952 115.622 114.257 116.333 113.724 117.16C113.162 118.046 112.967 119.049 112.596 120.012C112.216 120.894 111.571 121.639 110.75 122.146C110.044 122.613 109.231 122.962 108.376 122.746C108.015 122.653 107.68 122.478 107.398 122.235C107.116 121.993 106.895 121.688 106.751 121.347C106.397 120.473 106.784 119.622 106.933 118.736C107.294 116.338 107.153 113.893 106.52 111.551C106.029 109.618 104.71 108.038 104.137 106.149C103.604 104.383 104.225 102.581 105.217 101.102C105.75 100.303 106.355 99.5548 106.923 98.7812C106.997 98.6559 107.017 98.5068 106.98 98.3667C106.943 98.2266 106.851 98.1067 106.725 98.0334C106.598 97.9649 106.45 97.9472 106.31 97.9837C106.171 98.0203 106.05 98.1084 105.974 98.23Z" fill="#1F7060"/>
<path d="M29.5104 134.967C32.8684 135.132 35.7583 133.191 37.7933 130.69C40.007 127.97 41.4861 124.66 42.3866 121.295C43.5471 116.969 43.4723 112.45 42.5133 108.096C41.4756 103.619 39.7031 99.3418 37.2666 95.435C34.8448 91.4511 31.9939 87.7445 29.182 84.0249L28.2068 82.7356C28.1562 82.6557 28.086 82.5899 28.0027 82.5442C27.9194 82.4986 27.8258 82.4746 27.7306 82.4746C27.6354 82.4746 27.5418 82.4986 27.4585 82.5442C27.3752 82.5899 27.305 82.6557 27.2543 82.7356C24.1206 86.8807 20.8471 90.9677 18.2693 95.4898C15.5722 100.23 13.9348 105.49 13.4679 110.913C13.241 113.654 13.36 116.413 13.8223 119.125C14.0537 120.485 14.3741 121.829 14.7812 123.148C14.998 123.829 15.2288 124.502 15.4736 125.166C15.737 125.855 16.0653 126.519 16.3253 127.206C16.2961 127.129 16.3253 127.206 16.3253 127.238C16.3253 127.27 16.3709 127.37 16.3969 127.435C16.5054 127.719 16.6302 127.996 16.7707 128.266C17.2191 129.116 17.7848 129.899 18.4513 130.594C20.8569 133.13 24.2799 134.368 27.6964 134.809C28.2946 134.887 28.8992 134.938 29.5006 134.974C30.2093 135.013 30.2093 133.92 29.5006 133.881C27.4013 133.79 25.3317 133.354 23.3762 132.592C22.6567 132.29 21.9649 131.926 21.3087 131.506C21.1625 131.409 21.0129 131.312 20.8699 131.209L20.6813 131.074C20.6456 131.051 20.457 130.906 20.5318 130.964C20.2652 130.761 20.0117 130.545 19.7679 130.32C19.3595 129.939 18.9793 129.53 18.6301 129.095C18.5521 129.001 18.6789 129.162 18.5944 129.046L18.4871 128.905C18.4123 128.805 18.3408 128.702 18.2725 128.602C18.1588 128.431 18.0515 128.26 17.9475 128.086C17.7849 127.809 17.6484 127.525 17.5119 127.235C17.4631 127.129 17.5704 127.377 17.5281 127.27L17.4989 127.2C17.4989 127.154 17.4631 127.112 17.4469 127.067L17.3883 126.9C17.3331 126.745 17.2583 126.594 17.1933 126.442C16.9029 125.797 16.6363 125.14 16.3936 124.469C14.9997 120.688 14.3466 116.678 14.4692 112.653C14.5583 109.956 14.9652 107.279 15.6817 104.676C16.3519 102.137 17.2968 99.6774 18.5001 97.3399C20.8731 92.8274 24.0556 88.7308 27.1536 84.6663L28.2068 83.2804H27.2543C29.9785 86.9097 32.7806 90.4906 35.2512 94.2972C37.7217 98.1038 39.7275 102.052 40.9595 106.365C42.1623 110.616 42.5849 115.151 41.6909 119.506C41.0362 122.819 39.733 125.972 37.855 128.789C36.1809 131.241 33.7103 133.556 30.6774 133.843C30.2938 133.877 29.9081 133.885 29.5234 133.865C28.8017 133.839 28.805 134.932 29.5104 134.967Z" fill="#1F7060"/>
<path d="M27.0627 88.986C25.5771 91.6515 24.0557 94.301 22.6839 97.0182C21.2699 99.8191 19.9565 102.71 19.1081 105.721C18.3213 108.598 18.0485 111.589 18.3019 114.559C18.5198 117.614 19.3719 120.593 20.805 123.306C21.5326 124.657 22.4365 125.906 23.4934 127.023C24.5305 128.186 25.8714 129.043 27.3682 129.498C30.0794 130.223 32.9595 129.224 35.066 127.497C37.4683 125.53 38.6418 122.565 38.9864 119.561C39.3667 116.306 38.8369 112.957 37.9787 109.814C37.0333 106.512 35.7728 103.307 34.2143 100.241C32.6832 97.1342 30.9636 94.1173 29.2374 91.1197C28.8278 90.4085 28.4193 89.6961 28.0119 88.9827C27.6641 88.3703 26.7116 88.9215 27.0627 89.5339C28.7076 92.4348 30.3914 95.2873 31.9388 98.2365C33.534 101.163 34.9064 104.203 36.0445 107.332C37.101 110.352 37.8747 113.518 37.9949 116.722C38.0957 119.664 37.5951 122.823 35.7617 125.227C34.2728 127.184 31.8315 128.615 29.3252 128.651C28.0055 128.664 26.7169 128.253 25.6519 127.481C24.4737 126.589 23.4644 125.498 22.6709 124.257C21.0672 121.826 20.0229 119.075 19.612 116.199C19.1629 113.363 19.2201 110.471 19.781 107.655C20.3661 104.77 21.5039 102.008 22.7619 99.3517C24.0622 96.6056 25.5413 93.9432 27.0269 91.2938C27.352 90.7071 27.6771 90.1173 28.0021 89.5307C28.3272 88.9441 27.404 88.3703 27.0627 88.986Z" fill="#1F7060"/>
<path d="M27.6119 98.3587C26.7244 101.978 25.099 105.359 24.0848 108.94C23.572 110.745 23.2709 112.602 23.1876 114.475C23.1063 116.293 23.2656 118.217 24.1628 119.841C24.9365 121.23 26.3278 122.42 27.9272 122.723C28.7224 122.859 29.5398 122.781 30.2944 122.497C31.0489 122.214 31.7132 121.735 32.2182 121.111C33.421 119.696 33.8143 117.862 33.8436 116.048C33.8417 114.143 33.6114 112.245 33.1576 110.394C32.2832 106.623 30.7228 103.055 29.1885 99.5159C28.9999 99.0872 28.8146 98.6585 28.6294 98.2266C28.5548 98.1022 28.434 98.0119 28.2929 97.9751C28.1518 97.9384 28.0018 97.9581 27.8752 98.03C27.7516 98.1055 27.6623 98.2256 27.6259 98.3649C27.5896 98.5043 27.609 98.6522 27.6801 98.7777C29.1137 102.101 30.6058 105.414 31.6298 108.895C32.1464 110.612 32.4937 112.375 32.6668 114.159C32.8163 115.854 32.8748 117.73 32.1142 119.3C31.5323 120.502 30.414 121.614 29.0064 121.704C27.5989 121.795 26.2823 120.944 25.4859 119.844C24.5107 118.475 24.2669 116.747 24.2831 115.103C24.3025 113.357 24.5339 111.619 24.9723 109.927C25.85 106.51 27.3648 103.3 28.3465 99.9155C28.4701 99.4965 28.5806 99.071 28.6716 98.6456C28.8407 97.9655 27.7777 97.6625 27.6119 98.3587Z" fill="#1F7060"/>
<path d="M217.94 85.9203C217.216 85.484 216.404 85.2095 215.562 85.116C214.72 85.0225 213.867 85.1121 213.064 85.3788C212.254 85.6496 211.513 86.0892 210.889 86.6681C210.2 87.3127 209.738 88.141 209.238 88.9243C206.874 92.6471 204.462 96.3376 202.275 100.173C201.228 102.007 200.233 103.87 199.349 105.788C198.384 107.785 197.577 109.853 196.934 111.973C196.283 114.109 196.083 116.355 196.345 118.571C196.673 120.637 197.339 122.636 198.318 124.489C199.294 126.348 200.372 128.152 201.546 129.894C202.085 130.782 202.713 131.612 203.422 132.373C204.104 133.065 204.915 133.618 205.811 134.001C207.603 134.771 209.572 134.951 211.507 134.99C213.506 135.029 215.629 135.093 217.566 134.545C218.485 134.282 219.343 133.84 220.088 133.245C220.834 132.65 221.453 131.914 221.909 131.08C222.884 129.324 223.261 127.325 223.323 125.337C223.395 123.013 223.115 120.695 223.167 118.371C223.247 116.058 223.445 113.751 223.762 111.458C224.295 107.193 224.932 102.897 224.506 98.5906C224.126 94.755 222.943 90.855 220.319 87.9186C219.628 87.1477 218.828 86.48 217.943 85.9364C217.342 85.5625 216.786 86.5069 217.387 86.8776C220.606 88.8727 222.299 92.6019 223.037 96.1636C223.837 100.031 223.56 104.028 223.102 107.928C222.839 110.159 222.517 112.386 222.299 114.623C222.078 116.839 222.016 119.067 222.114 121.292C222.283 124.966 222.65 129.443 219.65 132.202C218.252 133.491 216.337 133.814 214.501 133.875C212.634 133.993 210.76 133.94 208.903 133.717C207.118 133.456 205.402 132.853 204.134 131.535C203.481 130.808 202.898 130.021 202.395 129.185C201.845 128.341 201.299 127.493 200.769 126.632C199.694 124.939 198.806 123.135 198.12 121.253C197.445 119.346 197.193 117.318 197.379 115.306C197.587 113.188 198.276 111.132 199.066 109.166C199.83 107.267 200.691 105.414 201.667 103.599C203.617 99.8509 205.893 96.2603 208.168 92.689L209.855 90.0427C210.346 89.2692 210.785 88.4021 211.412 87.7253C211.911 87.191 212.525 86.7758 213.208 86.5112C213.892 86.2465 214.627 86.1393 215.359 86.1975C216.084 86.2636 216.784 86.4965 217.404 86.8776C217.992 87.2289 218.548 86.2845 217.94 85.9203Z" fill="#1F7060"/>
<path d="M216.561 90.9291C216.204 90.6638 215.797 90.4732 215.363 90.369C214.929 90.2649 214.479 90.2493 214.039 90.3232C213.172 90.5298 212.383 90.9771 211.763 91.6124C210.981 92.3764 210.294 93.2301 209.715 94.1555C209.028 95.2225 208.396 96.323 207.82 97.4529C206.64 99.7091 205.606 102.052 204.426 104.318C203.737 105.643 202.944 106.913 202.261 108.244C201.351 109.913 200.712 111.715 200.369 113.582C199.814 117.143 200.922 120.795 203.11 123.641C205.298 126.487 208.311 128.415 211.623 129.633C212.488 129.955 213.454 130.342 214.396 130.278C215.339 130.213 216.136 129.614 216.792 128.956C217.935 127.77 218.782 126.335 219.266 124.766C220.41 121.243 219.994 117.533 219.663 113.92C219.43 111.895 219.385 109.852 219.526 107.819C219.711 105.804 220.124 103.822 220.348 101.814C220.709 98.5713 220.433 95.0161 218.255 92.3989C217.775 91.8267 217.207 91.3339 216.571 90.9388C215.97 90.5617 215.417 91.5061 216.015 91.8832C218.486 93.4303 219.367 96.5439 219.393 99.2965C219.393 101.192 219.087 103.068 218.801 104.934C218.469 106.867 218.317 108.826 218.346 110.787C218.46 114.491 219.259 118.201 218.778 121.907C218.612 123.411 218.171 124.872 217.478 126.22C217.133 126.872 216.703 127.477 216.201 128.018C215.677 128.579 215.027 129.204 214.208 129.211C213.748 129.187 213.295 129.092 212.865 128.931C212.465 128.802 212.069 128.663 211.675 128.511C210.918 128.222 210.179 127.887 209.462 127.509C207.999 126.748 206.653 125.786 205.463 124.65C203.084 122.349 201.452 119.203 201.338 115.877C201.211 112.296 203.002 109.127 204.732 106.11C205.892 104.086 206.838 101.94 207.866 99.8477C208.925 97.6978 210.014 95.5061 211.484 93.5979L211.536 93.5302L211.656 93.3787C211.744 93.2756 211.828 93.1725 211.919 93.0564C212.072 92.8824 212.228 92.7148 212.394 92.5504C212.553 92.3917 212.72 92.241 212.894 92.0991L213.021 91.9992C212.947 92.0572 213.021 91.9992 213.054 91.9767C213.14 91.9122 213.231 91.851 213.327 91.7929C213.486 91.6952 213.651 91.608 213.821 91.5319C213.691 91.5899 213.935 91.49 213.984 91.4738C214.069 91.4453 214.156 91.4216 214.244 91.4029L214.374 91.3772C214.504 91.3514 214.299 91.3772 214.396 91.3772C214.494 91.3772 214.572 91.3772 214.66 91.3772C214.747 91.3772 214.822 91.3772 214.903 91.3772C214.985 91.3772 214.796 91.361 214.871 91.3772H214.929L215.082 91.4094C215.167 91.4287 215.248 91.4577 215.329 91.4835C215.411 91.5093 215.472 91.5383 215.372 91.4835L215.485 91.5351C215.676 91.6263 215.857 91.7341 216.028 91.8574C216.091 91.8994 216.162 91.9283 216.236 91.9421C216.31 91.9559 216.387 91.9545 216.461 91.9378C216.534 91.9212 216.604 91.8897 216.665 91.8453C216.726 91.8009 216.777 91.7445 216.815 91.6797C216.853 91.615 216.878 91.5431 216.887 91.4686C216.896 91.3941 216.889 91.3186 216.867 91.2467C216.846 91.1748 216.809 91.1081 216.761 91.0507C216.712 90.9933 216.652 90.9464 216.584 90.913L216.561 90.9291Z" fill="#1F7060"/>
<path d="M216.174 97.1305C215.917 96.6019 215.563 96.0249 215.001 95.7703C214.753 95.6631 214.481 95.625 214.213 95.6602C213.946 95.6954 213.693 95.8026 213.483 95.9701C212.994 96.36 212.583 96.8378 212.273 97.3786C211.884 98.0193 211.535 98.6835 211.23 99.3674C210.515 100.914 209.91 102.507 209.25 104.076L209.211 104.173C209.143 104.328 209.253 104.076 209.185 104.228L209.088 104.457C209.016 104.621 208.941 104.779 208.866 104.95C208.746 105.217 208.619 105.482 208.48 105.74C207.864 106.813 207.376 107.953 207.023 109.137C206.289 111.773 206.259 114.568 206.497 117.275C206.718 119.757 207.293 122.59 209.565 124.044C210.547 124.687 211.733 124.95 212.897 124.782C213.485 124.671 214.037 124.421 214.507 124.055C214.977 123.688 215.352 123.214 215.599 122.674C216.221 121.338 216.554 119.888 216.574 118.416C216.587 116.942 216.385 115.473 215.976 114.055C215.57 112.715 215.244 111.353 215.001 109.975C214.906 109.294 214.89 108.606 214.952 107.922C215.04 107.218 215.202 106.525 215.436 105.856C216.132 103.706 217.12 101.453 216.737 99.1482C216.623 98.5046 216.444 97.874 216.203 97.2658C216.161 97.1279 216.067 97.0113 215.941 96.94C215.814 96.8687 215.665 96.848 215.524 96.8823C215.384 96.9221 215.265 97.0151 215.193 97.1412C215.121 97.2672 215.102 97.4162 215.14 97.5559C215.574 98.5624 215.768 99.6541 215.709 100.747C215.661 101.137 215.589 101.523 215.491 101.904C215.361 102.436 215.231 102.968 215.069 103.49C214.653 104.815 214.094 106.101 213.895 107.483C213.739 108.827 213.828 110.187 214.159 111.499C214.458 112.837 214.884 114.146 215.17 115.49C215.469 116.804 215.534 118.16 215.361 119.496C215.267 120.188 215.102 120.868 214.867 121.527C214.699 122.06 214.421 122.553 214.051 122.974C213.724 123.304 213.315 123.543 212.866 123.667C212.416 123.791 211.942 123.795 211.49 123.68C210.503 123.469 209.628 122.906 209.032 122.097C208.358 121.099 207.923 119.961 207.761 118.771C207.559 117.542 207.45 116.3 207.436 115.055C207.397 113.779 207.471 112.502 207.657 111.238C207.849 110.003 208.204 108.798 208.714 107.654C209.039 106.926 209.474 106.249 209.809 105.524C210.459 104.128 210.989 102.687 211.587 101.272C211.844 100.657 212.182 99.8927 212.514 99.2223C212.803 98.6136 213.143 98.0302 213.531 97.4786C213.554 97.4463 213.681 97.282 213.59 97.3948L213.713 97.2497C213.789 97.1584 213.87 97.0722 213.957 96.9919C213.996 96.9564 214.042 96.9242 214.077 96.8855C213.973 96.9564 214.113 96.8468 214.077 96.8855L214.126 96.8533C214.165 96.8275 214.204 96.8017 214.246 96.7791C214.271 96.7682 214.295 96.7552 214.318 96.7405C214.38 96.6953 214.211 96.763 214.285 96.7566C214.327 96.7488 214.367 96.7369 214.406 96.7211C214.279 96.7211 214.523 96.676 214.406 96.7211C214.446 96.7243 214.486 96.7243 214.526 96.7211C214.344 96.7372 214.48 96.7372 214.546 96.7405C214.611 96.7437 214.503 96.7211 214.487 96.7114L214.559 96.7469L214.676 96.821C214.533 96.7405 214.659 96.821 214.705 96.8533C214.75 96.8855 214.799 96.95 214.845 97.0015C214.89 97.0531 214.819 96.95 214.884 97.0531L215.001 97.2272C215.088 97.3698 215.167 97.5172 215.238 97.6687C215.312 97.7931 215.433 97.8834 215.574 97.9202C215.715 97.9569 215.866 97.9373 215.992 97.8653C216.109 97.7875 216.193 97.6689 216.227 97.5329C216.261 97.3969 216.242 97.2534 216.174 97.1305Z" fill="#1F7060"/>
<path d="M185.972 111.522C185.655 109.818 185.014 108.19 184.083 106.723C183.186 105.368 182.131 104.121 180.94 103.01C179.639 101.756 178.274 100.564 176.935 99.3517C176.129 98.62 175.326 97.8884 174.516 97.1599C173.786 96.4759 173.01 95.8426 172.192 95.2647C170.567 94.1688 168.483 93.45 166.545 94.0721C165.64 94.3956 164.814 94.9066 164.124 95.5709C163.382 96.2349 162.693 96.9601 161.998 97.6692C160.532 99.1123 159.206 100.689 158.038 102.378C156.917 104.103 155.949 105.922 155.145 107.813C153.546 111.474 152.496 115.432 152.694 119.448C152.882 123.21 154.144 126.942 156.712 129.762C157.884 131.088 159.321 132.157 160.932 132.901C162.544 133.645 164.294 134.048 166.071 134.085C168.055 134.065 170.032 133.829 171.964 133.382C173.794 132.996 175.575 132.411 177.276 131.638C178.946 130.882 180.494 129.885 181.869 128.679C183.055 127.638 184.007 126.361 184.662 124.931C186.141 121.708 186.411 118.027 186.235 114.53C186.186 113.563 186.102 112.622 185.988 111.671C185.983 111.527 185.923 111.39 185.821 111.289C185.718 111.187 185.58 111.128 185.435 111.123C185.289 111.124 185.15 111.182 185.047 111.284C184.944 111.387 184.886 111.526 184.886 111.671C185.305 115.149 185.393 118.791 184.476 122.201C184.134 123.703 183.481 125.119 182.558 126.358C181.635 127.596 180.463 128.632 179.116 129.398C176.161 131.29 172.696 132.299 169.234 132.757C167.358 133.008 165.424 133.144 163.571 132.699C162.001 132.314 160.531 131.607 159.254 130.623C156.497 128.528 154.797 125.408 154.121 122.062C153.373 118.352 153.9 114.52 155.096 110.965C155.72 109.147 156.488 107.381 157.391 105.682C158.294 103.914 159.394 102.252 160.671 100.728C161.935 99.2578 163.281 97.8589 164.702 96.5378C165.302 95.9199 166.033 95.4411 166.841 95.1358C167.707 94.8815 168.63 94.8905 169.491 95.1615C171.301 95.6837 172.718 97.0149 174.077 98.2461L178.531 102.278C180.806 104.325 183.082 106.491 184.22 109.369C184.527 110.16 184.76 110.976 184.915 111.809C184.955 111.948 185.048 112.066 185.175 112.137C185.301 112.208 185.451 112.227 185.591 112.19C185.729 112.148 185.846 112.056 185.917 111.932C185.987 111.807 186.007 111.661 185.972 111.522Z" fill="#1F7060"/>
<path d="M169.929 98.0524C169.324 97.8736 168.689 97.8157 168.062 97.8821C167.434 97.9485 166.826 98.1379 166.272 98.4392C165.089 99.0838 164.384 100.196 163.688 101.295C162.215 103.655 161.035 106.183 160.174 108.824C159.298 111.451 158.739 114.171 158.509 116.927C158.396 118.349 158.279 119.87 158.607 121.269C158.798 121.98 159.067 122.669 159.41 123.322C159.765 124.044 160.147 124.751 160.554 125.443C161.269 126.652 162.059 127.912 163.347 128.595C164.634 129.279 166.129 129.414 167.573 129.427C169.179 129.431 170.78 129.252 172.345 128.892C173.726 128.57 175.163 128.247 176.34 127.419C177.453 126.585 178.39 125.544 179.1 124.354C179.792 123.26 180.339 122.083 180.725 120.85C181.487 118.37 181.604 115.739 181.066 113.201C180.471 110.365 178.862 107.986 177.409 105.527C176.641 104.221 175.772 102.976 174.809 101.804C173.942 100.709 172.918 99.7458 171.769 98.9452C171.202 98.5675 170.587 98.2672 169.939 98.0524C169.266 97.8364 168.964 98.8904 169.646 99.1064C170.846 99.5504 171.924 100.269 172.79 101.205C173.743 102.172 174.605 103.224 175.365 104.347C176.167 105.508 176.87 106.742 177.601 107.951C178.347 109.111 178.977 110.341 179.483 111.622C181.109 116.051 180.286 121.333 177.279 125.008C176.874 125.523 176.408 125.987 175.891 126.391C175.34 126.793 174.726 127.103 174.074 127.309C172.751 127.741 171.387 128.039 170.004 128.199C168.57 128.399 167.115 128.399 165.681 128.199C165.065 128.113 164.467 127.928 163.912 127.651C163.368 127.352 162.895 126.941 162.524 126.445C161.683 125.296 160.962 124.065 160.372 122.771C160.057 122.171 159.816 121.534 159.657 120.876C159.531 120.172 159.487 119.456 159.527 118.742C159.593 116.178 159.965 113.631 160.635 111.155C161.3 108.636 162.25 106.2 163.467 103.893C164.062 102.759 164.728 101.665 165.463 100.615C165.764 100.173 166.156 99.7976 166.612 99.514C167.068 99.2304 167.579 99.0443 168.112 98.9678C168.626 98.9053 169.147 98.9526 169.64 99.1064C170.316 99.3126 170.609 98.2587 169.929 98.0524Z" fill="#1F7060"/>
<path d="M167.245 102.253C165.944 103.323 165.265 105.021 164.667 106.546C163.952 108.373 163.253 110.185 162.885 112.122C162.483 114.163 162.393 116.253 162.619 118.32C162.84 120.222 163.451 122.336 164.998 123.609C166.546 124.883 168.603 124.95 170.495 124.831C172.387 124.712 174.292 124.225 175.531 122.739C176.815 121.198 177.192 119.171 177.055 117.215C176.855 115.058 176.403 112.931 175.71 110.878C175.393 109.876 175.036 108.888 174.637 107.912C174.265 106.966 173.831 106.046 173.336 105.157C172.361 103.471 170.824 101.995 168.785 101.853C168.284 101.788 167.776 101.902 167.352 102.175C167.228 102.251 167.139 102.371 167.102 102.51C167.065 102.649 167.084 102.797 167.154 102.923C167.229 103.047 167.35 103.136 167.49 103.173C167.631 103.21 167.781 103.191 167.908 103.12C168.234 102.935 168.621 102.886 168.984 102.981C169.39 103.047 169.782 103.179 170.144 103.371C170.891 103.783 171.527 104.368 171.997 105.076C172.495 105.842 172.922 106.651 173.271 107.493C173.662 108.383 174.013 109.289 174.331 110.207C174.979 112.061 175.469 113.965 175.797 115.9C176.087 117.659 176.122 119.58 175.258 121.198C174.89 121.901 174.337 122.491 173.658 122.907C172.937 123.31 172.141 123.567 171.318 123.661C170.477 123.767 169.629 123.8 168.782 123.758C167.946 123.754 167.122 123.568 166.367 123.213C164.797 122.394 164.111 120.573 163.812 118.939C163.66 118.025 163.593 117.099 163.61 116.174C163.606 115.216 163.669 114.26 163.799 113.311C164.101 111.424 164.622 109.578 165.353 107.809C165.892 106.427 166.38 104.95 167.303 103.758C167.516 103.486 167.758 103.239 168.025 103.02C168.128 102.918 168.186 102.779 168.186 102.635C168.186 102.49 168.128 102.351 168.025 102.249C167.92 102.149 167.78 102.093 167.634 102.094C167.488 102.094 167.349 102.151 167.245 102.253Z" fill="#1F7060"/>
</g>
<defs>
<clipPath id="clip0_642_280">
<rect width="238" height="135" fill="white"/>
</clipPath>
</defs>
</svg>
