<svg width="559" height="245" viewBox="0 0 559 245" fill="none" xmlns="http://www.w3.org/2000/svg">
<path d="M520.862 97.0563C504.835 96.1681 495.645 104.896 490.778 112.378C487.702 117.169 485.478 122.455 484.202 128.003C482.157 135.005 474.335 143.185 460.121 143.185C418.576 143.185 423.737 85.9683 423.737 85.9683H423.787H486.369C486.806 60.0065 474.042 50.2615 463.627 46.6228C453.126 42.7262 442.643 43.7182 435.584 45.2869C432.89 45.8214 430.252 46.608 427.705 47.6363C427.189 47.8369 426.917 47.9586 426.917 47.9586C415.686 52.79 402.857 66.1129 403.301 93.8008C403.964 135.22 430.961 148.16 444.95 150.387C447.035 150.661 449.136 150.79 451.239 150.774C480.166 150.774 486.158 135.793 487.368 128.569C488.577 123.398 490.66 118.47 493.528 114C499.928 104.248 509.028 99.6099 520.571 100.215C539.911 101.472 554.631 116.421 554.838 134.991C555 149.356 548.84 159.606 548.779 159.703L548.721 159.799C543.682 168.645 528.35 195.567 480.968 209.789C420.084 228.054 331.555 218.61 217.798 181.696H217.762C172.855 167.968 129.126 159.592 94.6152 158.202C74.2799 157.382 56.867 158.918 42.8601 162.736C27.0445 167.059 15.3619 174.376 8.12028 184.482C3.24908 191.276 0.605083 199.413 0.552734 207.772H0.552734C0.552734 207.812 0.552734 207.851 0.552734 207.891V209.513H0.595711C1.04191 219.181 5.25362 228.29 12.3299 234.892C19.4062 241.494 28.7851 245.065 38.4605 244.841C48.1359 244.617 57.3394 240.616 64.1024 233.693C70.8653 226.77 74.6507 217.475 74.6487 207.797L74.6237 206.186H74.5664C74.1994 200.979 72.0799 196.051 68.5535 192.203C65.027 188.355 60.3014 185.814 55.1465 184.996C49.9917 184.177 44.7116 185.128 40.1665 187.694C35.6214 190.261 32.0793 194.29 30.1174 199.127C30.0851 199.202 30.0565 199.274 30.0242 199.356L29.9777 199.474C29.8344 199.832 29.7055 200.19 29.5801 200.549C29.5801 200.549 28.3338 203.962 27.9793 206.089C27.9775 206.1 27.9775 206.111 27.9793 206.121C27.582 208.106 27.3733 210.125 27.3561 212.149C27.2988 216.208 28.1631 219.312 29.949 221.461C31.5428 223.405 33.5305 224.401 35.887 224.43C36.6846 224.467 37.4811 224.337 38.2255 224.048C38.9699 223.76 39.6458 223.319 40.2098 222.753C40.7813 222.171 41.2298 221.48 41.5288 220.72C41.8279 219.961 41.9712 219.15 41.9504 218.334C41.9766 216.214 41.1278 214.362 39.404 212.779L36.2631 209.846C35.9049 209.513 35.6148 209.173 35.3212 208.825C34.7231 208.045 33.2869 205.749 33.5949 201.942C33.8635 199.17 35.0561 195.681 38.7271 192.723C41.7032 190.327 45.2449 188.734 49.0129 188.1C51.8115 187.741 54.6544 187.983 57.3523 188.808C60.0501 189.634 62.5412 191.025 64.6596 192.889C66.778 194.752 68.4751 197.046 69.638 199.616C70.8009 202.187 71.403 204.976 71.404 207.797V208.668C71.1256 217.517 67.3883 225.905 60.9946 232.029C54.6009 238.154 46.0605 241.527 37.2073 241.425C28.3541 241.323 19.8939 237.753 13.6433 231.483C7.39268 225.212 3.85004 216.74 3.77601 207.887V207.801C3.82631 200.104 6.26394 192.612 10.7526 186.359C17.5358 176.868 28.6239 169.967 43.7017 165.845C57.3863 162.106 74.4697 160.619 94.4755 161.425C128.714 162.8 172.157 171.095 216.792 184.823C293.298 209.649 358.523 222.102 411.746 222.102C438.091 222.102 461.466 219.045 481.871 212.933C530.445 198.353 546.275 170.626 551.486 161.475V161.454C551.554 161.346 558.205 150.462 558.029 135.009C557.822 114.766 541.841 98.4674 520.862 97.0563ZM427.057 63.5772C427.058 58.6092 429.032 53.8449 432.545 50.3323C436.059 46.8197 440.823 44.8464 445.791 44.8464H447.321C458.756 44.8464 465.636 53.3809 466.775 65.8192L467.57 76.6422C467.57 78.3292 466.9 79.947 465.707 81.1399C464.514 82.3327 462.896 83.0028 461.209 83.0028H446.497C441.342 83.0028 436.398 80.9551 432.753 77.3101C429.108 73.665 427.061 68.7213 427.061 63.5665L427.057 63.5772ZM30.0242 199.345V199.37V199.345Z" fill="white"/>
<path d="M364.33 114.666C365.37 115.085 366.315 115.709 367.109 116.5L388.204 61.9798C389.916 57.4959 395.424 45.2009 409.334 45.2009V44.6565H372.829V45.2009C386.735 45.2009 386.177 57.6141 384.966 60.9161L364.33 114.666Z" fill="white"/>
<path d="M59.792 149.249H67.4097V148.704C50.0971 148.754 50.971 132.817 50.971 132.817V72.094H71.4639C89.0558 72.094 94.4101 96.8273 94.4101 96.8273H94.9544V45.9711H94.4101C94.4101 45.9711 89.0523 70.7151 71.4639 70.7151H50.971V16.3026L50.9424 1.35736H70.8479C116.69 1.35736 115.257 31.735 115.257 31.735H115.802L114.083 0L10.9916 0.0465585V0.590934C26.7499 0.540795 27.0829 13.7455 27.0793 16.1128V132.817C27.0793 132.817 27.9568 148.754 10.6406 148.704V149.249H59.792Z" fill="white"/>
<path d="M227.095 61.8727V133.168C227.095 135.507 226.432 148.747 210.646 148.701V149.245H263.07V148.701C245.754 148.751 246.632 132.813 246.632 132.813V75.7865C246.843 70.837 248.143 60.9379 254.779 53.8109L254.833 53.7393C255.793 52.6863 257.419 50.9887 258.558 50.2295L258.744 50.1077C260.275 49.1116 261.941 48.3386 263.69 47.812C268.593 46.34 273.037 46.537 276.966 48.3886C278.596 49.2259 280.094 50.2987 281.411 51.5725C284.244 54.6382 284.527 58.4309 284.537 59.7023C284.436 62.1268 283.732 64.4877 282.489 66.5715L279.692 71.2703C278.149 73.7988 277.763 76.3488 278.531 78.9202C279.19 81.1144 280.413 82.7082 282.199 83.7014C283.083 84.1938 284.06 84.4956 285.068 84.5875C286.076 84.6794 287.092 84.5593 288.051 84.235C290.916 83.3719 292.993 81.4666 294.25 78.5334C295.683 75.291 295.654 71.213 294.164 66.2993C293.964 65.6331 293.745 64.9813 293.52 64.3367C291.507 58.191 287.707 53.3775 285.873 51.2967C285.415 50.7667 284.924 50.2223 284.394 49.7173C280.308 45.6954 273.238 41.5624 262.773 44.7033C256.029 46.7304 250.525 51.8662 246.657 59.645V43.7829C241.127 44.4992 210.484 45.4447 210.484 45.4447L210.653 45.9891C227.972 45.9353 227.095 61.8727 227.095 61.8727Z" fill="white"/>
<path d="M115.38 93.8333C116.043 135.252 143.04 148.192 157.029 150.42C159.114 150.694 161.215 150.823 163.318 150.807C201.406 150.807 199.734 124.823 199.734 124.823H197.613C197.613 132.258 188.735 143.175 172.185 143.175C130.641 143.175 135.802 85.9578 135.802 85.9578H135.852H198.434C198.87 59.996 186.106 50.251 175.691 46.6123C165.191 42.7157 154.708 43.7077 147.649 45.2764C144.955 45.8109 142.317 46.5975 139.77 47.6258C139.254 47.8264 138.978 47.9481 138.978 47.9481C127.761 52.8117 114.936 66.1346 115.38 93.8333ZM139.154 63.581C139.155 58.6136 141.129 53.8499 144.641 50.3374C148.154 46.8249 152.917 44.8512 157.885 44.8502H159.417C170.853 44.8502 177.733 53.3847 178.872 65.823L179.656 76.6425C179.656 78.3294 178.986 79.9473 177.793 81.1401C176.6 82.333 174.982 83.0031 173.296 83.0031H158.583C153.432 83.0012 148.492 80.9546 144.849 77.3128C141.206 73.6711 139.158 68.7322 139.154 63.581Z" fill="white"/>
<path d="M317.73 62.1663L347.814 138.146L349.171 141.506C350.669 146.136 350.758 148.98 348.953 154.212L343.047 169.419C343.047 169.419 340.565 177.545 332.855 175.508C331.803 175.221 330.797 174.789 329.864 174.225L325.541 171.665C323.013 170.118 320.463 169.731 317.891 170.504C315.695 171.163 314.101 172.385 313.11 174.168C312.618 175.053 312.316 176.031 312.224 177.039C312.132 178.048 312.252 179.064 312.577 180.024C313.44 182.889 315.345 184.966 318.278 186.223C319.82 186.885 321.479 187.23 323.156 187.237C340.114 187.484 346.052 170.673 346.052 170.673L361.56 130.801H361.201C359.254 130.803 357.366 130.126 355.863 128.887C354.361 127.647 353.337 125.923 352.969 124.01C352.601 122.097 352.911 120.116 353.846 118.407C354.782 116.698 356.283 115.369 358.093 114.648L338.889 60.9271C338.083 58.4524 334.849 45.2119 348.756 45.2119V44.6675H298.885V45.2119C310.585 45.2011 315.982 58.1229 317.73 62.1663Z" fill="white"/>
</svg>
