<svg width="1234" height="421" viewBox="0 0 1234 421" fill="none" xmlns="http://www.w3.org/2000/svg">
<g clip-path="url(#clip0_18_612)">
<path d="M461.674 371.12C467.319 378.883 473.517 383.75 482.981 383.75C490.74 383.75 495.41 380.072 495.41 374.14C495.41 369.023 492.64 367.177 484.366 363.357L475.025 359.147C461.744 353.232 453.984 345.736 453.984 334.154C453.984 319.285 466.413 309.551 482.784 309.551C496.065 309.551 506.061 316 511.441 326.001L499.351 335.347C494.877 328.632 489.355 325.346 482.785 325.346C476.607 325.346 472.007 328.366 472.007 333.766C472.007 338.367 474.76 340.481 482.128 343.767L491.983 348.101C506.578 354.55 513.414 361.779 513.414 373.485C513.414 389.473 500.399 399.545 483.052 399.545C476.251 399.651 469.547 397.922 463.644 394.539C457.742 391.156 452.86 386.245 449.512 380.321L461.674 371.12Z" fill="#45017D"/>
<path d="M525.044 327.154H497.311V311.167H570.675V327.154H542.799V397.925H525.044V327.154Z" fill="#45017D"/>
<path d="M553.406 311.096H571.161V363.321C571.161 375.951 579.063 383.057 590.23 383.057C601.682 383.057 609.299 375.951 609.299 363.321V311.096H627.054V362.008C627.054 385.1 611.27 399.504 590.23 399.504C569.191 399.504 553.423 385.027 553.423 362.008L553.406 311.096Z" fill="#45017D"/>
<path d="M613.35 311.096H641.758C669.244 310.829 689.485 328.593 689.096 354.244C689.487 379.379 669.246 398.316 641.758 397.925H613.35V311.096ZM641.616 381.863C659.105 381.863 670.806 370.956 670.806 354.241C670.806 337.526 659.372 327.151 641.616 327.151H631.105V381.863H641.616Z" fill="#45017D"/>
<path d="M688.907 311.096H706.662V397.925H688.907V311.096Z" fill="#45017D"/>
<path d="M743.655 309.515C768.637 309 790.334 329.641 789.926 354.51C790.335 379.379 768.62 400.021 743.655 399.506C718.673 400.021 697.243 379.379 697.634 354.51C697.243 329.641 718.674 308.947 743.655 309.515ZM743.78 325.964C727.8 325.964 715.904 337.795 715.904 354.51C715.904 371.226 727.747 383.056 743.78 383.056C759.814 383.056 771.656 371.208 771.656 354.51C771.656 337.812 759.69 325.963 743.78 325.963L743.78 325.964Z" fill="#45017D"/>
<path d="M182.88 83.7207V220.734H42.045V126.123H0V399.684H42.045V262.583H182.88V399.684H224.907V83.7207H182.88Z" fill="#45017D"/>
<path d="M495.518 86.5096V276.688C495.665 287.322 493.594 297.871 489.436 307.659C485.278 317.447 479.125 326.26 471.37 333.535C463.99 341.163 455.133 347.207 445.341 351.298C435.638 355.299 425.243 357.351 414.748 357.338C404.17 357.445 393.681 355.39 383.925 351.298C374.039 347.276 365.105 341.225 357.7 333.535C350.137 326.106 344.105 317.264 339.945 307.511C335.908 297.734 333.856 287.251 333.909 276.673V128.681H292.112V276.901C291.927 293.014 294.901 309.007 300.865 323.976C307.121 338.861 316.326 352.324 327.925 363.553C339.138 375.312 352.685 384.594 367.697 390.803C382.716 396.818 398.767 399.836 414.944 399.688C430.998 399.878 446.929 396.857 461.8 390.803C476.701 384.566 490.214 375.429 501.554 363.923V363.728C513.068 352.424 522.265 338.981 528.632 324.152C534.582 309.18 537.549 293.189 537.368 277.078V86.5096H495.518Z" fill="#45017D"/>
<path d="M483.936 128.681V294.647L326.179 128.681L283.442 83.7207V352.237H324.528V185.773L480.633 352.237L525.022 399.598V128.681H483.936Z" fill="#45017D"/>
<path d="M1192.91 128.681V294.647L1035.16 128.681L992.42 83.7207V352.237H1033.51V185.773L1189.61 352.237L1234 399.598V128.681H1192.91Z" fill="#45017D"/>
<path d="M664.791 352.805C670.809 350.428 676.435 347.158 681.481 343.106C686.464 339.091 690.542 334.066 693.447 328.362C696.465 322.585 698.026 316.158 697.993 309.639C698.125 304.226 696.904 298.865 694.442 294.043C692.145 289.339 688.97 285.118 685.088 281.608C680.792 277.882 676.065 274.686 671.008 272.087C665.849 269.359 660.51 266.985 655.028 264.982C649.95 263.146 644.351 261.369 638.232 259.652C625.495 256.241 613.215 251.309 601.656 244.962C590.907 238.908 581.376 230.909 573.549 221.371C568.025 214.72 563.71 207.151 560.801 199.009C557.794 190.681 556.268 181.892 556.291 173.038C556.238 161.301 558.518 149.67 562.998 138.822C567.478 127.974 574.069 118.125 582.388 109.849C590.721 101.512 600.619 94.9049 611.512 90.4058C622.405 85.9066 634.078 83.6043 645.863 83.6311C656.719 83.601 667.488 85.5762 677.628 89.4574C687.53 93.2163 696.696 98.6879 704.704 105.622C717.988 116.957 727.543 132.039 732.119 148.895L690.766 157.634C688.392 151.011 684.578 144.999 679.598 140.03C673.065 133.367 664.677 128.827 655.527 127.002C646.377 125.178 636.89 126.153 628.303 129.802C622.639 132.206 617.492 135.68 613.14 140.031C608.757 144.407 605.25 149.58 602.806 155.272C600.346 160.976 599.083 167.125 599.095 173.338C599.051 181.61 601.604 189.688 606.396 196.43C608.742 199.567 611.522 202.354 614.652 204.708C617.712 207.128 620.958 209.302 624.361 211.21C628.037 213.155 631.819 214.893 635.689 216.415C640.08 218.168 643.874 219.554 647.07 220.572L658.434 224.125C662.82 225.51 666.14 226.593 668.413 227.411C675.858 230.03 683.093 233.213 690.055 236.932C696.963 240.663 703.503 245.041 709.586 250.006C715.593 254.854 721.02 260.38 725.76 266.473C730.407 272.566 734.068 279.352 736.609 286.582C739.3 294.124 740.664 302.076 740.64 310.084C740.648 322.234 737.923 334.231 732.668 345.184C727.634 355.999 720.507 365.707 711.699 373.748C702.825 381.764 692.6 388.14 681.498 392.579C670.282 397.229 658.267 399.643 646.126 399.685C632.835 399.685 619.691 396.906 607.536 391.525C595.205 386.166 584.121 378.304 574.984 368.437C565.843 358.73 559.046 347.056 555.115 334.313L596.698 325.428C600.746 334.948 607.693 342.948 616.549 348.29C625.277 354.022 635.476 357.107 645.916 357.174C652.395 356.7 658.762 355.227 664.791 352.807V352.805Z" fill="#45017D"/>
<path d="M788.51 317.313L941.793 82.5453V399.684H899.839V221.339L788.51 392.419L677.201 221.339V399.684H635.227V82.5483L788.51 317.313Z" fill="#45017D"/>
<path d="M616.814 83.7207V125.572H532.511V399.577H490.272V125.572H448.138V83.7207H616.814Z" fill="#45017D"/>
<path d="M1062.51 259.154H883.308V299.655H1062.51V259.154Z" fill="#45017D"/>
<path d="M790.061 83.7207L655.671 399.684H700.465L723.547 348.169H856.482L879.564 399.684H924.361L790.061 83.7207ZM790.274 187.461C798.69 207.25 807.142 228.436 815.629 251.019C824.116 273.602 832.627 294.735 841.161 314.417H738.979C747.383 294.794 755.894 273.69 764.512 251.107C773.129 228.524 781.717 207.308 790.274 187.461Z" fill="#45017D"/>
</g>
<defs>
<clipPath id="clip0_18_612">
<rect width="1234" height="421" fill="white"/>
</clipPath>
</defs>
</svg>
