<svg width="230" height="803" viewBox="0 0 230 803" fill="none" xmlns="http://www.w3.org/2000/svg">
<g clip-path="url(#clip0_29_1300)">
<path d="M197.536 502.575C202.589 498.902 205.756 494.868 205.756 488.71C205.756 483.661 203.363 480.622 199.502 480.622C196.172 480.622 194.97 482.424 192.484 487.808L189.744 493.887C185.894 502.53 181.016 507.579 173.478 507.579C163.801 507.579 157.466 499.491 157.466 488.838C157.466 480.196 161.662 473.691 168.172 470.19L174.254 478.057C169.884 480.969 167.745 484.562 167.745 488.837C167.745 492.858 169.711 495.851 173.225 495.851C176.22 495.851 177.596 494.06 179.734 489.265L182.555 482.852C186.752 473.355 191.457 468.906 199.076 468.906C209.481 468.906 216.036 477.375 216.036 488.664C216.105 493.09 214.98 497.452 212.778 501.293C210.577 505.133 207.38 508.31 203.525 510.489L197.536 502.575Z" fill="#4A0286"/>
<path d="M168.922 461.339L168.922 479.386L158.517 479.386L158.517 431.645L168.922 431.645L168.922 449.785L214.982 449.785L214.982 461.339L168.922 461.339Z" fill="#4A0286"/>
<path d="M158.471 442.883L158.471 431.329L192.461 431.329C200.681 431.329 205.305 426.187 205.305 418.92C205.305 411.468 200.681 406.511 192.461 406.511L158.471 406.511L158.471 394.957L191.606 394.957C206.635 394.957 216.01 405.229 216.01 418.92C216.01 432.611 206.587 442.872 191.606 442.872L158.471 442.883Z" fill="#4A0286"/>
<path d="M158.471 403.875L158.471 385.389C158.297 367.503 169.858 354.332 186.553 354.584C202.912 354.33 215.237 367.502 214.982 385.389L214.982 403.875L158.471 403.875ZM204.529 385.481C204.529 374.101 197.43 366.486 186.551 366.486C175.672 366.486 168.92 373.927 168.92 385.481L168.92 392.321L204.529 392.321L204.529 385.481Z" fill="#4A0286"/>
<path d="M158.471 354.708L158.471 343.154L214.982 343.154L214.982 354.708L158.471 354.708Z" fill="#4A0286"/>
<path d="M157.442 319.081C157.107 302.825 170.541 288.706 186.727 288.971C202.912 288.705 216.346 302.836 216.011 319.081C216.346 335.338 202.912 349.283 186.727 349.029C170.541 349.283 157.072 335.337 157.442 319.081ZM168.148 319C168.148 329.399 175.848 337.14 186.727 337.14C197.605 337.14 205.305 329.433 205.305 319C205.305 308.567 197.594 300.86 186.726 300.86C175.858 300.86 168.147 308.647 168.147 319L168.148 319Z" fill="#4A0286"/>
<path d="M10.488 683.995L99.6606 683.995L99.6606 775.64L38.0847 775.64L38.0847 803L216.127 803L216.127 775.64L126.898 775.64L126.898 683.995L216.127 683.995L216.127 656.647L10.488 656.647L10.488 683.995Z" fill="#4A0286"/>
<path d="M12.3031 480.552L136.077 480.552C142.998 480.456 149.864 481.804 156.234 484.51C162.605 487.216 168.34 491.22 173.075 496.266C178.04 501.069 181.973 506.832 184.636 513.204C187.239 519.518 188.575 526.282 188.567 533.112C188.637 539.995 187.299 546.821 184.636 553.169C182.018 559.603 178.08 565.416 173.075 570.234C168.24 575.156 162.485 579.081 156.138 581.788C149.775 584.415 142.952 585.751 136.068 585.716L39.7493 585.716L39.7493 612.915L136.216 612.915C146.703 613.035 157.111 611.099 166.853 607.219C176.541 603.148 185.304 597.158 192.612 589.61C200.265 582.314 206.306 573.498 210.347 563.729C214.261 553.956 216.226 543.511 216.129 532.984C216.253 522.537 214.287 512.171 210.347 502.493C206.288 492.797 200.341 484.004 192.853 476.624L192.726 476.624C185.369 469.132 176.619 463.147 166.969 459.004C157.224 455.133 146.817 453.201 136.331 453.319L12.3031 453.319L12.3031 480.552Z" fill="#4A0286"/>
<path d="M39.7493 488.088L147.765 488.088L39.7493 590.745L10.488 618.556L185.247 618.556L185.247 591.82L76.9071 591.82L185.247 490.238L216.071 461.353L39.7493 461.353L39.7493 488.088Z" fill="#4A0286"/>
<path d="M39.7493 26.7356L147.765 26.7356L39.7493 129.393L10.488 157.203L185.247 157.203L185.247 130.467L76.9071 130.467L185.247 28.8845L216.071 -0.000405715L39.7493 -0.000398008L39.7493 26.7356Z" fill="#4A0286"/>
<path d="M185.617 370.402C184.069 366.485 181.942 362.824 179.304 359.541C176.691 356.298 173.421 353.644 169.708 351.754C165.949 349.79 161.765 348.775 157.523 348.796C154 348.71 150.511 349.504 147.372 351.107C144.311 352.601 141.564 354.667 139.279 357.194C136.854 359.989 134.774 363.065 133.083 366.356C131.307 369.713 129.762 373.187 128.458 376.754C127.264 380.059 126.107 383.702 124.99 387.684C122.77 395.973 119.56 403.964 115.429 411.485C111.489 418.48 106.283 424.682 100.075 429.775C95.7466 433.37 90.8205 436.178 85.521 438.071C80.1013 440.027 74.3809 441.021 68.6185 441.006C60.9795 441.04 53.4098 439.556 46.3496 436.641C39.2894 433.726 32.8796 429.437 27.4929 424.024C22.0674 418.601 17.7671 412.16 14.8389 405.072C11.9107 397.984 10.4123 390.387 10.4297 382.718C10.4101 375.654 11.6956 368.646 14.2216 362.048C16.6681 355.604 20.2292 349.64 24.7423 344.429C32.119 335.784 41.9348 329.567 52.9054 326.589L58.5933 353.498C54.283 355.043 50.3697 357.526 47.1362 360.766C42.7993 365.017 39.8445 370.476 38.657 376.43C37.4695 382.384 38.1044 388.557 40.479 394.145C42.0441 397.831 44.3045 401.181 47.1366 404.012C49.9844 406.864 53.3512 409.147 57.056 410.737C60.7684 412.338 64.7703 413.16 68.8136 413.151C74.1976 413.18 79.4549 411.519 83.8431 408.401C85.8846 406.874 87.6986 405.065 89.2306 403.028C90.8056 401.037 92.2205 398.925 93.4621 396.711C94.728 394.319 95.859 391.858 96.8497 389.339C97.9906 386.481 98.8924 384.013 99.5552 381.933L101.867 374.538C102.769 371.684 103.474 369.524 104.006 368.045C105.711 363.2 107.782 358.491 110.203 353.961C112.631 349.466 115.48 345.21 118.712 341.252C121.867 337.343 125.463 333.811 129.429 330.727C133.395 327.703 137.811 325.321 142.517 323.667C147.425 321.916 152.6 321.029 157.812 321.044C165.72 321.039 173.528 322.812 180.657 326.232C187.695 329.508 194.014 334.146 199.247 339.877C204.464 345.651 208.614 352.305 211.503 359.53C214.529 366.828 216.1 374.647 216.127 382.547C216.128 391.196 214.319 399.749 210.817 407.659C207.329 415.683 202.212 422.896 195.79 428.842C189.473 434.79 181.875 439.213 173.581 441.771L167.799 414.711C173.995 412.077 179.202 407.557 182.678 401.794C186.408 396.114 188.416 389.478 188.46 382.684C188.151 378.468 187.193 374.325 185.618 370.402L185.617 370.402Z" fill="#4A0286"/>
<path d="M162.518 289.893L9.72307 190.148L216.127 190.148L216.127 217.448L100.054 217.448L211.399 289.893L100.054 362.325L216.127 362.325L216.127 389.639L9.72504 389.639L162.518 289.893Z" fill="#4A0286"/>
<path d="M10.488 401.621L37.7264 401.621L37.7264 456.479L216.057 456.479L216.057 483.966L37.7264 483.966L37.7264 511.384L10.488 511.384L10.488 401.621Z" fill="#4A0286"/>
<path d="M124.665 111.592L124.665 228.206L151.025 228.206L151.025 111.592L124.665 111.592Z" fill="#4A0286"/>
<path d="M10.488 288.884L216.127 376.336L216.127 347.187L182.599 332.167L182.599 245.662L216.127 230.642L216.127 201.491L10.488 288.884ZM78.0053 288.746C90.8845 283.269 104.673 277.769 119.371 272.246C134.069 266.724 147.823 261.185 160.632 255.632L160.632 322.125C147.861 316.656 134.126 311.118 119.428 305.51C104.73 299.902 90.9227 294.314 78.0053 288.746Z" fill="#4A0286"/>
</g>
<defs>
<clipPath id="clip0_29_1300">
<rect width="803" height="230" fill="white" transform="translate(0 803) rotate(-90)"/>
</clipPath>
</defs>
</svg>
