<svg width="343" height="207" viewBox="0 0 343 207" fill="none" xmlns="http://www.w3.org/2000/svg">
<path d="M92.2494 52.1826L46.5617 126.864C40.1415 137.359 43.4444 151.071 53.9389 157.491C64.4333 163.911 78.1453 160.608 84.5654 150.114L130.253 75.4319C136.673 64.9374 133.37 51.2255 122.876 44.8054C112.381 38.3852 98.6695 41.6881 92.2494 52.1826Z" fill="#6A00C2"/>
<path d="M160.251 26.8264L108.596 40.0124C96.3315 43.1431 88.927 55.6237 92.0578 67.8884C95.1886 80.1531 107.669 87.5576 119.934 84.4268L171.589 71.2408C183.854 68.11 191.258 55.6295 188.127 43.3648C184.997 31.1001 172.516 23.6956 160.251 26.8264Z" fill="#6A00C2"/>
<path d="M333.01 24.07L331.674 38.4411L321.87 144.112C321.792 144.947 321.551 145.759 321.16 146.501C320.768 147.243 320.235 147.901 319.589 148.436C318.944 148.972 318.199 149.376 317.397 149.624C316.596 149.871 315.753 149.959 314.918 149.881L130.755 132.79C129.919 132.713 129.107 132.472 128.365 132.08C127.623 131.689 126.966 131.155 126.43 130.51C125.894 129.864 125.491 129.12 125.243 128.318C124.995 127.517 124.907 126.674 124.985 125.839L134.715 20.9828L136.125 5.78666C136.284 4.10258 137.105 2.55042 138.407 1.47074C139.709 0.391059 141.387 -0.127962 143.071 0.0275572L327.235 17.1186C328.071 17.1954 328.883 17.4362 329.626 17.8272C330.368 18.2182 331.027 18.7518 331.563 19.3974C332.099 20.043 332.503 20.7879 332.751 21.5897C333 22.3914 333.088 23.2342 333.01 24.07Z" fill="#32005C"/>
<path d="M333.01 24.0698L331.674 38.441L229.154 73.2298L134.709 20.9934L136.12 5.7972C136.197 4.96188 136.439 4.15001 136.83 3.40795C137.221 2.66589 137.755 2.00819 138.4 1.4724C139.046 0.936613 139.791 0.533235 140.592 0.285308C141.394 0.03738 142.236 -0.0502411 143.071 0.0274487L327.235 17.1185C328.071 17.1953 328.883 17.4361 329.626 17.8271C330.368 18.2181 331.027 18.7517 331.563 19.3973C332.099 20.0428 332.503 20.7878 332.751 21.5896C333 22.3913 333.088 23.2341 333.01 24.0698Z" fill="#6A00C2"/>
<path d="M99.1683 85.2863L35.5419 145.877C26.6009 154.391 26.2551 168.541 34.7694 177.482C43.2837 186.423 57.434 186.769 66.3749 178.255L130.001 117.664C138.942 109.15 139.288 94.9996 130.774 86.0587C122.259 77.1178 108.109 76.772 99.1683 85.2863Z" fill="#6A00C2"/>
<path d="M177.072 117.993L116.559 117.296C114.145 117.27 111.76 116.766 109.541 115.814C107.323 114.862 105.315 113.48 103.633 111.748C101.95 110.017 100.627 107.969 99.7401 105.724C98.8527 103.479 98.4183 101.08 98.462 98.6667C98.5502 93.8352 100.545 89.2345 104.012 85.8682C107.479 82.502 112.137 80.6432 116.969 80.6974L177.487 81.3947C179.901 81.4217 182.286 81.9259 184.504 82.8782C186.722 83.8306 188.73 85.2123 190.412 86.9438C192.094 88.6753 193.417 90.7224 194.305 92.9672C195.192 95.2121 195.627 97.6104 195.584 100.024C195.496 104.856 193.5 109.458 190.032 112.824C186.564 116.191 181.905 118.049 177.072 117.993Z" fill="#6A00C2"/>
<path d="M49.0718 102.45L4.62541 144.775C2.07087 147.208 1.97206 151.251 4.40472 153.806L49.8798 201.559C52.3125 204.114 56.3554 204.212 58.9099 201.78L103.356 159.454C105.911 157.021 106.01 152.979 103.577 150.424L58.1019 102.67C55.6693 100.116 51.6263 100.017 49.0718 102.45Z" fill="#6A00C2"/>
<path d="M226.225 51.8238L225.988 54.373L237.272 55.4198L237.508 52.8705L226.225 51.8238Z" fill="white"/>
<path d="M233.716 32.4688L223.406 51.5611L226.227 51.8219L227.983 48.7188L236.356 49.5012L237.506 52.8758L240.337 53.1366L233.716 32.4688ZM233.125 38.9996C233.54 40.293 233.945 41.661 234.349 43.146C234.754 44.631 235.164 45.9936 235.589 47.2817L229.154 46.6855C229.793 45.5004 230.453 44.2212 231.134 42.8479C231.816 41.4747 232.479 40.1919 233.125 38.9996Z" fill="white"/>
<path d="M298.008 24.5167L319.299 41.7195C320.092 42.3582 321.231 41.2351 320.427 40.5911L299.126 23.3883C298.333 22.7496 297.199 23.8727 297.997 24.5167H298.008Z" fill="#FF0A4C"/>
<path d="M313.257 20.2855L341.617 45.7756C342.378 46.4623 343.511 45.3339 342.745 44.6472L314.386 19.1624C313.625 18.4758 312.491 19.6042 313.257 20.2908V20.2855Z" fill="white"/>
<path d="M308.999 151.494L337.358 176.995C338.12 177.676 339.253 176.553 338.487 175.861L310.133 150.365C309.367 149.684 308.238 150.807 308.999 151.494Z" fill="white"/>
<path d="M321.172 144.431L338.513 160.904C339.259 161.607 340.392 160.484 339.642 159.771L322.306 143.302C321.561 142.594 320.427 143.723 321.172 144.431Z" fill="#FF0A4C"/>
<path d="M260.185 127.042L258.855 124.844L257.79 124.748L257.604 126.803L257.024 126.749L257.476 121.847L259.201 122.007C259.401 122.005 259.599 122.046 259.782 122.125C259.966 122.205 260.13 122.323 260.265 122.47C260.4 122.618 260.503 122.792 260.566 122.982C260.629 123.172 260.652 123.373 260.632 123.572C260.613 123.882 260.488 124.177 260.278 124.406C260.067 124.636 259.785 124.786 259.477 124.833L260.845 127.101L260.185 127.042ZM257.859 124.226L258.977 124.328C259.101 124.356 259.229 124.356 259.354 124.33C259.478 124.303 259.595 124.249 259.696 124.173C259.797 124.096 259.881 123.999 259.94 123.886C260 123.774 260.035 123.651 260.042 123.524C260.058 123.397 260.046 123.269 260.008 123.147C259.97 123.025 259.906 122.913 259.821 122.818C259.736 122.723 259.631 122.647 259.514 122.596C259.396 122.546 259.27 122.521 259.142 122.523L258.019 122.422L257.859 124.226Z" fill="white"/>
<path d="M261.984 125.557C261.978 125.891 262.102 126.214 262.329 126.459C262.556 126.704 262.87 126.852 263.203 126.871C263.411 126.889 263.621 126.863 263.818 126.796C264.016 126.729 264.198 126.623 264.353 126.483L264.651 126.898C264.448 127.081 264.21 127.22 263.95 127.306C263.691 127.392 263.417 127.424 263.145 127.398C262.662 127.336 262.221 127.091 261.913 126.714C261.606 126.336 261.455 125.855 261.492 125.37C261.528 124.884 261.75 124.431 262.111 124.104C262.473 123.778 262.945 123.602 263.432 123.614C263.65 123.626 263.863 123.683 264.058 123.781C264.253 123.878 264.425 124.015 264.566 124.182C264.706 124.349 264.81 124.543 264.872 124.752C264.935 124.961 264.954 125.18 264.928 125.397C264.912 125.541 264.884 125.684 264.843 125.823L261.984 125.557ZM264.348 125.269C264.365 125.129 264.352 124.986 264.311 124.851C264.27 124.716 264.202 124.591 264.109 124.484C264.017 124.376 263.904 124.29 263.776 124.229C263.648 124.168 263.51 124.134 263.368 124.13C263.075 124.103 262.781 124.182 262.54 124.351C262.3 124.521 262.127 124.771 262.054 125.056L264.348 125.269Z" fill="white"/>
<path d="M267.722 124.018C268.017 124.044 268.301 124.141 268.549 124.303C268.797 124.464 269.001 124.685 269.143 124.945L268.702 125.232C268.599 125.042 268.451 124.88 268.271 124.761C268.091 124.642 267.884 124.57 267.669 124.551C267.308 124.517 266.948 124.629 266.669 124.861C266.39 125.093 266.214 125.427 266.181 125.788C266.148 126.15 266.26 126.509 266.492 126.788C266.724 127.067 267.057 127.243 267.419 127.276C267.631 127.295 267.844 127.261 268.04 127.177C268.236 127.094 268.409 126.963 268.542 126.797L268.92 127.153C268.734 127.383 268.495 127.562 268.222 127.676C267.95 127.789 267.654 127.833 267.36 127.803C266.858 127.755 266.396 127.509 266.075 127.121C265.754 126.732 265.601 126.231 265.649 125.73C265.697 125.228 265.942 124.766 266.331 124.445C266.72 124.124 267.22 123.97 267.722 124.018Z" fill="white"/>
<path d="M270.235 126.323C270.228 126.656 270.351 126.979 270.577 127.224C270.803 127.469 271.115 127.617 271.448 127.638C271.656 127.655 271.865 127.629 272.063 127.563C272.261 127.496 272.443 127.389 272.598 127.249L272.896 127.664C272.692 127.846 272.454 127.985 272.195 128.071C271.935 128.157 271.661 128.189 271.39 128.165C270.887 128.127 270.42 127.89 270.092 127.508C269.763 127.126 269.6 126.629 269.638 126.126C269.676 125.624 269.913 125.157 270.295 124.828C270.677 124.5 271.174 124.337 271.677 124.375C271.895 124.387 272.109 124.444 272.304 124.542C272.499 124.64 272.672 124.777 272.813 124.945C272.953 125.113 273.057 125.307 273.119 125.517C273.181 125.726 273.199 125.947 273.173 126.163C273.157 126.308 273.129 126.45 273.087 126.589L270.235 126.323ZM272.598 126.036C272.615 125.895 272.602 125.753 272.561 125.618C272.52 125.483 272.452 125.357 272.359 125.25C272.267 125.143 272.154 125.056 272.026 124.995C271.899 124.934 271.76 124.901 271.618 124.897C271.325 124.87 271.031 124.948 270.791 125.118C270.55 125.287 270.377 125.537 270.304 125.823L272.598 126.036Z" fill="white"/>
<path d="M274.322 124.705L274.892 124.758L274.557 128.372L273.987 128.319L274.322 124.705ZM274.775 122.933C274.887 122.942 274.991 122.996 275.064 123.081C275.136 123.167 275.172 123.278 275.163 123.39C275.159 123.446 275.143 123.5 275.117 123.549C275.091 123.599 275.055 123.642 275.012 123.678C274.969 123.713 274.919 123.739 274.865 123.755C274.812 123.77 274.756 123.775 274.7 123.768C274.644 123.765 274.589 123.75 274.539 123.725C274.488 123.7 274.443 123.665 274.406 123.623C274.37 123.58 274.342 123.53 274.325 123.477C274.308 123.423 274.301 123.367 274.306 123.311C274.325 123.203 274.383 123.106 274.47 123.04C274.557 122.974 274.666 122.943 274.775 122.954V122.933Z" fill="white"/>
<path d="M279.326 125.168L277.303 128.708H277.096L275.706 124.833L276.318 124.892L277.266 127.729L278.714 125.115L279.326 125.168Z" fill="white"/>
<path d="M280.145 127.244C280.139 127.577 280.263 127.9 280.49 128.145C280.718 128.389 281.031 128.535 281.364 128.553C281.573 128.57 281.782 128.545 281.981 128.479C282.179 128.414 282.362 128.308 282.519 128.17L282.817 128.585C282.613 128.766 282.374 128.904 282.115 128.989C281.856 129.074 281.583 129.105 281.311 129.08C280.809 129.043 280.343 128.808 280.014 128.426C279.686 128.045 279.522 127.549 279.56 127.047C279.597 126.545 279.832 126.079 280.214 125.75C280.595 125.422 281.091 125.258 281.593 125.296C281.811 125.308 282.025 125.365 282.22 125.463C282.415 125.561 282.588 125.698 282.729 125.866C282.869 126.033 282.973 126.228 283.035 126.438C283.097 126.647 283.115 126.867 283.089 127.084C283.078 127.229 283.049 127.372 283.004 127.51L280.145 127.244ZM282.509 126.956C282.526 126.816 282.513 126.674 282.472 126.538C282.431 126.403 282.362 126.278 282.27 126.171C282.178 126.064 282.065 125.977 281.937 125.916C281.809 125.855 281.671 125.822 281.529 125.817C281.236 125.79 280.942 125.869 280.701 126.039C280.461 126.208 280.288 126.458 280.214 126.744L282.509 126.956Z" fill="white"/>
<path d="M286.112 126.307H285.894C285.749 126.283 285.601 126.289 285.459 126.325C285.316 126.361 285.183 126.426 285.067 126.516C284.951 126.606 284.855 126.719 284.785 126.848C284.714 126.977 284.672 127.119 284.659 127.265L284.473 129.314L283.898 129.261L284.223 125.615L284.755 125.663L284.707 126.195C284.854 126.036 285.037 125.914 285.241 125.838C285.444 125.762 285.662 125.735 285.878 125.759C285.967 125.765 286.054 125.783 286.139 125.812L286.112 126.307Z" fill="white"/>
<path d="M287.07 128.671C287.134 128.676 287.196 128.694 287.252 128.724C287.308 128.754 287.358 128.795 287.398 128.845C287.438 128.895 287.467 128.952 287.484 129.014C287.501 129.075 287.505 129.14 287.496 129.203C287.492 129.267 287.474 129.329 287.444 129.385C287.415 129.442 287.373 129.492 287.323 129.531C287.273 129.571 287.215 129.6 287.153 129.615C287.091 129.631 287.027 129.634 286.964 129.624C286.84 129.612 286.725 129.552 286.645 129.456C286.565 129.36 286.527 129.237 286.538 129.113C286.549 128.988 286.609 128.874 286.705 128.794C286.801 128.714 286.925 128.675 287.049 128.687L287.07 128.671ZM287.331 125.876C287.422 125.889 287.507 125.929 287.575 125.989C287.644 126.05 287.693 126.13 287.717 126.218C287.741 126.307 287.739 126.4 287.71 126.487C287.681 126.574 287.627 126.651 287.556 126.708C287.484 126.764 287.397 126.799 287.305 126.807C287.214 126.815 287.122 126.796 287.042 126.752C286.961 126.708 286.895 126.642 286.852 126.561C286.809 126.48 286.79 126.388 286.799 126.297C286.803 126.233 286.821 126.171 286.85 126.114C286.88 126.058 286.922 126.008 286.972 125.969C287.022 125.929 287.08 125.9 287.142 125.885C287.203 125.869 287.268 125.866 287.331 125.876Z" fill="white"/>
<path d="M256.667 130.752L257.247 130.805L257.061 132.828L259.808 133.078L259.994 131.061L260.574 131.114L260.116 136.016L259.536 135.958L259.738 133.6L256.992 133.344L256.768 135.707L256.193 135.649L256.667 130.752Z" fill="white"/>
<path d="M261.676 132.535L262.24 132.583L262.032 134.797C262.021 134.919 262.034 135.042 262.071 135.159C262.107 135.276 262.166 135.384 262.244 135.478C262.323 135.573 262.419 135.65 262.527 135.707C262.636 135.764 262.754 135.8 262.876 135.811C262.998 135.822 263.121 135.809 263.238 135.773C263.355 135.736 263.464 135.677 263.558 135.599C263.652 135.521 263.73 135.424 263.787 135.316C263.844 135.208 263.879 135.089 263.89 134.967L264.098 132.758L264.667 132.811L264.465 134.983C264.447 135.18 264.39 135.37 264.298 135.545C264.206 135.719 264.081 135.874 263.929 136C263.777 136.126 263.602 136.221 263.414 136.279C263.225 136.338 263.027 136.359 262.831 136.34C262.634 136.322 262.444 136.266 262.269 136.174C262.094 136.082 261.94 135.956 261.814 135.804C261.688 135.653 261.593 135.478 261.534 135.289C261.476 135.101 261.455 134.903 261.474 134.706L261.676 132.535Z" fill="white"/>
<path d="M268.531 136.793L267.962 136.74L268.164 134.536C268.191 134.412 268.191 134.283 268.164 134.159C268.136 134.035 268.082 133.918 268.005 133.817C267.928 133.716 267.83 133.633 267.718 133.573C267.606 133.513 267.482 133.479 267.355 133.472C267.228 133.456 267.1 133.467 266.977 133.504C266.855 133.54 266.742 133.602 266.644 133.684C266.547 133.766 266.467 133.868 266.411 133.983C266.355 134.097 266.323 134.222 266.317 134.35L266.11 136.554L265.54 136.5L265.875 132.886L266.408 132.934L266.376 133.323C266.531 133.183 266.715 133.078 266.914 133.015C267.113 132.952 267.323 132.931 267.531 132.955C267.717 132.964 267.9 133.013 268.066 133.099C268.232 133.184 268.377 133.305 268.492 133.452C268.608 133.599 268.69 133.769 268.733 133.951C268.777 134.132 268.78 134.321 268.744 134.504L268.531 136.793Z" fill="white"/>
<path d="M271.714 137.091C271.513 137.12 271.31 137.129 271.107 137.118C270.943 137.129 270.778 137.102 270.625 137.038C270.473 136.975 270.338 136.876 270.23 136.751C270.122 136.627 270.044 136.478 270.004 136.318C269.963 136.158 269.96 135.991 269.995 135.83L270.181 133.818L269.575 133.759L269.622 133.227L270.229 133.285L270.32 132.295L270.895 132.349L270.804 133.339L271.933 133.44L271.885 133.972L270.756 133.866L270.57 135.84C270.522 136.373 270.772 136.554 271.273 136.601C271.434 136.615 271.596 136.615 271.757 136.601L271.714 137.091Z" fill="white"/>
<path d="M272.683 136.17C272.79 136.344 272.934 136.492 273.104 136.604C273.274 136.716 273.466 136.79 273.668 136.82C274.062 136.857 274.376 136.692 274.408 136.373C274.439 136.053 274.258 135.957 273.827 135.734L273.492 135.553C272.917 135.255 272.646 134.952 272.688 134.488C272.708 134.34 272.759 134.198 272.837 134.07C272.915 133.943 273.02 133.833 273.143 133.749C273.267 133.665 273.407 133.607 273.554 133.581C273.701 133.554 273.852 133.559 273.998 133.594C274.23 133.613 274.455 133.684 274.656 133.802C274.857 133.92 275.028 134.082 275.158 134.276L274.775 134.6C274.566 134.332 274.26 134.158 273.923 134.116C273.567 134.084 273.306 134.228 273.279 134.515C273.252 134.802 273.396 134.872 273.811 135.095L274.131 135.271C274.78 135.622 275.036 135.931 274.988 136.426C274.981 136.578 274.937 136.727 274.86 136.858C274.783 136.99 274.675 137.101 274.546 137.182C274.267 137.346 273.941 137.413 273.62 137.373C273.346 137.348 273.082 137.259 272.849 137.113C272.616 136.966 272.421 136.768 272.278 136.532L272.683 136.17Z" fill="white"/>
<path d="M281.215 137.969L280.64 137.916L280.843 135.718C280.874 135.597 280.879 135.471 280.856 135.348C280.833 135.225 280.784 135.109 280.711 135.007C280.639 134.906 280.545 134.821 280.436 134.76C280.327 134.699 280.206 134.662 280.082 134.653C279.96 134.638 279.836 134.647 279.718 134.682C279.6 134.716 279.49 134.774 279.395 134.852C279.3 134.93 279.223 135.027 279.167 135.137C279.111 135.246 279.078 135.366 279.07 135.489L278.857 137.735L278.288 137.682L278.49 135.484C278.521 135.362 278.524 135.235 278.501 135.112C278.477 134.989 278.427 134.872 278.353 134.771C278.279 134.669 278.184 134.585 278.075 134.524C277.965 134.464 277.843 134.428 277.718 134.419C277.593 134.405 277.466 134.417 277.346 134.455C277.226 134.493 277.115 134.555 277.02 134.638C276.925 134.721 276.849 134.824 276.796 134.938C276.743 135.052 276.714 135.177 276.712 135.303L276.505 137.501L275.935 137.448L276.271 133.833L276.803 133.881L276.771 134.259C276.92 134.122 277.097 134.018 277.29 133.957C277.483 133.895 277.688 133.877 277.889 133.903C278.117 133.908 278.339 133.978 278.528 134.107C278.717 134.235 278.865 134.416 278.953 134.627C279.11 134.439 279.31 134.293 279.537 134.2C279.763 134.107 280.008 134.071 280.252 134.094C280.437 134.104 280.618 134.154 280.782 134.24C280.946 134.327 281.089 134.448 281.201 134.595C281.314 134.743 281.393 134.913 281.433 135.094C281.473 135.275 281.473 135.462 281.433 135.643L281.215 137.969Z" fill="white"/>
<path d="M285.127 138.336L284.595 138.283L284.638 137.815C284.478 137.985 284.279 138.114 284.059 138.19C283.838 138.266 283.602 138.287 283.371 138.251C282.626 138.182 282.141 137.746 282.2 137.118C282.259 136.489 282.817 136.159 283.595 136.229L284.739 136.335V136.026C284.766 135.908 284.766 135.784 284.739 135.666C284.712 135.547 284.659 135.436 284.583 135.34C284.508 135.245 284.412 135.167 284.302 135.114C284.193 135.06 284.073 135.032 283.951 135.031C283.74 135.012 283.528 135.046 283.334 135.13C283.14 135.213 282.97 135.344 282.839 135.51L282.493 135.164C282.669 134.928 282.905 134.742 283.176 134.626C283.447 134.51 283.744 134.468 284.036 134.504C284.231 134.509 284.422 134.556 284.597 134.643C284.771 134.729 284.924 134.853 285.045 135.005C285.167 135.158 285.253 135.335 285.299 135.524C285.344 135.713 285.347 135.91 285.308 136.101L285.127 138.336ZM284.696 136.804L283.632 136.702C283.131 136.66 282.839 136.809 282.807 137.144C282.775 137.48 283.078 137.746 283.504 137.783C283.78 137.821 284.061 137.749 284.284 137.583C284.508 137.417 284.658 137.17 284.702 136.894L284.696 136.804Z" fill="white"/>
<path d="M289.327 138.725L288.757 138.672L288.96 136.468C288.987 136.344 288.987 136.216 288.959 136.091C288.932 135.967 288.878 135.85 288.801 135.749C288.724 135.648 288.626 135.565 288.514 135.505C288.401 135.445 288.278 135.411 288.151 135.404C288.022 135.383 287.891 135.39 287.765 135.424C287.64 135.458 287.523 135.519 287.422 135.601C287.322 135.684 287.24 135.786 287.182 135.903C287.124 136.019 287.091 136.147 287.086 136.277L286.884 138.486L286.309 138.432L286.644 134.813L287.177 134.866L287.139 135.249C287.295 135.111 287.479 135.006 287.678 134.944C287.877 134.882 288.087 134.862 288.294 134.888C288.481 134.896 288.663 134.945 288.829 135.031C288.995 135.116 289.141 135.237 289.256 135.384C289.371 135.531 289.453 135.701 289.497 135.883C289.54 136.064 289.544 136.253 289.508 136.436L289.327 138.725Z" fill="white"/>
<path d="M292.84 137.746C292.949 138.007 293.126 138.235 293.353 138.405C293.579 138.575 293.847 138.682 294.128 138.715C294.714 138.768 295.145 138.486 295.193 137.985C295.24 137.485 294.985 137.368 294.458 137.049L293.926 136.74C293.282 136.357 292.861 135.979 292.941 135.324C292.969 135.143 293.032 134.97 293.128 134.814C293.224 134.659 293.35 134.524 293.499 134.417C293.648 134.311 293.816 134.236 293.995 134.196C294.173 134.156 294.358 134.152 294.538 134.185C294.843 134.211 295.137 134.314 295.393 134.484C295.648 134.655 295.855 134.887 295.996 135.159L295.544 135.436C295.44 135.238 295.288 135.068 295.102 134.943C294.916 134.817 294.702 134.74 294.479 134.717C293.995 134.675 293.585 134.898 293.543 135.351C293.524 135.475 293.546 135.602 293.606 135.713C293.713 135.91 293.883 136.027 294.25 136.245L294.783 136.554C295.517 137.006 295.847 137.395 295.799 138.028C295.773 138.223 295.708 138.411 295.606 138.579C295.505 138.748 295.37 138.894 295.209 139.008C295.049 139.122 294.867 139.203 294.675 139.244C294.482 139.285 294.284 139.286 294.091 139.247C293.723 139.214 293.371 139.084 293.071 138.869C292.771 138.655 292.533 138.365 292.382 138.028L292.84 137.746Z" fill="white"/>
<path d="M298.695 139.593C298.492 139.624 298.287 139.633 298.083 139.619C297.918 139.63 297.754 139.602 297.602 139.538C297.451 139.474 297.316 139.376 297.209 139.251C297.101 139.126 297.024 138.978 296.984 138.818C296.944 138.659 296.941 138.492 296.976 138.331L297.162 136.319L296.55 136.266L296.598 135.734L297.21 135.787L297.3 134.802L297.87 134.855L297.779 135.84L298.908 135.947L298.86 136.479L297.731 136.372L297.55 138.347C297.503 138.879 297.753 139.066 298.248 139.108C298.411 139.124 298.575 139.124 298.737 139.108L298.695 139.593Z" fill="white"/>
<path d="M299.834 136.053L300.398 136.106L300.196 138.315C300.178 138.44 300.185 138.568 300.218 138.69C300.25 138.812 300.307 138.926 300.385 139.025C300.463 139.124 300.56 139.207 300.671 139.267C300.782 139.328 300.904 139.365 301.03 139.377C301.155 139.389 301.282 139.375 301.402 139.336C301.523 139.298 301.634 139.235 301.729 139.152C301.824 139.07 301.902 138.968 301.956 138.854C302.011 138.741 302.042 138.617 302.048 138.491L302.256 136.277L302.825 136.33L302.623 138.507C302.604 138.703 302.547 138.894 302.455 139.069C302.363 139.243 302.237 139.397 302.085 139.523C301.933 139.649 301.758 139.744 301.569 139.802C301.381 139.86 301.183 139.88 300.986 139.862C300.79 139.843 300.599 139.786 300.425 139.694C300.25 139.601 300.096 139.476 299.97 139.324C299.844 139.172 299.75 138.997 299.692 138.808C299.633 138.619 299.613 138.421 299.632 138.225L299.834 136.053Z" fill="white"/>
<path d="M307.642 134.808L307.11 140.375L306.578 140.327L306.631 139.752C306.454 139.95 306.232 140.101 305.983 140.194C305.735 140.287 305.468 140.318 305.205 140.285C304.723 140.215 304.286 139.962 303.984 139.58C303.683 139.197 303.54 138.713 303.585 138.228C303.63 137.743 303.86 137.294 304.227 136.974C304.593 136.653 305.069 136.485 305.556 136.506C305.811 136.523 306.059 136.599 306.28 136.727C306.502 136.856 306.691 137.033 306.833 137.245L307.067 134.76L307.642 134.808ZM305.593 137.038C305.249 137.035 304.917 137.162 304.662 137.393C304.407 137.624 304.248 137.943 304.216 138.286C304.185 138.628 304.283 138.97 304.492 139.244C304.7 139.517 305.004 139.703 305.343 139.763C305.687 139.765 306.02 139.639 306.275 139.407C306.53 139.176 306.688 138.858 306.72 138.515C306.751 138.173 306.653 137.831 306.444 137.557C306.236 137.283 305.932 137.098 305.593 137.038Z" fill="white"/>
<path d="M308.707 136.878L309.282 136.931L308.946 140.545L308.371 140.492L308.707 136.878ZM309.164 135.106C309.276 135.116 309.378 135.17 309.45 135.256C309.521 135.342 309.557 135.452 309.548 135.563C309.543 135.619 309.527 135.673 309.501 135.722C309.475 135.772 309.44 135.815 309.396 135.851C309.353 135.886 309.303 135.912 309.25 135.928C309.196 135.943 309.14 135.948 309.085 135.941C309.027 135.939 308.971 135.926 308.919 135.901C308.867 135.876 308.821 135.842 308.783 135.798C308.745 135.755 308.717 135.705 308.699 135.65C308.682 135.596 308.675 135.538 308.681 135.481C308.686 135.424 308.703 135.369 308.731 135.318C308.759 135.268 308.796 135.224 308.842 135.189C308.887 135.154 308.939 135.128 308.994 135.114C309.05 135.1 309.108 135.097 309.164 135.106Z" fill="white"/>
<path d="M312.193 137.117C312.566 137.154 312.919 137.3 313.209 137.537C313.499 137.774 313.712 138.092 313.821 138.45C313.931 138.808 313.931 139.191 313.824 139.549C313.716 139.908 313.504 140.226 313.215 140.465C312.926 140.703 312.573 140.851 312.201 140.888C311.828 140.926 311.453 140.853 311.122 140.678C310.791 140.502 310.519 140.233 310.341 139.903C310.164 139.574 310.087 139.199 310.122 138.826C310.144 138.577 310.216 138.335 310.332 138.114C310.448 137.893 310.607 137.697 310.8 137.538C310.993 137.379 311.215 137.26 311.454 137.188C311.693 137.116 311.944 137.092 312.193 137.117ZM312.14 137.65C311.871 137.615 311.597 137.661 311.355 137.783C311.112 137.904 310.912 138.095 310.778 138.332C310.645 138.568 310.586 138.839 310.607 139.109C310.629 139.379 310.73 139.637 310.899 139.849C311.068 140.062 311.296 140.219 311.555 140.3C311.814 140.382 312.091 140.385 312.351 140.308C312.611 140.231 312.842 140.079 313.015 139.869C313.188 139.66 313.295 139.405 313.321 139.135C313.346 138.959 313.334 138.779 313.288 138.608C313.241 138.436 313.16 138.276 313.049 138.137C312.939 137.997 312.801 137.882 312.645 137.797C312.489 137.713 312.317 137.661 312.14 137.644V137.65Z" fill="white"/>
</svg>
