<svg width="24" height="24" viewBox="0 0 24 24" fill="none" xmlns="http://www.w3.org/2000/svg">
<path d="M21.0001 11.9439C21.0088 13.1364 20.7794 14.3186 20.3255 15.4213C19.8715 16.524 19.202 17.5251 18.3563 18.3658C14.8969 21.8251 9.23442 21.8626 5.72817 18.4501C4.44182 17.1984 3.55911 15.5906 3.19348 13.8334C2.82785 12.0761 2.99599 10.2497 3.67629 8.58876C4.3566 6.92781 5.51799 5.50821 7.01126 4.51235C8.50453 3.51649 10.2615 2.98987 12.0563 3.00015C12.1686 3.0018 12.2791 3.02835 12.3799 3.07787C12.4807 3.1274 12.5693 3.19867 12.6393 3.28654C12.7092 3.37442 12.7588 3.47672 12.7844 3.58607C12.8101 3.69541 12.8111 3.80909 12.7875 3.9189C12.6899 4.35446 12.6906 4.80633 12.7897 5.24156C12.8888 5.6768 13.0838 6.08443 13.3605 6.43474C13.6371 6.78504 13.9885 7.0692 14.3889 7.26649C14.7893 7.46378 15.2287 7.56923 15.675 7.57515C15.874 7.57515 16.0647 7.65417 16.2054 7.79482C16.346 7.93547 16.425 8.12624 16.425 8.32515C16.431 8.77149 16.5364 9.21088 16.7337 9.61129C16.931 10.0117 17.2152 10.363 17.5655 10.6397C17.9158 10.9164 18.3234 11.1114 18.7586 11.2105C19.1939 11.3096 19.6457 11.3103 20.0813 11.2126C20.1911 11.1891 20.3048 11.1901 20.4141 11.2158C20.5235 11.2414 20.6258 11.291 20.7137 11.3609C20.8015 11.4309 20.8728 11.5194 20.9223 11.6203C20.9718 11.7211 20.9984 11.8316 21.0001 11.9439V11.9439Z" stroke="black" stroke-linecap="round" stroke-linejoin="round"/>
<path d="M14.625 17.25C15.2463 17.25 15.75 16.7463 15.75 16.125C15.75 15.5037 15.2463 15 14.625 15C14.0037 15 13.5 15.5037 13.5 16.125C13.5 16.7463 14.0037 17.25 14.625 17.25Z" fill="black"/>
<path d="M8.625 16.5C9.24632 16.5 9.75 15.9963 9.75 15.375C9.75 14.7537 9.24632 14.25 8.625 14.25C8.00368 14.25 7.5 14.7537 7.5 15.375C7.5 15.9963 8.00368 16.5 8.625 16.5Z" fill="black"/>
<path d="M7.875 11.25C8.49632 11.25 9 10.7463 9 10.125C9 9.50368 8.49632 9 7.875 9C7.25368 9 6.75 9.50368 6.75 10.125C6.75 10.7463 7.25368 11.25 7.875 11.25Z" fill="black"/>
<path d="M12.75 12.75C13.3713 12.75 13.875 12.2463 13.875 11.625C13.875 11.0037 13.3713 10.5 12.75 10.5C12.1287 10.5 11.625 11.0037 11.625 11.625C11.625 12.2463 12.1287 12.75 12.75 12.75Z" fill="black"/>
</svg>
