<svg width="32" height="32" viewBox="0 0 32 32" fill="none" xmlns="http://www.w3.org/2000/svg">
<path d="M28 15.9252C28.0116 17.5152 27.7059 19.0915 27.1006 20.5617C26.4953 22.032 25.6027 23.3668 24.475 24.4877C19.8625 29.1002 12.3125 29.1502 7.6375 24.6002C5.92236 22.9312 4.74543 20.7875 4.25791 18.4445C3.7704 16.1015 3.99459 13.6663 4.90166 11.4517C5.80874 9.23708 7.35726 7.34428 9.34829 6.01647C11.3393 4.68866 13.6819 3.98649 16.075 4.0002C16.2247 4.0024 16.3721 4.0378 16.5065 4.10383C16.6409 4.16986 16.759 4.26489 16.8523 4.38206C16.9455 4.49923 17.0116 4.63562 17.0458 4.78142C17.08 4.92722 17.0815 5.07878 17.05 5.2252C16.9198 5.80594 16.9208 6.40843 17.0529 6.98875C17.1851 7.56906 17.4451 8.11257 17.8139 8.57965C18.1828 9.04673 18.6513 9.4256 19.1851 9.68865C19.719 9.95171 20.3049 10.0923 20.9 10.1002C21.1652 10.1002 21.4196 10.2056 21.6071 10.3931C21.7946 10.5806 21.9 10.835 21.9 11.1002C21.9079 11.6953 22.0485 12.2812 22.3115 12.8151C22.5746 13.3489 22.9535 13.8174 23.4206 14.1863C23.8876 14.5551 24.4311 14.8151 25.0115 14.9473C25.5918 15.0795 26.1943 15.0804 26.775 14.9502C26.9214 14.9188 27.073 14.9202 27.2188 14.9544C27.3646 14.9886 27.501 15.0547 27.6181 15.1479C27.7353 15.2412 27.8303 15.3593 27.8964 15.4937C27.9624 15.6281 27.9978 15.7755 28 15.9252V15.9252Z" stroke="black" stroke-width="2" stroke-linecap="round" stroke-linejoin="round"/>
<path d="M19.5 23C20.3284 23 21 22.3284 21 21.5C21 20.6716 20.3284 20 19.5 20C18.6716 20 18 20.6716 18 21.5C18 22.3284 18.6716 23 19.5 23Z" fill="black"/>
<path d="M11.5 22C12.3284 22 13 21.3284 13 20.5C13 19.6716 12.3284 19 11.5 19C10.6716 19 10 19.6716 10 20.5C10 21.3284 10.6716 22 11.5 22Z" fill="black"/>
<path d="M10.5 15C11.3284 15 12 14.3284 12 13.5C12 12.6716 11.3284 12 10.5 12C9.67157 12 9 12.6716 9 13.5C9 14.3284 9.67157 15 10.5 15Z" fill="black"/>
<path d="M17 17C17.8284 17 18.5 16.3284 18.5 15.5C18.5 14.6716 17.8284 14 17 14C16.1716 14 15.5 14.6716 15.5 15.5C15.5 16.3284 16.1716 17 17 17Z" fill="black"/>
</svg>
