<svg width="214" height="345" viewBox="0 0 214 345" fill="none" xmlns="http://www.w3.org/2000/svg">
<g clip-path="url(#clip0_161_15)">
<path d="M207.979 325.757V83.0574C207.979 80.314 206.888 77.683 204.947 75.7431C203.006 73.8032 200.373 72.7134 197.628 72.7134H16.3722C15.0114 72.7121 13.6637 72.9788 12.4061 73.4983C11.1486 74.0178 10.0057 74.7799 9.04306 75.741C8.08036 76.7021 7.31666 77.8435 6.7956 79.0997C6.27454 80.356 6.00635 81.7025 6.00635 83.0624V325.757C6.0068 329.207 7.29021 332.533 9.60729 335.09C11.9244 337.647 15.1097 339.252 18.5445 339.593L39.4515 341.664C84.367 346.115 129.613 346.115 174.529 341.664L195.431 339.593C198.868 339.255 202.056 337.651 204.375 335.094C206.695 332.537 207.979 329.209 207.979 325.757V325.757Z" fill="#32005C"/>
<path d="M157.736 9.68879V22.954C156.766 22.4111 155.763 21.93 154.733 21.5134V7.9281C152.672 6.91861 150.541 6.05937 148.356 5.3571V19.4076C147.285 19.1225 146.154 18.8424 144.972 18.5773V4.57179L143.586 4.00157C141.334 3.42134 138.911 2.89613 136.343 2.43595V17.0067C135.007 16.8066 133.625 16.6215 132.209 16.4464V1.73568C129.006 1.23548 125.617 0.875343 122.078 0.585229V15.5061C120.72 15.416 119.342 15.3377 117.944 15.271V0.300117C115.121 0.135053 112.258 0.0350137 109.315 0V15.0059H106.997H104.68V0C101.737 0.0350137 98.8539 0.135053 96.0509 0.300117V15.261C94.6545 15.326 93.273 15.406 91.9166 15.4961V0.585229C88.3779 0.875343 84.9893 1.26049 81.7859 1.73568V16.4364C80.3745 16.6115 78.993 16.7966 77.6516 16.9967V2.41595C75.0839 2.87613 72.6463 3.41634 70.409 3.98156L69.0225 4.58179V18.5873C67.8463 18.8524 66.7151 19.1325 65.639 19.4176V5.3571C63.4542 6.05937 61.323 6.91861 59.2623 7.9281V21.5084C58.2323 21.926 57.2293 22.4071 56.2591 22.949V9.68879C53.5963 11.5295 52.1248 13.5503 52.1248 15.6911V39.4704L56.2591 42.0965V86.2638H157.736V42.0965L161.87 39.4704V15.6661C161.87 13.5503 160.399 11.5295 157.736 9.68879Z" fill="#32005C"/>
<path d="M211.222 55.647V71.1531C210.32 70.6834 209.389 70.2724 208.434 69.9226V53.8663C206.363 52.7907 204.211 51.8775 201.997 51.1352V68.0269C200.666 67.7117 199.234 67.3966 197.708 67.0915V49.7747C194.565 48.8644 191.021 48.009 187.112 47.2137V65.3258C186.051 65.1757 184.954 65.0257 183.833 64.8856V46.5735C179.133 45.6931 173.983 44.8978 168.442 44.1925V63.24C167.107 63.1199 165.763 63.0066 164.408 62.8998V43.7073C159.227 43.1071 153.747 42.5869 148.006 42.1567V61.8244C146.674 61.7594 145.328 61.6894 143.971 61.6293V41.8666C138 41.4665 128.69 41.1663 122.279 40.9663V61.0241C119.926 60.9741 120.637 60.9341 118.234 60.9041V40.7862C114.544 40.7162 110.805 40.6812 107.018 40.6812C103.23 40.6812 99.4913 40.7162 95.8007 40.7862V60.8841C93.3982 60.9141 94.0789 60.9541 91.7264 61.0041V40.9663C85.3147 41.1663 76.035 41.4665 70.0687 41.8666V61.6293C68.7123 61.6894 67.3608 61.7594 66.0294 61.8244V42.1567C60.2934 42.5869 54.8076 43.1071 49.6322 43.7073V62.8998C48.2674 63.0032 46.921 63.1166 45.5929 63.24V44.1925C40.0521 44.8978 34.9017 45.6931 30.2068 46.5735V64.8856C29.0856 65.0257 27.9894 65.1757 26.9233 65.3258V47.2137C23.0242 48.019 19.4505 48.8644 16.3071 49.7747V67.1015C14.8056 67.4066 13.354 67.7217 12.0176 68.0369V51.1352C9.80495 51.8788 7.65297 52.7919 5.58087 53.8663V69.9326C4.62429 70.284 3.69137 70.6967 2.78793 71.1681V55.662C0.966016 57.0726 0 58.5481 0 60.0637V112.544H2.74288V116.896H4.92017L5.58087 124.049H6.72207V95.4776C6.72207 95.4776 6.72207 91.476 10.9315 91.476C13.6393 91.476 15.1359 94.6323 15.1359 97.2983V114.97L19.3954 111.914V97.4084C19.3954 95.2025 19.2703 89.7804 23.1944 89.7754C25.9072 89.7754 27.4038 92.9366 27.4038 95.6076V107.492L31.6633 105.356V95.7327C31.6633 93.5218 31.5382 88.1047 35.4623 88.1047C38.1701 88.1047 39.6767 91.2609 39.6767 93.927V101.83L43.9362 100.174V94.037C43.9362 91.8362 43.8111 86.414 47.7352 86.414C51.6593 86.414 51.5042 91.8362 51.5042 92.2163V97.7885L55.7636 96.593V92.4164C55.7636 91.1859 55.7236 88.96 56.3693 87.2294C56.8698 85.8538 57.8208 84.7834 59.5626 84.7834C61.6498 84.7834 62.5658 86.329 62.9962 87.8246C63.2326 88.729 63.3454 89.6611 63.3316 90.5957V94.7073L67.5961 93.8069V90.8058C67.5961 90.1505 67.5961 89.2051 67.6712 88.2098C67.8764 85.8538 68.6372 83.1778 71.3951 83.1778C74.8988 83.1778 75.144 87.4645 75.164 88.6799V92.4464L79.4185 91.7911V88.885C79.4185 86.5341 79.4485 81.5221 83.2225 81.5221C87.1316 81.5221 86.9865 86.9443 86.9865 87.3294V90.8308L91.2459 90.3306V87.5345C91.2459 85.3236 91.1208 79.9015 95.0449 79.9015C98.9691 79.9015 98.8139 85.3236 98.8139 85.7138V89.7153L101.477 89.5403H101.502L103.073 89.4352V85.2586L103.374 87.6745V84.1031C103.374 83.718 103.239 78.4309 107.008 78.3059C110.776 78.4309 110.641 83.718 110.641 84.1031V87.6745L110.947 85.2586V89.4352L112.513 89.5403L115.181 89.7153V89.5103V85.7338C115.181 85.3436 115.041 79.9215 118.955 79.9215C122.869 79.9215 122.754 85.3436 122.754 87.5545V90.3556L127.014 90.8558V87.3544C127.014 86.9693 126.868 81.5471 130.783 81.5471C134.556 81.5471 134.587 86.5491 134.582 88.91V91.8012L138.841 92.4564V88.6899C138.841 87.4695 139.131 83.1878 142.61 83.1878C145.368 83.1878 146.114 85.8638 146.334 88.2198C146.419 89.2201 146.409 90.1605 146.409 90.8158V93.8169L150.673 94.7173V90.6057C150.66 89.6714 150.771 88.7395 151.004 87.8346C151.424 86.334 152.35 84.7934 154.442 84.7934C156.184 84.7934 157.125 85.8638 157.636 87.2394C158.281 88.9701 158.241 91.1959 158.241 92.4264V96.603L162.501 97.7985V92.2213C162.501 91.8412 162.356 86.4191 166.27 86.4191C170.184 86.4191 170.069 91.8412 170.069 94.042V100.174L174.328 101.83V93.927C174.328 91.2609 175.83 88.1047 178.543 88.1047C182.467 88.1047 182.342 93.5218 182.342 95.7327V105.356L186.591 107.492V95.6177C186.591 92.9466 188.093 89.7854 190.806 89.7854C194.735 89.7854 194.605 95.2125 194.605 97.4184V111.924L198.864 114.98V97.2983C198.864 94.6323 200.366 91.476 203.074 91.476C207.283 91.476 207.283 95.4776 207.283 95.4776V124.049H208.419L209.085 116.916H211.257V112.544H214.005V60.0637C214 58.5481 213.029 57.0676 211.222 55.647Z" fill="#6A00C2"/>
<path d="M137.144 255.135H76.8457V268.75H137.144V255.135Z" fill="white"/>
<path d="M106.997 148.968L61.7699 255.135H76.8457L84.6139 237.818H129.346L137.114 255.135H152.225L106.997 148.968ZM107.068 183.837C109.911 190.506 112.747 197.627 115.576 205.2C118.406 212.773 121.272 219.866 124.176 226.479H89.8244C92.6273 219.886 95.4903 212.793 98.4134 205.2C101.336 197.607 104.221 190.486 107.068 183.837Z" fill="white"/>
<path d="M116.508 220.156C108.372 212.997 101.865 204.182 97.4225 194.301C88.4931 174.568 85.6651 145.922 104.995 131.316C110.736 126.975 118.485 124.509 125.772 125.714C136.003 127.285 143.656 136.498 144.932 146.447C144.932 146.537 144.972 146.662 144.982 146.747C144.857 145.814 144.4 144.957 143.696 144.331C141.944 142.681 138.831 143.296 137.77 145.277L137.82 145.192L137.925 145.022C138.325 144.396 138.786 143.576 139.236 142.991C141.877 139.26 145.363 136.205 149.409 134.075C153.456 131.946 157.948 130.801 162.521 130.736C171.53 130.736 180.109 135.283 186.006 141.935C194.935 151.754 197.052 166.33 193.584 178.83C189.654 193.686 178.608 205.59 166.095 213.879C151.735 223.577 134.321 230.175 125.422 245.801C121.948 251.803 120.111 258.841 121.378 265.809C117.719 255.27 122.028 243.635 128.52 235.082C141.594 218.12 163.617 211.177 176.24 193.911C182.102 186.283 185.901 176.904 185.68 167.235C185.535 162.603 184.594 158.102 182.462 154.035C178.418 146.307 170.194 140.34 161.485 140.76C158.848 140.961 156.278 141.694 153.932 142.915C151.587 144.135 149.512 145.819 147.835 147.863C147.286 148.541 146.785 149.256 146.334 150.004C145.763 151.082 144.869 151.955 143.776 152.499C142.683 153.043 141.447 153.231 140.242 153.036C139.036 152.841 137.923 152.273 137.057 151.412C136.192 150.552 135.618 149.441 135.417 148.238C135.301 147.306 135.134 146.381 134.917 145.467C134.369 143.484 133.476 141.613 132.279 139.94C124.516 129.49 109.6 135.373 103.334 144.501C95.6806 155.611 95.9459 170.011 98.3885 182.891C101.194 196.649 107.437 209.474 116.538 220.171L116.508 220.156Z" fill="#FF0A4C"/>
</g>
<defs>
<clipPath id="clip0_161_15">
<rect width="214" height="345" fill="white"/>
</clipPath>
</defs>
</svg>
